M48
;Layer_Color=9474304
;FILE_FORMAT=2:5
INCH,LZ
;TYPE=PLATED
T1F00S00C0.01000
T2F00S00C0.02953
T3F00S00C0.03937
%
T01
X0153543Y0072835
X019685
X0236221
X0309055Y0066142
X0312992Y0089764
X0293307Y0097835
X028937Y002626
X054335Y001415
X0564992Y0049213
X0576772
Y007874
X0559055
T02
X0021654Y0062992
Y0070866
T03
X0273465Y0108268
X0283465
X0300551
X0310551
X0320551
X0330551
X0340551
M30
