G04*
G04 #@! TF.GenerationSoftware,Altium Limited,Altium Designer,20.0.9 (164)*
G04*
G04 Layer_Color=8388736*
%FSLAX25Y25*%
%MOIN*%
G70*
G01*
G75*
G04:AMPARAMS|DCode=38|XSize=112.33mil|YSize=165.48mil|CornerRadius=30.08mil|HoleSize=0mil|Usage=FLASHONLY|Rotation=0.000|XOffset=0mil|YOffset=0mil|HoleType=Round|Shape=RoundedRectangle|*
%AMROUNDEDRECTD38*
21,1,0.11233,0.10532,0,0,0.0*
21,1,0.05217,0.16548,0,0,0.0*
1,1,0.06017,0.02608,-0.05266*
1,1,0.06017,-0.02608,-0.05266*
1,1,0.06017,-0.02608,0.05266*
1,1,0.06017,0.02608,0.05266*
%
%ADD38ROUNDEDRECTD38*%
%ADD39R,0.11233X0.16548*%
%ADD40R,0.11824X0.04737*%
G04:AMPARAMS|DCode=41|XSize=118.24mil|YSize=47.37mil|CornerRadius=13.84mil|HoleSize=0mil|Usage=FLASHONLY|Rotation=180.000|XOffset=0mil|YOffset=0mil|HoleType=Round|Shape=RoundedRectangle|*
%AMROUNDEDRECTD41*
21,1,0.11824,0.01968,0,0,180.0*
21,1,0.09055,0.04737,0,0,180.0*
1,1,0.02769,-0.04528,0.00984*
1,1,0.02769,0.04528,0.00984*
1,1,0.02769,0.04528,-0.00984*
1,1,0.02769,-0.04528,-0.00984*
%
%ADD41ROUNDEDRECTD41*%
G04:AMPARAMS|DCode=42|XSize=145.8mil|YSize=86.74mil|CornerRadius=23.68mil|HoleSize=0mil|Usage=FLASHONLY|Rotation=180.000|XOffset=0mil|YOffset=0mil|HoleType=Round|Shape=RoundedRectangle|*
%AMROUNDEDRECTD42*
21,1,0.14580,0.03937,0,0,180.0*
21,1,0.09843,0.08674,0,0,180.0*
1,1,0.04737,-0.04921,0.01968*
1,1,0.04737,0.04921,0.01968*
1,1,0.04737,0.04921,-0.01968*
1,1,0.04737,-0.04921,-0.01968*
%
%ADD42ROUNDEDRECTD42*%
%ADD43R,0.05721X0.03753*%
G04:AMPARAMS|DCode=44|XSize=62.99mil|YSize=88.58mil|CornerRadius=19.68mil|HoleSize=0mil|Usage=FLASHONLY|Rotation=90.000|XOffset=0mil|YOffset=0mil|HoleType=Round|Shape=RoundedRectangle|*
%AMROUNDEDRECTD44*
21,1,0.06299,0.04921,0,0,90.0*
21,1,0.02362,0.08858,0,0,90.0*
1,1,0.03937,0.02461,0.01181*
1,1,0.03937,0.02461,-0.01181*
1,1,0.03937,-0.02461,-0.01181*
1,1,0.03937,-0.02461,0.01181*
%
%ADD44ROUNDEDRECTD44*%
G04:AMPARAMS|DCode=45|XSize=31.3mil|YSize=88.58mil|CornerRadius=11.76mil|HoleSize=0mil|Usage=FLASHONLY|Rotation=90.000|XOffset=0mil|YOffset=0mil|HoleType=Round|Shape=RoundedRectangle|*
%AMROUNDEDRECTD45*
21,1,0.03130,0.06506,0,0,90.0*
21,1,0.00778,0.08858,0,0,90.0*
1,1,0.02352,0.03253,0.00389*
1,1,0.02352,0.03253,-0.00389*
1,1,0.02352,-0.03253,-0.00389*
1,1,0.02352,-0.03253,0.00389*
%
%ADD45ROUNDEDRECTD45*%
%ADD46R,0.08858X0.06299*%
G04:AMPARAMS|DCode=47|XSize=37.53mil|YSize=57.21mil|CornerRadius=0mil|HoleSize=0mil|Usage=FLASHONLY|Rotation=270.000|XOffset=0mil|YOffset=0mil|HoleType=Round|Shape=Octagon|*
%AMOCTAGOND47*
4,1,8,0.02861,0.00938,0.02861,-0.00938,0.01922,-0.01876,-0.01922,-0.01876,-0.02861,-0.00938,-0.02861,0.00938,-0.01922,0.01876,0.01922,0.01876,0.02861,0.00938,0.0*
%
%ADD47OCTAGOND47*%

%ADD48R,0.06706X0.11036*%
G04:AMPARAMS|DCode=49|XSize=67.06mil|YSize=110.36mil|CornerRadius=18.76mil|HoleSize=0mil|Usage=FLASHONLY|Rotation=0.000|XOffset=0mil|YOffset=0mil|HoleType=Round|Shape=RoundedRectangle|*
%AMROUNDEDRECTD49*
21,1,0.06706,0.07284,0,0,0.0*
21,1,0.02953,0.11036,0,0,0.0*
1,1,0.03753,0.01476,-0.03642*
1,1,0.03753,-0.01476,-0.03642*
1,1,0.03753,-0.01476,0.03642*
1,1,0.03753,0.01476,0.03642*
%
%ADD49ROUNDEDRECTD49*%
%ADD50R,0.11036X0.06706*%
G04:AMPARAMS|DCode=51|XSize=67.06mil|YSize=110.36mil|CornerRadius=18.76mil|HoleSize=0mil|Usage=FLASHONLY|Rotation=90.000|XOffset=0mil|YOffset=0mil|HoleType=Round|Shape=RoundedRectangle|*
%AMROUNDEDRECTD51*
21,1,0.06706,0.07284,0,0,90.0*
21,1,0.02953,0.11036,0,0,90.0*
1,1,0.03753,0.03642,0.01476*
1,1,0.03753,0.03642,-0.01476*
1,1,0.03753,-0.03642,-0.01476*
1,1,0.03753,-0.03642,0.01476*
%
%ADD51ROUNDEDRECTD51*%
G04:AMPARAMS|DCode=52|XSize=78.87mil|YSize=47.37mil|CornerRadius=13.84mil|HoleSize=0mil|Usage=FLASHONLY|Rotation=90.000|XOffset=0mil|YOffset=0mil|HoleType=Round|Shape=RoundedRectangle|*
%AMROUNDEDRECTD52*
21,1,0.07887,0.01968,0,0,90.0*
21,1,0.05118,0.04737,0,0,90.0*
1,1,0.02769,0.00984,0.02559*
1,1,0.02769,0.00984,-0.02559*
1,1,0.02769,-0.00984,-0.02559*
1,1,0.02769,-0.00984,0.02559*
%
%ADD52ROUNDEDRECTD52*%
G04:AMPARAMS|DCode=53|XSize=78.87mil|YSize=47.37mil|CornerRadius=13.84mil|HoleSize=0mil|Usage=FLASHONLY|Rotation=180.000|XOffset=0mil|YOffset=0mil|HoleType=Round|Shape=RoundedRectangle|*
%AMROUNDEDRECTD53*
21,1,0.07887,0.01968,0,0,180.0*
21,1,0.05118,0.04737,0,0,180.0*
1,1,0.02769,-0.02559,0.00984*
1,1,0.02769,0.02559,0.00984*
1,1,0.02769,0.02559,-0.00984*
1,1,0.02769,-0.02559,-0.00984*
%
%ADD53ROUNDEDRECTD53*%
G04:AMPARAMS|DCode=54|XSize=43.43mil|YSize=72.96mil|CornerRadius=12.86mil|HoleSize=0mil|Usage=FLASHONLY|Rotation=270.000|XOffset=0mil|YOffset=0mil|HoleType=Round|Shape=RoundedRectangle|*
%AMROUNDEDRECTD54*
21,1,0.04343,0.04724,0,0,270.0*
21,1,0.01772,0.07296,0,0,270.0*
1,1,0.02572,-0.02362,-0.00886*
1,1,0.02572,-0.02362,0.00886*
1,1,0.02572,0.02362,0.00886*
1,1,0.02572,0.02362,-0.00886*
%
%ADD54ROUNDEDRECTD54*%
%ADD55R,0.08674X0.03162*%
G04:AMPARAMS|DCode=56|XSize=74.93mil|YSize=126.11mil|CornerRadius=0mil|HoleSize=0mil|Usage=FLASHONLY|Rotation=270.000|XOffset=0mil|YOffset=0mil|HoleType=Round|Shape=Octagon|*
%AMOCTAGOND56*
4,1,8,0.06306,0.01873,0.06306,-0.01873,0.04432,-0.03747,-0.04432,-0.03747,-0.06306,-0.01873,-0.06306,0.01873,-0.04432,0.03747,0.04432,0.03747,0.06306,0.01873,0.0*
%
%ADD56OCTAGOND56*%

G04:AMPARAMS|DCode=57|XSize=126.11mil|YSize=86.74mil|CornerRadius=23.68mil|HoleSize=0mil|Usage=FLASHONLY|Rotation=180.000|XOffset=0mil|YOffset=0mil|HoleType=Round|Shape=RoundedRectangle|*
%AMROUNDEDRECTD57*
21,1,0.12611,0.03937,0,0,180.0*
21,1,0.07874,0.08674,0,0,180.0*
1,1,0.04737,-0.03937,0.01968*
1,1,0.04737,0.03937,0.01968*
1,1,0.04737,0.03937,-0.01968*
1,1,0.04737,-0.03937,-0.01968*
%
%ADD57ROUNDEDRECTD57*%
G04:AMPARAMS|DCode=58|XSize=55.24mil|YSize=94.61mil|CornerRadius=0mil|HoleSize=0mil|Usage=FLASHONLY|Rotation=0.000|XOffset=0mil|YOffset=0mil|HoleType=Round|Shape=Octagon|*
%AMOCTAGOND58*
4,1,8,-0.01381,0.04731,0.01381,0.04731,0.02762,0.03350,0.02762,-0.03350,0.01381,-0.04731,-0.01381,-0.04731,-0.02762,-0.03350,-0.02762,0.03350,-0.01381,0.04731,0.0*
%
%ADD58OCTAGOND58*%

%ADD59R,0.08674X0.05524*%
G04:AMPARAMS|DCode=60|XSize=55.24mil|YSize=86.74mil|CornerRadius=15.81mil|HoleSize=0mil|Usage=FLASHONLY|Rotation=90.000|XOffset=0mil|YOffset=0mil|HoleType=Round|Shape=RoundedRectangle|*
%AMROUNDEDRECTD60*
21,1,0.05524,0.05512,0,0,90.0*
21,1,0.02362,0.08674,0,0,90.0*
1,1,0.03162,0.02756,0.01181*
1,1,0.03162,0.02756,-0.01181*
1,1,0.03162,-0.02756,-0.01181*
1,1,0.03162,-0.02756,0.01181*
%
%ADD60ROUNDEDRECTD60*%
%ADD61R,0.05721X0.08674*%
G04:AMPARAMS|DCode=62|XSize=57.21mil|YSize=86.74mil|CornerRadius=16.3mil|HoleSize=0mil|Usage=FLASHONLY|Rotation=0.000|XOffset=0mil|YOffset=0mil|HoleType=Round|Shape=RoundedRectangle|*
%AMROUNDEDRECTD62*
21,1,0.05721,0.05413,0,0,0.0*
21,1,0.02461,0.08674,0,0,0.0*
1,1,0.03261,0.01230,-0.02707*
1,1,0.03261,-0.01230,-0.02707*
1,1,0.03261,-0.01230,0.02707*
1,1,0.03261,0.01230,0.02707*
%
%ADD62ROUNDEDRECTD62*%
%ADD63C,0.14580*%
%ADD64C,0.02769*%
D38*
X47244Y58465D02*
D03*
D39*
Y79331D02*
D03*
D40*
X591535Y84646D02*
D03*
D41*
Y76772D02*
D03*
Y68898D02*
D03*
Y61024D02*
D03*
D42*
X617913Y51181D02*
D03*
Y94488D02*
D03*
D43*
X32283Y37598D02*
D03*
Y45078D02*
D03*
X22834Y41338D02*
D03*
Y23622D02*
D03*
X32283Y19882D02*
D03*
D44*
X330118Y26260D02*
D03*
Y52480D02*
D03*
X299803Y26260D02*
D03*
D45*
X330118Y30413D02*
D03*
Y32972D02*
D03*
Y35531D02*
D03*
Y38091D02*
D03*
Y40650D02*
D03*
Y43209D02*
D03*
Y45768D02*
D03*
Y48327D02*
D03*
X299803Y30413D02*
D03*
Y32972D02*
D03*
Y35531D02*
D03*
Y38091D02*
D03*
Y40650D02*
D03*
Y43209D02*
D03*
Y45768D02*
D03*
Y48327D02*
D03*
D46*
Y52480D02*
D03*
D47*
X32283Y27362D02*
D03*
D48*
X377756Y78347D02*
D03*
X448622D02*
D03*
X519488Y78000D02*
D03*
D49*
X389961Y78347D02*
D03*
X460826D02*
D03*
X531693Y78000D02*
D03*
D50*
X252756Y51772D02*
D03*
X213386D02*
D03*
X174016D02*
D03*
X134646D02*
D03*
X95276D02*
D03*
D51*
X252756Y63976D02*
D03*
X213386D02*
D03*
X174016D02*
D03*
X134646D02*
D03*
X95276D02*
D03*
D52*
X388189Y102362D02*
D03*
X379528D02*
D03*
X459055D02*
D03*
X450394D02*
D03*
X527953D02*
D03*
X519291D02*
D03*
X248425Y25591D02*
D03*
X257087D02*
D03*
X209055D02*
D03*
X217717D02*
D03*
X169685D02*
D03*
X178347D02*
D03*
X130315D02*
D03*
X138976D02*
D03*
X90945D02*
D03*
X99606D02*
D03*
X51575Y21654D02*
D03*
X42913D02*
D03*
Y39370D02*
D03*
X51575D02*
D03*
D53*
X562992Y27953D02*
D03*
Y19291D02*
D03*
X551181D02*
D03*
Y27953D02*
D03*
X352362Y35039D02*
D03*
Y43701D02*
D03*
X421260Y35039D02*
D03*
Y43701D02*
D03*
X492126Y35039D02*
D03*
Y43701D02*
D03*
X285433Y83071D02*
D03*
Y74410D02*
D03*
X297244Y83071D02*
D03*
Y74410D02*
D03*
X309055Y83071D02*
D03*
Y74410D02*
D03*
X552681Y101969D02*
D03*
Y110630D02*
D03*
X320866Y83071D02*
D03*
Y74410D02*
D03*
X574803Y27953D02*
D03*
Y19291D02*
D03*
X586614D02*
D03*
Y27953D02*
D03*
D54*
X580614Y110236D02*
D03*
Y98425D02*
D03*
D55*
X579827Y104331D02*
D03*
D56*
X570289Y104331D02*
D03*
D57*
X64961Y23917D02*
D03*
Y43012D02*
D03*
D58*
X383859Y46457D02*
D03*
X454725D02*
D03*
X525591D02*
D03*
D59*
X21654Y70866D02*
D03*
D60*
Y62992D02*
D03*
D61*
X340551Y108268D02*
D03*
X283465D02*
D03*
D62*
X320551D02*
D03*
X300551D02*
D03*
X310551D02*
D03*
X330551D02*
D03*
X273465D02*
D03*
D63*
X614173Y25591D02*
D03*
X25591Y102362D02*
D03*
D64*
X293307Y97835D02*
D03*
X312992Y89764D02*
D03*
X543350Y14150D02*
D03*
X289370Y26260D02*
D03*
X564992Y49213D02*
D03*
X576772Y78740D02*
D03*
X559055D02*
D03*
X576772Y49213D02*
D03*
X236221Y72835D02*
D03*
X309055Y66142D02*
D03*
X153543Y72835D02*
D03*
X196850D02*
D03*
M02*
