G04*
G04 #@! TF.GenerationSoftware,Altium Limited,Altium Designer,20.0.9 (164)*
G04*
G04 Layer_Color=128*
%FSLAX25Y25*%
%MOIN*%
G70*
G01*
G75*
%ADD76C,0.00200*%
D76*
X379922Y46457D02*
X387796D01*
X383859Y42520D02*
Y50394D01*
X450788Y46457D02*
X458662D01*
X454725Y42520D02*
Y50394D01*
X521654Y46457D02*
X529528D01*
X525591Y42520D02*
Y50394D01*
X20177Y70866D02*
X23130D01*
X21654Y69390D02*
Y72342D01*
X20177Y62992D02*
X23130D01*
X21654Y61516D02*
Y64468D01*
X338583Y108268D02*
X342520D01*
X340551Y106299D02*
Y110236D01*
X318583Y108268D02*
X322520D01*
X320551Y106299D02*
Y110236D01*
X298583Y108268D02*
X302520D01*
X300551Y106299D02*
Y110236D01*
X308583Y108268D02*
X312520D01*
X310551Y106299D02*
Y110236D01*
X328583Y108268D02*
X332520D01*
X330551Y106299D02*
Y110236D01*
X271496Y108268D02*
X275433D01*
X273465Y106299D02*
Y110236D01*
X281496Y108268D02*
X285433D01*
X283465Y106299D02*
Y110236D01*
X607283Y25591D02*
X621063D01*
X614173Y18701D02*
Y32480D01*
X18701Y102362D02*
X32480D01*
X25591Y95472D02*
Y109252D01*
X292807Y97835D02*
X293807D01*
X293307Y97335D02*
Y98335D01*
X312492Y89764D02*
X313492D01*
X312992Y89264D02*
Y90264D01*
X542850Y14150D02*
X543850D01*
X543350Y13650D02*
Y14650D01*
X288870Y26260D02*
X289870D01*
X289370Y25760D02*
Y26760D01*
X564492Y49213D02*
X565492D01*
X564992Y48713D02*
Y49713D01*
X576272Y78740D02*
X577272D01*
X576772Y78240D02*
Y79240D01*
X558555Y78740D02*
X559555D01*
X559055Y78240D02*
Y79240D01*
X576272Y49213D02*
X577272D01*
X576772Y48713D02*
Y49713D01*
X235720Y72835D02*
X236720D01*
X236221Y72335D02*
Y73335D01*
X308555Y66142D02*
X309555D01*
X309055Y65642D02*
Y66642D01*
X153043Y72835D02*
X154043D01*
X153543Y72335D02*
Y73335D01*
X196350Y72835D02*
X197350D01*
X196850Y72335D02*
Y73335D01*
M02*
