G04*
G04 #@! TF.GenerationSoftware,Altium Limited,Altium Designer,20.0.9 (164)*
G04*
G04 Layer_Physical_Order=1*
G04 Layer_Color=255*
%FSLAX25Y25*%
%MOIN*%
G70*
G01*
G75*
%ADD10C,0.01000*%
%ADD14C,0.01968*%
G04:AMPARAMS|DCode=18|XSize=104.33mil|YSize=157.48mil|CornerRadius=26.08mil|HoleSize=0mil|Usage=FLASHONLY|Rotation=0.000|XOffset=0mil|YOffset=0mil|HoleType=Round|Shape=RoundedRectangle|*
%AMROUNDEDRECTD18*
21,1,0.10433,0.10532,0,0,0.0*
21,1,0.05217,0.15748,0,0,0.0*
1,1,0.05217,0.02608,-0.05266*
1,1,0.05217,-0.02608,-0.05266*
1,1,0.05217,-0.02608,0.05266*
1,1,0.05217,0.02608,0.05266*
%
%ADD18ROUNDEDRECTD18*%
%ADD19R,0.10433X0.15748*%
%ADD20R,0.11024X0.03937*%
G04:AMPARAMS|DCode=21|XSize=110.24mil|YSize=39.37mil|CornerRadius=9.84mil|HoleSize=0mil|Usage=FLASHONLY|Rotation=180.000|XOffset=0mil|YOffset=0mil|HoleType=Round|Shape=RoundedRectangle|*
%AMROUNDEDRECTD21*
21,1,0.11024,0.01968,0,0,180.0*
21,1,0.09055,0.03937,0,0,180.0*
1,1,0.01968,-0.04528,0.00984*
1,1,0.01968,0.04528,0.00984*
1,1,0.01968,0.04528,-0.00984*
1,1,0.01968,-0.04528,-0.00984*
%
%ADD21ROUNDEDRECTD21*%
G04:AMPARAMS|DCode=22|XSize=137.8mil|YSize=78.74mil|CornerRadius=19.68mil|HoleSize=0mil|Usage=FLASHONLY|Rotation=180.000|XOffset=0mil|YOffset=0mil|HoleType=Round|Shape=RoundedRectangle|*
%AMROUNDEDRECTD22*
21,1,0.13780,0.03937,0,0,180.0*
21,1,0.09843,0.07874,0,0,180.0*
1,1,0.03937,-0.04921,0.01968*
1,1,0.03937,0.04921,0.01968*
1,1,0.03937,0.04921,-0.01968*
1,1,0.03937,-0.04921,-0.01968*
%
%ADD22ROUNDEDRECTD22*%
%ADD23R,0.04921X0.02953*%
G04:AMPARAMS|DCode=24|XSize=47.24mil|YSize=72.84mil|CornerRadius=11.81mil|HoleSize=0mil|Usage=FLASHONLY|Rotation=90.000|XOffset=0mil|YOffset=0mil|HoleType=Round|Shape=RoundedRectangle|*
%AMROUNDEDRECTD24*
21,1,0.04724,0.04921,0,0,90.0*
21,1,0.02362,0.07284,0,0,90.0*
1,1,0.02362,0.02461,0.01181*
1,1,0.02362,0.02461,-0.01181*
1,1,0.02362,-0.02461,-0.01181*
1,1,0.02362,-0.02461,0.01181*
%
%ADD24ROUNDEDRECTD24*%
G04:AMPARAMS|DCode=25|XSize=15.55mil|YSize=72.84mil|CornerRadius=3.89mil|HoleSize=0mil|Usage=FLASHONLY|Rotation=90.000|XOffset=0mil|YOffset=0mil|HoleType=Round|Shape=RoundedRectangle|*
%AMROUNDEDRECTD25*
21,1,0.01555,0.06506,0,0,90.0*
21,1,0.00778,0.07284,0,0,90.0*
1,1,0.00778,0.03253,0.00389*
1,1,0.00778,0.03253,-0.00389*
1,1,0.00778,-0.03253,-0.00389*
1,1,0.00778,-0.03253,0.00389*
%
%ADD25ROUNDEDRECTD25*%
%ADD26R,0.07284X0.04724*%
G04:AMPARAMS|DCode=27|XSize=29.53mil|YSize=49.21mil|CornerRadius=0mil|HoleSize=0mil|Usage=FLASHONLY|Rotation=270.000|XOffset=0mil|YOffset=0mil|HoleType=Round|Shape=Octagon|*
%AMOCTAGOND27*
4,1,8,0.02461,0.00738,0.02461,-0.00738,0.01722,-0.01476,-0.01722,-0.01476,-0.02461,-0.00738,-0.02461,0.00738,-0.01722,0.01476,0.01722,0.01476,0.02461,0.00738,0.0*
%
%ADD27OCTAGOND27*%

%ADD28R,0.05906X0.10236*%
G04:AMPARAMS|DCode=29|XSize=59.06mil|YSize=102.36mil|CornerRadius=14.76mil|HoleSize=0mil|Usage=FLASHONLY|Rotation=0.000|XOffset=0mil|YOffset=0mil|HoleType=Round|Shape=RoundedRectangle|*
%AMROUNDEDRECTD29*
21,1,0.05906,0.07284,0,0,0.0*
21,1,0.02953,0.10236,0,0,0.0*
1,1,0.02953,0.01476,-0.03642*
1,1,0.02953,-0.01476,-0.03642*
1,1,0.02953,-0.01476,0.03642*
1,1,0.02953,0.01476,0.03642*
%
%ADD29ROUNDEDRECTD29*%
%ADD30R,0.10236X0.05906*%
G04:AMPARAMS|DCode=31|XSize=59.06mil|YSize=102.36mil|CornerRadius=14.76mil|HoleSize=0mil|Usage=FLASHONLY|Rotation=90.000|XOffset=0mil|YOffset=0mil|HoleType=Round|Shape=RoundedRectangle|*
%AMROUNDEDRECTD31*
21,1,0.05906,0.07284,0,0,90.0*
21,1,0.02953,0.10236,0,0,90.0*
1,1,0.02953,0.03642,0.01476*
1,1,0.02953,0.03642,-0.01476*
1,1,0.02953,-0.03642,-0.01476*
1,1,0.02953,-0.03642,0.01476*
%
%ADD31ROUNDEDRECTD31*%
G04:AMPARAMS|DCode=32|XSize=70.87mil|YSize=39.37mil|CornerRadius=9.84mil|HoleSize=0mil|Usage=FLASHONLY|Rotation=90.000|XOffset=0mil|YOffset=0mil|HoleType=Round|Shape=RoundedRectangle|*
%AMROUNDEDRECTD32*
21,1,0.07087,0.01968,0,0,90.0*
21,1,0.05118,0.03937,0,0,90.0*
1,1,0.01968,0.00984,0.02559*
1,1,0.01968,0.00984,-0.02559*
1,1,0.01968,-0.00984,-0.02559*
1,1,0.01968,-0.00984,0.02559*
%
%ADD32ROUNDEDRECTD32*%
G04:AMPARAMS|DCode=33|XSize=70.87mil|YSize=39.37mil|CornerRadius=9.84mil|HoleSize=0mil|Usage=FLASHONLY|Rotation=180.000|XOffset=0mil|YOffset=0mil|HoleType=Round|Shape=RoundedRectangle|*
%AMROUNDEDRECTD33*
21,1,0.07087,0.01968,0,0,180.0*
21,1,0.05118,0.03937,0,0,180.0*
1,1,0.01968,-0.02559,0.00984*
1,1,0.01968,0.02559,0.00984*
1,1,0.01968,0.02559,-0.00984*
1,1,0.01968,-0.02559,-0.00984*
%
%ADD33ROUNDEDRECTD33*%
G04:AMPARAMS|DCode=34|XSize=35.43mil|YSize=64.96mil|CornerRadius=8.86mil|HoleSize=0mil|Usage=FLASHONLY|Rotation=270.000|XOffset=0mil|YOffset=0mil|HoleType=Round|Shape=RoundedRectangle|*
%AMROUNDEDRECTD34*
21,1,0.03543,0.04724,0,0,270.0*
21,1,0.01772,0.06496,0,0,270.0*
1,1,0.01772,-0.02362,-0.00886*
1,1,0.01772,-0.02362,0.00886*
1,1,0.01772,0.02362,0.00886*
1,1,0.01772,0.02362,-0.00886*
%
%ADD34ROUNDEDRECTD34*%
%ADD35R,0.07874X0.02362*%
G04:AMPARAMS|DCode=36|XSize=66.93mil|YSize=118.11mil|CornerRadius=0mil|HoleSize=0mil|Usage=FLASHONLY|Rotation=270.000|XOffset=0mil|YOffset=0mil|HoleType=Round|Shape=Octagon|*
%AMOCTAGOND36*
4,1,8,0.05906,0.01673,0.05906,-0.01673,0.04232,-0.03347,-0.04232,-0.03347,-0.05906,-0.01673,-0.05906,0.01673,-0.04232,0.03347,0.04232,0.03347,0.05906,0.01673,0.0*
%
%ADD36OCTAGOND36*%

G04:AMPARAMS|DCode=37|XSize=118.11mil|YSize=78.74mil|CornerRadius=19.68mil|HoleSize=0mil|Usage=FLASHONLY|Rotation=180.000|XOffset=0mil|YOffset=0mil|HoleType=Round|Shape=RoundedRectangle|*
%AMROUNDEDRECTD37*
21,1,0.11811,0.03937,0,0,180.0*
21,1,0.07874,0.07874,0,0,180.0*
1,1,0.03937,-0.03937,0.01968*
1,1,0.03937,0.03937,0.01968*
1,1,0.03937,0.03937,-0.01968*
1,1,0.03937,-0.03937,-0.01968*
%
%ADD37ROUNDEDRECTD37*%
%ADD65C,0.01181*%
%ADD66C,0.01378*%
G04:AMPARAMS|DCode=67|XSize=47.24mil|YSize=86.61mil|CornerRadius=0mil|HoleSize=0mil|Usage=FLASHONLY|Rotation=0.000|XOffset=0mil|YOffset=0mil|HoleType=Round|Shape=Octagon|*
%AMOCTAGOND67*
4,1,8,-0.01181,0.04331,0.01181,0.04331,0.02362,0.03150,0.02362,-0.03150,0.01181,-0.04331,-0.01181,-0.04331,-0.02362,-0.03150,-0.02362,0.03150,-0.01181,0.04331,0.0*
%
%ADD67OCTAGOND67*%

%ADD68R,0.07874X0.04724*%
G04:AMPARAMS|DCode=69|XSize=47.24mil|YSize=78.74mil|CornerRadius=11.81mil|HoleSize=0mil|Usage=FLASHONLY|Rotation=90.000|XOffset=0mil|YOffset=0mil|HoleType=Round|Shape=RoundedRectangle|*
%AMROUNDEDRECTD69*
21,1,0.04724,0.05512,0,0,90.0*
21,1,0.02362,0.07874,0,0,90.0*
1,1,0.02362,0.02756,0.01181*
1,1,0.02362,0.02756,-0.01181*
1,1,0.02362,-0.02756,-0.01181*
1,1,0.02362,-0.02756,0.01181*
%
%ADD69ROUNDEDRECTD69*%
%ADD70R,0.04921X0.07874*%
G04:AMPARAMS|DCode=71|XSize=49.21mil|YSize=78.74mil|CornerRadius=12.3mil|HoleSize=0mil|Usage=FLASHONLY|Rotation=0.000|XOffset=0mil|YOffset=0mil|HoleType=Round|Shape=RoundedRectangle|*
%AMROUNDEDRECTD71*
21,1,0.04921,0.05413,0,0,0.0*
21,1,0.02461,0.07874,0,0,0.0*
1,1,0.02461,0.01230,-0.02707*
1,1,0.02461,-0.01230,-0.02707*
1,1,0.02461,-0.01230,0.02707*
1,1,0.02461,0.01230,0.02707*
%
%ADD71ROUNDEDRECTD71*%
%ADD72C,0.13780*%
G36*
X341056Y113001D02*
X341071Y112828D01*
X341096Y112677D01*
X341131Y112545D01*
X341176Y112434D01*
X341231Y112343D01*
X341296Y112272D01*
X341371Y112221D01*
X341456Y112191D01*
X341551Y112181D01*
X339551D01*
X339646Y112191D01*
X339731Y112221D01*
X339806Y112272D01*
X339871Y112343D01*
X339926Y112434D01*
X339971Y112545D01*
X340006Y112677D01*
X340031Y112828D01*
X340046Y113001D01*
X340051Y113193D01*
X341051D01*
X341056Y113001D01*
D02*
G37*
G36*
X288000Y94500D02*
X291500Y91000D01*
X296244Y91000D01*
X298500Y88744D01*
X298500Y86432D01*
X298146Y86078D01*
X297933D01*
Y83071D01*
X297244D01*
Y82382D01*
X292552D01*
X292198Y82000D01*
X290086D01*
X290015Y82087D01*
Y82382D01*
X285433D01*
X280741D01*
X280387Y82000D01*
X279000D01*
Y110000D01*
X280004D01*
Y108957D01*
X286925D01*
Y110000D01*
X288000D01*
Y94500D01*
D02*
G37*
G36*
X301065Y104339D02*
X301062Y104323D01*
X301060Y104297D01*
X301054Y104154D01*
X301051Y103815D01*
X300051D01*
X300034Y104344D01*
X301068D01*
X301065Y104339D01*
D02*
G37*
G36*
X575902Y103162D02*
X575890Y103272D01*
X575854Y103370D01*
X575796Y103457D01*
X575713Y103532D01*
X575606Y103596D01*
X575477Y103648D01*
X575323Y103688D01*
X575146Y103717D01*
X574945Y103735D01*
X574721Y103740D01*
Y104921D01*
X574945Y104927D01*
X575146Y104945D01*
X575323Y104973D01*
X575477Y105014D01*
X575606Y105066D01*
X575713Y105130D01*
X575796Y105205D01*
X575854Y105292D01*
X575890Y105390D01*
X575902Y105500D01*
Y103162D01*
D02*
G37*
G36*
X576195Y105400D02*
X576230Y105299D01*
X576289Y105211D01*
X576372Y105134D01*
X576478Y105069D01*
X576608Y105016D01*
X576762Y104975D01*
X576939Y104945D01*
X577140Y104927D01*
X577364Y104921D01*
Y103740D01*
X577140Y103734D01*
X576939Y103717D01*
X576762Y103687D01*
X576608Y103646D01*
X576478Y103593D01*
X576372Y103528D01*
X576289Y103451D01*
X576230Y103362D01*
X576195Y103262D01*
X576183Y103150D01*
Y105512D01*
X576195Y105400D01*
D02*
G37*
G36*
X321797Y104349D02*
X321680Y104307D01*
X321577Y104237D01*
X321488Y104138D01*
X321412Y104011D01*
X321350Y103856D01*
X321302Y103673D01*
X321268Y103462D01*
X321247Y103222D01*
X321240Y102954D01*
X319862D01*
X319855Y103222D01*
X319835Y103462D01*
X319800Y103673D01*
X319752Y103856D01*
X319690Y104011D01*
X319615Y104138D01*
X319525Y104237D01*
X319422Y104307D01*
X319305Y104349D01*
X319175Y104364D01*
X321928D01*
X321797Y104349D01*
D02*
G37*
G36*
X347500Y116500D02*
X347500Y100000D01*
X327417Y100000D01*
X325586Y101602D01*
X325587Y110000D01*
X327047D01*
Y108957D01*
X334055D01*
Y110000D01*
X335500D01*
X335500Y103549D01*
X337000Y102049D01*
X346000D01*
X346000Y115539D01*
X344480Y117000D01*
X266375D01*
X262080Y112705D01*
X89352D01*
X53961Y77313D01*
X53461Y77520D01*
Y78642D01*
X41028D01*
Y76856D01*
X34500Y69500D01*
X26591D01*
Y70177D01*
X21654D01*
X16716D01*
Y69500D01*
X16000D01*
X16000Y31000D01*
X19638Y27362D01*
X24409D01*
Y26098D01*
X23523D01*
Y23622D01*
Y21145D01*
X24409D01*
Y18500D01*
X17531Y18500D01*
X10000Y26032D01*
X10000Y76000D01*
X20000Y86000D01*
X33500Y86000D01*
X66500Y119000D01*
X345000D01*
X347500Y116500D01*
D02*
G37*
G36*
X517328Y101500D02*
X517318Y101595D01*
X517287Y101680D01*
X517237Y101755D01*
X517166Y101820D01*
X517075Y101875D01*
X516963Y101920D01*
X516832Y101955D01*
X516680Y101980D01*
X516508Y101995D01*
X516316Y102000D01*
Y103000D01*
X516508Y103005D01*
X516680Y103020D01*
X516832Y103045D01*
X516963Y103080D01*
X517075Y103125D01*
X517166Y103180D01*
X517237Y103245D01*
X517287Y103320D01*
X517318Y103405D01*
X517328Y103500D01*
Y101500D01*
D02*
G37*
G36*
X448430Y101362D02*
X448420Y101457D01*
X448390Y101542D01*
X448339Y101617D01*
X448268Y101682D01*
X448177Y101737D01*
X448066Y101782D01*
X447934Y101817D01*
X447783Y101842D01*
X447610Y101857D01*
X447418Y101862D01*
Y102862D01*
X447610Y102867D01*
X447783Y102882D01*
X447934Y102907D01*
X448066Y102942D01*
X448177Y102987D01*
X448268Y103042D01*
X448339Y103107D01*
X448390Y103182D01*
X448420Y103267D01*
X448430Y103362D01*
Y101362D01*
D02*
G37*
G36*
X377564D02*
X377554Y101457D01*
X377523Y101542D01*
X377473Y101617D01*
X377402Y101682D01*
X377311Y101737D01*
X377200Y101782D01*
X377068Y101817D01*
X376916Y101842D01*
X376744Y101857D01*
X376552Y101862D01*
Y102862D01*
X376744Y102867D01*
X376916Y102882D01*
X377068Y102907D01*
X377200Y102942D01*
X377311Y102987D01*
X377402Y103042D01*
X377473Y103107D01*
X377523Y103182D01*
X377554Y103267D01*
X377564Y103362D01*
Y101362D01*
D02*
G37*
G36*
X528856Y98817D02*
X528771Y98786D01*
X528697Y98735D01*
X528632Y98664D01*
X528577Y98573D01*
X528532Y98461D01*
X528498Y98329D01*
X528473Y98177D01*
X528458Y98005D01*
X528453Y97812D01*
X527453D01*
X527448Y98005D01*
X527433Y98177D01*
X527408Y98329D01*
X527373Y98461D01*
X527328Y98573D01*
X527274Y98664D01*
X527209Y98735D01*
X527134Y98786D01*
X527050Y98817D01*
X526955Y98827D01*
X528950D01*
X528856Y98817D01*
D02*
G37*
G36*
X459958D02*
X459874Y98786D01*
X459799Y98735D01*
X459734Y98664D01*
X459680Y98573D01*
X459635Y98461D01*
X459600Y98329D01*
X459575Y98177D01*
X459560Y98005D01*
X459555Y97812D01*
X458555D01*
X458550Y98005D01*
X458535Y98177D01*
X458510Y98329D01*
X458475Y98461D01*
X458431Y98573D01*
X458376Y98664D01*
X458311Y98735D01*
X458237Y98786D01*
X458152Y98817D01*
X458057Y98827D01*
X460053D01*
X459958Y98817D01*
D02*
G37*
G36*
X389092D02*
X389007Y98786D01*
X388933Y98735D01*
X388868Y98664D01*
X388813Y98573D01*
X388769Y98461D01*
X388734Y98329D01*
X388709Y98177D01*
X388694Y98005D01*
X388689Y97812D01*
X387689D01*
X387684Y98005D01*
X387669Y98177D01*
X387644Y98329D01*
X387609Y98461D01*
X387565Y98573D01*
X387510Y98664D01*
X387445Y98735D01*
X387370Y98786D01*
X387286Y98817D01*
X387191Y98827D01*
X389187D01*
X389092Y98817D01*
D02*
G37*
G36*
X581861Y96646D02*
X581744Y96605D01*
X581641Y96535D01*
X581551Y96438D01*
X581475Y96313D01*
X581413Y96160D01*
X581365Y95979D01*
X581331Y95771D01*
X581310Y95535D01*
X581303Y95271D01*
X579925D01*
X579918Y95535D01*
X579898Y95771D01*
X579863Y95979D01*
X579815Y96160D01*
X579753Y96313D01*
X579677Y96438D01*
X579588Y96535D01*
X579484Y96605D01*
X579367Y96646D01*
X579236Y96660D01*
X581992D01*
X581861Y96646D01*
D02*
G37*
G36*
X312913Y88783D02*
X312880Y88781D01*
X312842Y88771D01*
X312799Y88752D01*
X312751Y88725D01*
X312697Y88690D01*
X312639Y88646D01*
X312506Y88534D01*
X312353Y88387D01*
X311592Y89296D01*
X311670Y89375D01*
X311939Y89683D01*
X311969Y89727D01*
X311991Y89765D01*
X312004Y89797D01*
X312010Y89823D01*
X312913Y88783D01*
D02*
G37*
G36*
X321562Y86160D02*
X321583Y85924D01*
X321617Y85716D01*
X321665Y85535D01*
X321727Y85382D01*
X321803Y85257D01*
X321893Y85159D01*
X321996Y85090D01*
X322113Y85048D01*
X322244Y85034D01*
X319488D01*
X319619Y85048D01*
X319736Y85090D01*
X319840Y85159D01*
X319929Y85257D01*
X320005Y85382D01*
X320067Y85535D01*
X320115Y85716D01*
X320150Y85924D01*
X320170Y86160D01*
X320177Y86424D01*
X321555D01*
X321562Y86160D01*
D02*
G37*
G36*
X309648Y85755D02*
X309671Y85470D01*
X309692Y85355D01*
X309717Y85257D01*
X309749Y85177D01*
X309786Y85115D01*
X309829Y85070D01*
X309878Y85043D01*
X309933Y85034D01*
X308177D01*
X308232Y85043D01*
X308281Y85070D01*
X308324Y85115D01*
X308361Y85177D01*
X308393Y85257D01*
X308419Y85355D01*
X308439Y85470D01*
X308453Y85604D01*
X308465Y85924D01*
X309646D01*
X309648Y85755D01*
D02*
G37*
G36*
X449127Y84260D02*
X449142Y84088D01*
X449167Y83937D01*
X449202Y83805D01*
X449247Y83694D01*
X449302Y83602D01*
X449367Y83532D01*
X449442Y83481D01*
X449527Y83451D01*
X449622Y83441D01*
X447622D01*
X447717Y83451D01*
X447802Y83481D01*
X447877Y83532D01*
X447942Y83602D01*
X447997Y83694D01*
X448042Y83805D01*
X448077Y83937D01*
X448102Y84088D01*
X448117Y84260D01*
X448122Y84453D01*
X449122D01*
X449127Y84260D01*
D02*
G37*
G36*
X378261D02*
X378276Y84088D01*
X378301Y83937D01*
X378336Y83805D01*
X378381Y83694D01*
X378436Y83602D01*
X378501Y83532D01*
X378576Y83481D01*
X378661Y83451D01*
X378756Y83441D01*
X376756D01*
X376851Y83451D01*
X376936Y83481D01*
X377011Y83532D01*
X377076Y83602D01*
X377131Y83694D01*
X377176Y83805D01*
X377211Y83937D01*
X377236Y84088D01*
X377251Y84260D01*
X377256Y84453D01*
X378256D01*
X378261Y84260D01*
D02*
G37*
G36*
X602693Y111409D02*
X602693Y83427D01*
X598047D01*
Y83957D01*
X591535D01*
Y84646D01*
X590846D01*
Y87614D01*
X590000D01*
X590000Y106146D01*
X587645Y108500D01*
X585232D01*
X584829Y109000D01*
X584899Y109350D01*
Y109547D01*
X580614D01*
Y110236D01*
X579925D01*
Y113045D01*
X578252D01*
X577516Y112899D01*
X576920Y112500D01*
X561742D01*
X558475Y109549D01*
X557342D01*
X557263Y109646D01*
Y109941D01*
X547999D01*
X547639Y109549D01*
X546328D01*
Y115865D01*
X549463Y119000D01*
X595102Y119000D01*
X602693Y111409D01*
D02*
G37*
G36*
X519993Y83914D02*
X520008Y83742D01*
X520033Y83590D01*
X520068Y83458D01*
X520113Y83347D01*
X520168Y83256D01*
X520233Y83185D01*
X520308Y83135D01*
X520393Y83104D01*
X520488Y83094D01*
X518488D01*
X518583Y83104D01*
X518668Y83135D01*
X518743Y83185D01*
X518808Y83256D01*
X518863Y83347D01*
X518908Y83458D01*
X518943Y83590D01*
X518968Y83742D01*
X518983Y83914D01*
X518988Y84106D01*
X519988D01*
X519993Y83914D01*
D02*
G37*
G36*
X577760Y78700D02*
X577772Y78664D01*
X577792Y78623D01*
X577820Y78577D01*
X577857Y78525D01*
X577955Y78404D01*
X578086Y78263D01*
X578164Y78183D01*
X577328Y77348D01*
X577249Y77426D01*
X576987Y77655D01*
X576935Y77691D01*
X576889Y77720D01*
X576848Y77740D01*
X576812Y77752D01*
X576782Y77756D01*
X577756Y78730D01*
X577760Y78700D01*
D02*
G37*
G36*
X586067Y75593D02*
X586055Y75705D01*
X586018Y75805D01*
X585957Y75893D01*
X585870Y75969D01*
X585759Y76034D01*
X585624Y76087D01*
X585464Y76128D01*
X585279Y76158D01*
X585070Y76175D01*
X584835Y76181D01*
Y77362D01*
X585070Y77368D01*
X585279Y77386D01*
X585464Y77415D01*
X585624Y77456D01*
X585759Y77509D01*
X585870Y77574D01*
X585957Y77650D01*
X586018Y77739D01*
X586055Y77839D01*
X586067Y77950D01*
Y75593D01*
D02*
G37*
G36*
X237051Y73373D02*
X237073Y73366D01*
X237106Y73360D01*
X237151Y73355D01*
X237353Y73344D01*
X237656Y73340D01*
X237266Y71962D01*
X236783Y72027D01*
X237040Y73380D01*
X237051Y73373D01*
D02*
G37*
G36*
X538000Y119000D02*
X543500Y113500D01*
Y103150D01*
X547937Y103150D01*
X548099Y102953D01*
Y102657D01*
X557270D01*
X557682Y103150D01*
X559067D01*
X561742Y105825D01*
X563384D01*
Y105020D01*
X570289D01*
Y104331D01*
X570978D01*
Y99985D01*
X571524D01*
X571524Y93841D01*
X563000Y85317D01*
Y71000D01*
X548683Y71000D01*
X529500D01*
Y71582D01*
X529886Y71899D01*
X530217Y71833D01*
X531004D01*
Y78000D01*
Y84167D01*
X530217D01*
X529886Y84101D01*
X529500Y84418D01*
Y86307D01*
X536500Y93307D01*
X536500Y106500D01*
X532370Y110630D01*
X507630D01*
X468000Y71000D01*
X459055Y71000D01*
Y71938D01*
X459350Y72180D01*
X460138D01*
Y78347D01*
Y84513D01*
X459425D01*
X459293Y84691D01*
X459197Y84992D01*
X474000Y99795D01*
Y107000D01*
X469500Y110630D01*
X436130D01*
X396500Y71000D01*
X389000Y71000D01*
X389000Y72180D01*
X389272D01*
Y78347D01*
Y84513D01*
X389000D01*
X389000Y86740D01*
X399500Y97240D01*
X399500Y114500D01*
X404000Y119000D01*
X421260Y119000D01*
X538000Y119000D01*
D02*
G37*
G36*
X597016Y69965D02*
X597053Y69865D01*
X597114Y69776D01*
X597200Y69700D01*
X597311Y69635D01*
X597447Y69582D01*
X597607Y69541D01*
X597792Y69512D01*
X598001Y69494D01*
X598235Y69488D01*
Y68307D01*
X598001Y68301D01*
X597792Y68284D01*
X597607Y68254D01*
X597447Y68213D01*
X597311Y68160D01*
X597200Y68095D01*
X597114Y68019D01*
X597053Y67931D01*
X597016Y67831D01*
X597003Y67719D01*
Y70076D01*
X597016Y69965D01*
D02*
G37*
G36*
X253452Y68044D02*
X253472Y67807D01*
X253507Y67599D01*
X253555Y67418D01*
X253617Y67265D01*
X253693Y67140D01*
X253783Y67043D01*
X253886Y66973D01*
X254003Y66932D01*
X254134Y66918D01*
X251378D01*
X251509Y66932D01*
X251626Y66973D01*
X251729Y67043D01*
X251819Y67140D01*
X251895Y67265D01*
X251957Y67418D01*
X252005Y67599D01*
X252039Y67807D01*
X252060Y68044D01*
X252067Y68308D01*
X253445D01*
X253452Y68044D01*
D02*
G37*
G36*
X214082D02*
X214102Y67807D01*
X214137Y67599D01*
X214185Y67418D01*
X214247Y67265D01*
X214323Y67140D01*
X214412Y67043D01*
X214516Y66973D01*
X214633Y66932D01*
X214764Y66918D01*
X212008D01*
X212139Y66932D01*
X212256Y66973D01*
X212359Y67043D01*
X212449Y67140D01*
X212525Y67265D01*
X212587Y67418D01*
X212635Y67599D01*
X212669Y67807D01*
X212690Y68044D01*
X212697Y68308D01*
X214075D01*
X214082Y68044D01*
D02*
G37*
G36*
X586067Y59845D02*
X586055Y59957D01*
X586018Y60057D01*
X585957Y60145D01*
X585870Y60221D01*
X585759Y60286D01*
X585624Y60339D01*
X585464Y60380D01*
X585279Y60410D01*
X585070Y60427D01*
X584835Y60433D01*
Y61614D01*
X585070Y61620D01*
X585279Y61638D01*
X585464Y61667D01*
X585624Y61708D01*
X585759Y61761D01*
X585870Y61826D01*
X585957Y61902D01*
X586018Y61991D01*
X586055Y62091D01*
X586067Y62202D01*
Y59845D01*
D02*
G37*
G36*
X262080Y90500D02*
X193000D01*
X182996Y80496D01*
X182996Y62992D01*
X180182D01*
Y63287D01*
X174016D01*
X167849D01*
Y62992D01*
X140812D01*
Y63287D01*
X134646D01*
X128479D01*
Y62992D01*
X101442D01*
Y63287D01*
X95276D01*
X89109D01*
Y62992D01*
X78992D01*
X68500Y52500D01*
X56458Y52500D01*
X53085Y47509D01*
X45000Y47509D01*
Y44135D01*
X44500Y43832D01*
X43898Y43952D01*
X43602D01*
Y39370D01*
X42913D01*
Y38681D01*
X39906D01*
Y37598D01*
X39272D01*
X37500Y39370D01*
X37500Y43500D01*
X35744D01*
Y44389D01*
X32283D01*
Y45078D01*
X31594D01*
Y47555D01*
X29500D01*
Y49000D01*
X20000D01*
Y59587D01*
X20965D01*
Y62992D01*
X21654D01*
Y63681D01*
X26633D01*
Y63976D01*
X40781D01*
X40996Y63730D01*
Y59153D01*
X53492D01*
Y63730D01*
X53708Y63976D01*
X58976D01*
X101000Y106000D01*
X262080D01*
X262080Y90500D01*
D02*
G37*
G36*
X330814Y55954D02*
X330835Y55718D01*
X330869Y55510D01*
X330917Y55329D01*
X330979Y55176D01*
X331055Y55051D01*
X331145Y54954D01*
X331248Y54884D01*
X331365Y54843D01*
X331496Y54829D01*
X328740D01*
X328871Y54843D01*
X328988Y54884D01*
X329092Y54954D01*
X329181Y55051D01*
X329257Y55176D01*
X329319Y55329D01*
X329367Y55510D01*
X329402Y55718D01*
X329422Y55954D01*
X329429Y56219D01*
X330807D01*
X330814Y55954D01*
D02*
G37*
G36*
X292662Y75394D02*
Y75098D01*
X297244D01*
X301826D01*
Y75394D01*
X304473D01*
Y75098D01*
X309055D01*
X313637D01*
Y75394D01*
X316284D01*
Y75098D01*
X320866D01*
X325448D01*
Y75394D01*
X326290D01*
X326290Y70850D01*
X318690Y63250D01*
X314146D01*
X307000Y56104D01*
X307000Y52332D01*
X305668Y51000D01*
X304445D01*
Y51791D01*
X299803D01*
X295161D01*
Y51000D01*
X293752D01*
X291500Y53252D01*
X291500Y75394D01*
X292662D01*
D02*
G37*
G36*
X577499Y49883D02*
X577532Y49866D01*
X577576Y49851D01*
X577629Y49839D01*
X577692Y49828D01*
X577846Y49812D01*
X578039Y49804D01*
X578150Y49803D01*
Y48622D01*
X578039Y48621D01*
X577692Y48597D01*
X577629Y48587D01*
X577576Y48574D01*
X577532Y48559D01*
X577499Y48542D01*
X577474Y48524D01*
Y49902D01*
X577499Y49883D01*
D02*
G37*
G36*
X326718Y47583D02*
X326640Y47629D01*
X326553Y47671D01*
X326456Y47707D01*
X326349Y47739D01*
X326232Y47766D01*
X326106Y47788D01*
X325824Y47817D01*
X325668Y47824D01*
X325503Y47827D01*
Y48827D01*
X325668Y48829D01*
X326106Y48866D01*
X326232Y48888D01*
X326349Y48915D01*
X326456Y48946D01*
X326553Y48983D01*
X326640Y49024D01*
X326718Y49071D01*
Y47583D01*
D02*
G37*
G36*
X303281Y49024D02*
X303368Y48983D01*
X303466Y48946D01*
X303573Y48915D01*
X303689Y48888D01*
X303816Y48866D01*
X304097Y48836D01*
X304253Y48829D01*
X304418Y48827D01*
Y47827D01*
X304253Y47824D01*
X303816Y47788D01*
X303689Y47766D01*
X303573Y47739D01*
X303466Y47707D01*
X303368Y47671D01*
X303281Y47629D01*
X303203Y47583D01*
Y49071D01*
X303281Y49024D01*
D02*
G37*
G36*
X326718Y45024D02*
X326640Y45070D01*
X326553Y45112D01*
X326456Y45148D01*
X326349Y45180D01*
X326232Y45207D01*
X326106Y45229D01*
X325824Y45258D01*
X325668Y45265D01*
X325503Y45268D01*
Y46268D01*
X325668Y46270D01*
X326106Y46307D01*
X326232Y46329D01*
X326349Y46356D01*
X326456Y46387D01*
X326553Y46424D01*
X326640Y46465D01*
X326718Y46511D01*
Y45024D01*
D02*
G37*
G36*
X54254Y42655D02*
X54093Y42490D01*
X53728Y42072D01*
X53647Y41958D01*
X53585Y41857D01*
X53544Y41769D01*
X53522Y41693D01*
X53520Y41631D01*
X53538Y41581D01*
X52703Y42880D01*
X52737Y42845D01*
X52782Y42829D01*
X52839Y42831D01*
X52907Y42852D01*
X52986Y42891D01*
X53076Y42949D01*
X53178Y43025D01*
X53291Y43120D01*
X53550Y43365D01*
X54254Y42655D01*
D02*
G37*
G36*
X523861Y42709D02*
X523819Y42803D01*
X523753Y42886D01*
X523663Y42960D01*
X523548Y43024D01*
X523409Y43078D01*
X523246Y43122D01*
X523059Y43156D01*
X522848Y43181D01*
X522612Y43196D01*
X522353Y43201D01*
X522241Y44201D01*
X522461Y44206D01*
X522654Y44221D01*
X522821Y44246D01*
X522962Y44281D01*
X523076Y44326D01*
X523164Y44381D01*
X523226Y44446D01*
X523261Y44521D01*
X523270Y44606D01*
X523253Y44701D01*
X523861Y42709D01*
D02*
G37*
G36*
X452995D02*
X452953Y42803D01*
X452887Y42886D01*
X452796Y42960D01*
X452682Y43024D01*
X452543Y43078D01*
X452380Y43122D01*
X452193Y43156D01*
X451982Y43181D01*
X451746Y43196D01*
X451487Y43201D01*
X451374Y44201D01*
X451594Y44206D01*
X451788Y44221D01*
X451955Y44246D01*
X452096Y44281D01*
X452210Y44326D01*
X452298Y44381D01*
X452360Y44446D01*
X452395Y44521D01*
X452404Y44606D01*
X452387Y44701D01*
X452995Y42709D01*
D02*
G37*
G36*
X382129D02*
X382087Y42803D01*
X382021Y42886D01*
X381930Y42960D01*
X381816Y43024D01*
X381677Y43078D01*
X381514Y43122D01*
X381327Y43156D01*
X381116Y43181D01*
X380880Y43196D01*
X380621Y43201D01*
X380508Y44201D01*
X380728Y44206D01*
X380922Y44221D01*
X381089Y44246D01*
X381229Y44281D01*
X381344Y44326D01*
X381432Y44381D01*
X381493Y44446D01*
X381529Y44521D01*
X381538Y44606D01*
X381520Y44701D01*
X382129Y42709D01*
D02*
G37*
G36*
X495672Y44604D02*
X495702Y44519D01*
X495753Y44445D01*
X495824Y44380D01*
X495915Y44325D01*
X496027Y44280D01*
X496159Y44246D01*
X496311Y44221D01*
X496484Y44206D01*
X496676Y44201D01*
Y43201D01*
X496484Y43196D01*
X496311Y43181D01*
X496159Y43156D01*
X496027Y43121D01*
X495915Y43076D01*
X495824Y43022D01*
X495753Y42957D01*
X495702Y42882D01*
X495672Y42798D01*
X495661Y42703D01*
Y44699D01*
X495672Y44604D01*
D02*
G37*
G36*
X424805D02*
X424836Y44519D01*
X424887Y44445D01*
X424958Y44380D01*
X425049Y44325D01*
X425161Y44280D01*
X425293Y44246D01*
X425445Y44221D01*
X425617Y44206D01*
X425810Y44201D01*
Y43201D01*
X425617Y43196D01*
X425445Y43181D01*
X425293Y43156D01*
X425161Y43121D01*
X425049Y43076D01*
X424958Y43022D01*
X424887Y42957D01*
X424836Y42882D01*
X424805Y42798D01*
X424795Y42703D01*
Y44699D01*
X424805Y44604D01*
D02*
G37*
G36*
X355908D02*
X355938Y44519D01*
X355989Y44445D01*
X356060Y44380D01*
X356151Y44325D01*
X356263Y44280D01*
X356395Y44246D01*
X356547Y44221D01*
X356720Y44206D01*
X356913Y44201D01*
Y43201D01*
X356720Y43196D01*
X356547Y43181D01*
X356395Y43156D01*
X356263Y43121D01*
X356151Y43076D01*
X356060Y43022D01*
X355989Y42957D01*
X355938Y42882D01*
X355908Y42798D01*
X355898Y42703D01*
Y44699D01*
X355908Y44604D01*
D02*
G37*
G36*
X280851Y75394D02*
Y75098D01*
X281746D01*
X281806Y75153D01*
X281857Y75228D01*
X281888Y75313D01*
X281898Y75407D01*
Y75098D01*
X285433D01*
Y74410D01*
X286122D01*
Y71402D01*
X287992D01*
X288000Y71396D01*
Y51698D01*
X293254Y46443D01*
X293254Y42500D01*
X287500Y42500D01*
X279000Y51000D01*
Y75500D01*
X280764D01*
X280851Y75394D01*
D02*
G37*
G36*
X326718Y42465D02*
X326663Y42494D01*
X326591Y42520D01*
X326500Y42543D01*
X326392Y42563D01*
X326121Y42594D01*
X325779Y42612D01*
X325366Y42618D01*
Y43799D01*
X325581Y43801D01*
X326392Y43854D01*
X326500Y43874D01*
X326591Y43897D01*
X326663Y43923D01*
X326718Y43952D01*
Y42465D01*
D02*
G37*
G36*
X296403D02*
X296325Y42511D01*
X296238Y42553D01*
X296141Y42589D01*
X296034Y42621D01*
X295917Y42648D01*
X295791Y42670D01*
X295509Y42699D01*
X295353Y42706D01*
X295188Y42709D01*
Y43709D01*
X295353Y43711D01*
X295791Y43748D01*
X295917Y43770D01*
X296034Y43796D01*
X296141Y43828D01*
X296238Y43865D01*
X296325Y43906D01*
X296403Y43952D01*
Y42465D01*
D02*
G37*
G36*
X59062Y42012D02*
X59052Y42107D01*
X59022Y42192D01*
X58971Y42267D01*
X58900Y42332D01*
X58809Y42387D01*
X58698Y42432D01*
X58566Y42467D01*
X58415Y42492D01*
X58242Y42507D01*
X58050Y42512D01*
Y43512D01*
X58242Y43517D01*
X58415Y43532D01*
X58566Y43557D01*
X58698Y43592D01*
X58809Y43637D01*
X58900Y43692D01*
X58971Y43757D01*
X59022Y43832D01*
X59052Y43917D01*
X59062Y44012D01*
Y42012D01*
D02*
G37*
G36*
X333596Y41347D02*
X333683Y41306D01*
X333781Y41269D01*
X333888Y41237D01*
X334004Y41210D01*
X334131Y41189D01*
X334412Y41159D01*
X334568Y41152D01*
X334733Y41150D01*
Y40150D01*
X334568Y40147D01*
X334131Y40111D01*
X334004Y40089D01*
X333888Y40062D01*
X333781Y40030D01*
X333683Y39994D01*
X333596Y39952D01*
X333518Y39906D01*
Y41393D01*
X333596Y41347D01*
D02*
G37*
G36*
X296403Y39906D02*
X296348Y39935D01*
X296276Y39961D01*
X296185Y39984D01*
X296077Y40004D01*
X295806Y40035D01*
X295464Y40053D01*
X295051Y40059D01*
Y41240D01*
X295267Y41242D01*
X296077Y41295D01*
X296185Y41315D01*
X296276Y41338D01*
X296348Y41364D01*
X296403Y41393D01*
Y39906D01*
D02*
G37*
G36*
X23739Y39876D02*
X23654Y39845D01*
X23579Y39795D01*
X23514Y39724D01*
X23459Y39633D01*
X23414Y39522D01*
X23379Y39390D01*
X23354Y39238D01*
X23339Y39066D01*
X23334Y38874D01*
X22334D01*
X22329Y39066D01*
X22314Y39238D01*
X22289Y39390D01*
X22254Y39522D01*
X22209Y39633D01*
X22154Y39724D01*
X22089Y39795D01*
X22014Y39845D01*
X21929Y39876D01*
X21834Y39886D01*
X23834D01*
X23739Y39876D01*
D02*
G37*
G36*
X333596Y38788D02*
X333683Y38747D01*
X333781Y38710D01*
X333888Y38678D01*
X334004Y38651D01*
X334131Y38629D01*
X334412Y38600D01*
X334568Y38593D01*
X334733Y38591D01*
Y37591D01*
X334568Y37588D01*
X334131Y37552D01*
X334004Y37530D01*
X333888Y37503D01*
X333781Y37471D01*
X333683Y37435D01*
X333596Y37393D01*
X333518Y37347D01*
Y38834D01*
X333596Y38788D01*
D02*
G37*
G36*
X296403Y37347D02*
X296348Y37376D01*
X296276Y37402D01*
X296185Y37425D01*
X296077Y37445D01*
X295806Y37475D01*
X295464Y37494D01*
X295051Y37500D01*
Y38681D01*
X295267Y38683D01*
X296077Y38736D01*
X296185Y38756D01*
X296276Y38779D01*
X296348Y38805D01*
X296403Y38834D01*
Y37347D01*
D02*
G37*
G36*
X32891Y36139D02*
X32869Y36120D01*
X32849Y36088D01*
X32831Y36042D01*
X32817Y35984D01*
X32805Y35913D01*
X32795Y35829D01*
X32785Y35623D01*
X32783Y35500D01*
X31783D01*
X31782Y35623D01*
X31762Y35913D01*
X31750Y35984D01*
X31735Y36042D01*
X31718Y36088D01*
X31698Y36120D01*
X31675Y36139D01*
X31649Y36146D01*
X32917D01*
X32891Y36139D01*
D02*
G37*
G36*
X333596Y36229D02*
X333683Y36187D01*
X333781Y36151D01*
X333888Y36119D01*
X334004Y36092D01*
X334131Y36070D01*
X334412Y36041D01*
X334568Y36034D01*
X334733Y36031D01*
Y35032D01*
X334568Y35029D01*
X334131Y34993D01*
X334004Y34971D01*
X333888Y34944D01*
X333781Y34912D01*
X333683Y34876D01*
X333596Y34834D01*
X333518Y34788D01*
Y36275D01*
X333596Y36229D01*
D02*
G37*
G36*
X296403Y34788D02*
X296348Y34817D01*
X296276Y34843D01*
X296185Y34866D01*
X296077Y34886D01*
X295806Y34916D01*
X295464Y34935D01*
X295051Y34941D01*
Y36122D01*
X295267Y36124D01*
X296077Y36177D01*
X296185Y36197D01*
X296276Y36220D01*
X296348Y36246D01*
X296403Y36275D01*
Y34788D01*
D02*
G37*
G36*
X349659Y33105D02*
X349625Y33139D01*
X349580Y33156D01*
X349523Y33153D01*
X349456Y33132D01*
X349377Y33093D01*
X349286Y33035D01*
X349185Y32959D01*
X349072Y32864D01*
X348812Y32619D01*
X348108Y33330D01*
X348270Y33494D01*
X348634Y33912D01*
X348715Y34026D01*
X348777Y34127D01*
X348818Y34215D01*
X348840Y34291D01*
X348842Y34354D01*
X348824Y34404D01*
X349659Y33105D01*
D02*
G37*
G36*
X489990Y33076D02*
X489914Y33132D01*
X489824Y33160D01*
X489721Y33161D01*
X489604Y33135D01*
X489474Y33082D01*
X489331Y33001D01*
X489174Y32893D01*
X489004Y32757D01*
X488820Y32594D01*
X488623Y32404D01*
X487916Y33111D01*
X488106Y33308D01*
X488404Y33662D01*
X488513Y33819D01*
X488593Y33963D01*
X488647Y34093D01*
X488673Y34209D01*
X488672Y34312D01*
X488644Y34402D01*
X488588Y34478D01*
X489990Y33076D01*
D02*
G37*
G36*
X419124D02*
X419047Y33132D01*
X418958Y33160D01*
X418855Y33161D01*
X418738Y33135D01*
X418608Y33082D01*
X418465Y33001D01*
X418308Y32893D01*
X418138Y32757D01*
X417954Y32594D01*
X417757Y32404D01*
X417050Y33111D01*
X417240Y33308D01*
X417538Y33662D01*
X417646Y33819D01*
X417727Y33963D01*
X417781Y34093D01*
X417807Y34209D01*
X417806Y34312D01*
X417777Y34402D01*
X417722Y34478D01*
X419124Y33076D01*
D02*
G37*
G36*
X333596Y33670D02*
X333683Y33628D01*
X333781Y33592D01*
X333888Y33560D01*
X334004Y33533D01*
X334131Y33511D01*
X334412Y33482D01*
X334568Y33475D01*
X334733Y33472D01*
Y32472D01*
X334568Y32470D01*
X334131Y32433D01*
X334004Y32412D01*
X333888Y32385D01*
X333781Y32353D01*
X333683Y32316D01*
X333596Y32275D01*
X333518Y32229D01*
Y33716D01*
X333596Y33670D01*
D02*
G37*
G36*
X296403Y32229D02*
X296348Y32258D01*
X296276Y32284D01*
X296185Y32307D01*
X296077Y32327D01*
X295806Y32357D01*
X295464Y32376D01*
X295051Y32382D01*
Y33563D01*
X295267Y33564D01*
X296077Y33618D01*
X296185Y33638D01*
X296276Y33661D01*
X296348Y33687D01*
X296403Y33716D01*
Y32229D01*
D02*
G37*
G36*
X587211Y30883D02*
X587228Y30680D01*
X587258Y30501D01*
X587299Y30346D01*
X587352Y30215D01*
X587417Y30107D01*
X587494Y30024D01*
X587583Y29964D01*
X587683Y29928D01*
X587795Y29916D01*
X585433D01*
X585545Y29928D01*
X585646Y29964D01*
X585734Y30024D01*
X585811Y30107D01*
X585876Y30215D01*
X585929Y30346D01*
X585970Y30501D01*
X586000Y30680D01*
X586018Y30883D01*
X586024Y31109D01*
X587205D01*
X587211Y30883D01*
D02*
G37*
G36*
X333596Y31111D02*
X333683Y31069D01*
X333781Y31033D01*
X333888Y31001D01*
X334004Y30974D01*
X334131Y30952D01*
X334412Y30923D01*
X334568Y30916D01*
X334733Y30913D01*
Y29913D01*
X334568Y29911D01*
X334131Y29874D01*
X334004Y29853D01*
X333888Y29826D01*
X333781Y29794D01*
X333683Y29757D01*
X333596Y29716D01*
X333518Y29670D01*
Y31157D01*
X333596Y31111D01*
D02*
G37*
G36*
X296403Y29670D02*
X296348Y29699D01*
X296276Y29725D01*
X296185Y29748D01*
X296077Y29768D01*
X295806Y29798D01*
X295464Y29817D01*
X295051Y29823D01*
Y31004D01*
X295267Y31005D01*
X296077Y31059D01*
X296185Y31079D01*
X296276Y31102D01*
X296348Y31128D01*
X296403Y31157D01*
Y29670D01*
D02*
G37*
G36*
X547646Y26955D02*
X547636Y27050D01*
X547605Y27134D01*
X547554Y27209D01*
X547483Y27274D01*
X547392Y27328D01*
X547280Y27373D01*
X547148Y27408D01*
X546996Y27433D01*
X546824Y27448D01*
X546631Y27453D01*
Y28453D01*
X546824Y28458D01*
X546996Y28473D01*
X547148Y28498D01*
X547280Y28532D01*
X547392Y28577D01*
X547483Y28632D01*
X547554Y28697D01*
X547605Y28771D01*
X547636Y28856D01*
X547646Y28950D01*
Y26955D01*
D02*
G37*
G36*
X571304Y26774D02*
X571291Y26886D01*
X571254Y26986D01*
X571193Y27074D01*
X571107Y27150D01*
X570996Y27215D01*
X570860Y27268D01*
X570700Y27309D01*
X570515Y27339D01*
X570306Y27356D01*
X570072Y27362D01*
Y28543D01*
X570306Y28549D01*
X570515Y28567D01*
X570700Y28596D01*
X570860Y28637D01*
X570996Y28690D01*
X571107Y28755D01*
X571193Y28831D01*
X571254Y28920D01*
X571291Y29020D01*
X571304Y29131D01*
Y26774D01*
D02*
G37*
G36*
X566504Y29020D02*
X566541Y28920D01*
X566602Y28831D01*
X566689Y28755D01*
X566800Y28690D01*
X566935Y28637D01*
X567095Y28596D01*
X567280Y28567D01*
X567489Y28549D01*
X567724Y28543D01*
Y27362D01*
X567489Y27356D01*
X567280Y27339D01*
X567095Y27309D01*
X566935Y27268D01*
X566800Y27215D01*
X566689Y27150D01*
X566602Y27074D01*
X566541Y26986D01*
X566504Y26886D01*
X566492Y26774D01*
Y29131D01*
X566504Y29020D01*
D02*
G37*
G36*
X584734Y25989D02*
X584644Y26055D01*
X584537Y26088D01*
X584413Y26088D01*
X584273Y26055D01*
X584117Y25990D01*
X583945Y25891D01*
X583755Y25760D01*
X583550Y25595D01*
X583090Y25168D01*
X582255Y26003D01*
X582485Y26241D01*
X582846Y26669D01*
X582978Y26858D01*
X583076Y27031D01*
X583142Y27187D01*
X583175Y27327D01*
X583175Y27450D01*
X583142Y27557D01*
X583076Y27648D01*
X584734Y25989D01*
D02*
G37*
G36*
X560856D02*
X560780Y26045D01*
X560690Y26074D01*
X560587Y26075D01*
X560470Y26048D01*
X560340Y25995D01*
X560197Y25914D01*
X560040Y25806D01*
X559870Y25670D01*
X559686Y25508D01*
X559489Y25317D01*
X558782Y26024D01*
X558972Y26221D01*
X559270Y26576D01*
X559379Y26733D01*
X559460Y26876D01*
X559513Y27006D01*
X559539Y27122D01*
X559538Y27226D01*
X559510Y27315D01*
X559454Y27391D01*
X560856Y25989D01*
D02*
G37*
G36*
X290114Y26913D02*
X290162Y26881D01*
X290217Y26852D01*
X290280Y26828D01*
X290349Y26807D01*
X290427Y26790D01*
X290511Y26777D01*
X290603Y26767D01*
X290808Y26760D01*
Y25760D01*
X290702Y25758D01*
X290511Y25743D01*
X290427Y25730D01*
X290349Y25713D01*
X290280Y25692D01*
X290217Y25667D01*
X290162Y25639D01*
X290114Y25607D01*
X290073Y25571D01*
Y26949D01*
X290114Y26913D01*
D02*
G37*
G36*
X288667Y25571D02*
X288627Y25607D01*
X288579Y25639D01*
X288523Y25667D01*
X288461Y25692D01*
X288391Y25713D01*
X288314Y25730D01*
X288229Y25743D01*
X288137Y25752D01*
X287932Y25760D01*
Y26760D01*
X288038Y26762D01*
X288229Y26777D01*
X288314Y26790D01*
X288391Y26807D01*
X288461Y26828D01*
X288523Y26852D01*
X288579Y26881D01*
X288627Y26913D01*
X288667Y26949D01*
Y25571D01*
D02*
G37*
G36*
X333756Y27165D02*
X333786Y27080D01*
X333837Y27005D01*
X333908Y26940D01*
X333999Y26885D01*
X334110Y26840D01*
X334242Y26805D01*
X334394Y26780D01*
X334566Y26765D01*
X334758Y26760D01*
Y25760D01*
X334566Y25755D01*
X334394Y25740D01*
X334242Y25715D01*
X334110Y25680D01*
X333999Y25635D01*
X333908Y25580D01*
X333837Y25515D01*
X333786Y25440D01*
X333756Y25355D01*
X333746Y25260D01*
Y27260D01*
X333756Y27165D01*
D02*
G37*
G36*
X296175Y25260D02*
X296165Y25355D01*
X296135Y25440D01*
X296084Y25515D01*
X296013Y25580D01*
X295922Y25635D01*
X295811Y25680D01*
X295679Y25715D01*
X295528Y25740D01*
X295356Y25755D01*
X295163Y25760D01*
Y26760D01*
X295356Y26765D01*
X295528Y26780D01*
X295679Y26805D01*
X295811Y26840D01*
X295922Y26885D01*
X296013Y26940D01*
X296084Y27005D01*
X296135Y27080D01*
X296165Y27165D01*
X296175Y27260D01*
Y25260D01*
D02*
G37*
G36*
X259062Y26659D02*
X259098Y26559D01*
X259157Y26471D01*
X259241Y26394D01*
X259348Y26329D01*
X259480Y26276D01*
X259635Y26234D01*
X259814Y26205D01*
X260017Y26187D01*
X260243Y26181D01*
Y25000D01*
X260017Y24994D01*
X259814Y24976D01*
X259635Y24947D01*
X259480Y24905D01*
X259348Y24852D01*
X259241Y24787D01*
X259157Y24711D01*
X259098Y24622D01*
X259062Y24522D01*
X259050Y24409D01*
Y26772D01*
X259062Y26659D01*
D02*
G37*
G36*
X180322D02*
X180358Y26559D01*
X180417Y26471D01*
X180501Y26394D01*
X180608Y26329D01*
X180739Y26276D01*
X180895Y26234D01*
X181074Y26205D01*
X181276Y26187D01*
X181503Y26181D01*
Y25000D01*
X181276Y24994D01*
X181074Y24976D01*
X180895Y24947D01*
X180739Y24905D01*
X180608Y24852D01*
X180501Y24787D01*
X180417Y24711D01*
X180358Y24622D01*
X180322Y24522D01*
X180310Y24409D01*
Y26772D01*
X180322Y26659D01*
D02*
G37*
G36*
X219692Y26569D02*
X219728Y26469D01*
X219788Y26380D01*
X219871Y26303D01*
X219978Y26238D01*
X220110Y26185D01*
X220265Y26144D01*
X220444Y26114D01*
X220647Y26096D01*
X220873Y26091D01*
Y24909D01*
X220647Y24904D01*
X220444Y24886D01*
X220265Y24856D01*
X220110Y24815D01*
X219978Y24762D01*
X219871Y24697D01*
X219788Y24620D01*
X219728Y24532D01*
X219692Y24431D01*
X219680Y24319D01*
Y26681D01*
X219692Y26569D01*
D02*
G37*
G36*
X59062Y22917D02*
X59052Y23012D01*
X59022Y23097D01*
X58971Y23172D01*
X58900Y23237D01*
X58809Y23292D01*
X58698Y23337D01*
X58566Y23372D01*
X58415Y23397D01*
X58242Y23412D01*
X58050Y23417D01*
Y24417D01*
X58242Y24422D01*
X58415Y24437D01*
X58566Y24462D01*
X58698Y24497D01*
X58809Y24542D01*
X58900Y24597D01*
X58971Y24662D01*
X59022Y24737D01*
X59052Y24822D01*
X59062Y24917D01*
Y22917D01*
D02*
G37*
G36*
X101545Y24533D02*
X101544Y24394D01*
X101568Y24247D01*
X101616Y24092D01*
X101688Y23929D01*
X101785Y23758D01*
X101907Y23579D01*
X102052Y23392D01*
X102223Y23197D01*
X102417Y22995D01*
X102174Y21567D01*
X101950Y21783D01*
X101561Y22106D01*
X101396Y22213D01*
X101251Y22284D01*
X101125Y22319D01*
X101019Y22318D01*
X100932Y22281D01*
X100865Y22207D01*
X100818Y22098D01*
X101570Y24665D01*
X101545Y24533D01*
D02*
G37*
G36*
X140874Y23628D02*
X140842Y23520D01*
X140842Y23397D01*
X140875Y23257D01*
X140941Y23100D01*
X141039Y22927D01*
X141171Y22738D01*
X141335Y22533D01*
X141762Y22073D01*
X140933Y21232D01*
X140694Y21463D01*
X140267Y21824D01*
X140078Y21956D01*
X139905Y22054D01*
X139749Y22119D01*
X139609Y22152D01*
X139486Y22152D01*
X139380Y22118D01*
X139289Y22052D01*
X140940Y23718D01*
X140874Y23628D01*
D02*
G37*
G36*
X579163Y21241D02*
X578933Y21003D01*
X578571Y20575D01*
X578440Y20386D01*
X578341Y20213D01*
X578275Y20057D01*
X578243Y19917D01*
X578243Y19794D01*
X578276Y19687D01*
X578341Y19597D01*
X576683Y21255D01*
X576774Y21189D01*
X576881Y21156D01*
X577004Y21156D01*
X577144Y21189D01*
X577300Y21254D01*
X577473Y21353D01*
X577662Y21484D01*
X577867Y21649D01*
X578328Y22076D01*
X579163Y21241D01*
D02*
G37*
G36*
X40950Y20276D02*
X40936Y20406D01*
X40894Y20524D01*
X40825Y20627D01*
X40727Y20717D01*
X40602Y20792D01*
X40450Y20854D01*
X40269Y20903D01*
X40060Y20937D01*
X39824Y20958D01*
X39560Y20965D01*
Y22343D01*
X39824Y22349D01*
X40060Y22370D01*
X40269Y22404D01*
X40450Y22453D01*
X40602Y22515D01*
X40727Y22591D01*
X40825Y22680D01*
X40894Y22783D01*
X40936Y22901D01*
X40950Y23031D01*
Y20276D01*
D02*
G37*
G36*
X53549Y22067D02*
X53579Y21982D01*
X53629Y21907D01*
X53700Y21842D01*
X53791Y21787D01*
X53903Y21742D01*
X54034Y21707D01*
X54186Y21682D01*
X54358Y21667D01*
X54550Y21662D01*
Y20662D01*
X54358Y20657D01*
X54186Y20642D01*
X54034Y20617D01*
X53903Y20582D01*
X53791Y20537D01*
X53700Y20482D01*
X53629Y20417D01*
X53579Y20342D01*
X53549Y20257D01*
X53538Y20162D01*
Y22162D01*
X53549Y22067D01*
D02*
G37*
G36*
X246638Y52480D02*
Y52461D01*
X252756D01*
X258874D01*
Y52480D01*
X261496D01*
X261509Y47509D01*
X249500Y35500D01*
Y30247D01*
X249409Y30173D01*
X249114D01*
Y25591D01*
Y21008D01*
X249409D01*
X249500Y20934D01*
Y20000D01*
X244000Y20000D01*
Y52480D01*
X246638D01*
D02*
G37*
G36*
X207268D02*
Y52461D01*
X213386D01*
X219504D01*
Y52480D01*
X221996D01*
X222009Y47509D01*
X210000Y35500D01*
Y30173D01*
X209744D01*
Y25591D01*
Y21008D01*
X210000D01*
Y20000D01*
X204500Y20000D01*
Y52480D01*
X207268D01*
D02*
G37*
G36*
X167898D02*
Y52461D01*
X174016D01*
X180134D01*
Y52480D01*
X182996D01*
X183009Y47509D01*
X171000Y35500D01*
Y30444D01*
X170669Y30173D01*
X170374D01*
Y25591D01*
Y21008D01*
X170669D01*
X171000Y20737D01*
Y20000D01*
X165500Y20000D01*
Y52480D01*
X167898D01*
D02*
G37*
G36*
X128528D02*
Y52461D01*
X134646D01*
X140764D01*
Y52480D01*
X143496D01*
X143509Y47509D01*
X131500Y35500D01*
Y30338D01*
X131299Y30173D01*
X131004D01*
Y25591D01*
Y21008D01*
X131299D01*
X131500Y20844D01*
Y20000D01*
X126000Y20000D01*
Y52480D01*
X128528D01*
D02*
G37*
G36*
X89157D02*
Y52461D01*
X95276D01*
X101394D01*
Y52480D01*
X103996D01*
X104009Y47509D01*
X92000Y35500D01*
Y30231D01*
X91929Y30173D01*
X91634D01*
Y25591D01*
Y21008D01*
X91929D01*
X92000Y20950D01*
Y20000D01*
X86500Y20000D01*
Y52480D01*
X89157D01*
D02*
G37*
G36*
X590159Y19911D02*
X590178Y19905D01*
X590210Y19900D01*
X590255Y19895D01*
X590465Y19885D01*
X590791Y19882D01*
Y18701D01*
X590670Y18700D01*
X590159Y18671D01*
X590153Y18665D01*
Y19918D01*
X590159Y19911D01*
D02*
G37*
G36*
X34734Y21129D02*
X34775Y21012D01*
X34845Y20908D01*
X34942Y20819D01*
X35067Y20743D01*
X35220Y20681D01*
X35401Y20633D01*
X35609Y20598D01*
X35846Y20577D01*
X36110Y20571D01*
Y19193D01*
X35846Y19186D01*
X35609Y19165D01*
X35401Y19131D01*
X35220Y19082D01*
X35067Y19020D01*
X34942Y18945D01*
X34845Y18855D01*
X34775Y18752D01*
X34734Y18634D01*
X34720Y18504D01*
Y21260D01*
X34734Y21129D01*
D02*
G37*
G36*
X559493Y18113D02*
X559480Y18224D01*
X559443Y18324D01*
X559382Y18413D01*
X559296Y18489D01*
X559185Y18554D01*
X559049Y18607D01*
X558889Y18648D01*
X558704Y18677D01*
X558495Y18695D01*
X558261Y18701D01*
Y19882D01*
X558495Y19888D01*
X558704Y19905D01*
X558889Y19935D01*
X559049Y19976D01*
X559185Y20029D01*
X559296Y20094D01*
X559382Y20170D01*
X559443Y20258D01*
X559480Y20358D01*
X559493Y20470D01*
Y18113D01*
D02*
G37*
G36*
X554693Y20358D02*
X554730Y20258D01*
X554791Y20170D01*
X554878Y20094D01*
X554988Y20029D01*
X555124Y19976D01*
X555284Y19935D01*
X555469Y19905D01*
X555679Y19888D01*
X555913Y19882D01*
Y18701D01*
X555679Y18695D01*
X555469Y18677D01*
X555284Y18648D01*
X555124Y18607D01*
X554988Y18554D01*
X554878Y18489D01*
X554791Y18413D01*
X554730Y18324D01*
X554693Y18224D01*
X554680Y18113D01*
Y20470D01*
X554693Y20358D01*
D02*
G37*
G36*
X43866Y18111D02*
X43810Y18080D01*
X43762Y18028D01*
X43720Y17956D01*
X43684Y17863D01*
X43654Y17749D01*
X43632Y17614D01*
X43615Y17459D01*
X43602Y17087D01*
X42224D01*
X42221Y17283D01*
X42195Y17614D01*
X42172Y17749D01*
X42143Y17863D01*
X42107Y17956D01*
X42065Y18028D01*
X42016Y18080D01*
X41961Y18111D01*
X41899Y18121D01*
X43928D01*
X43866Y18111D01*
D02*
G37*
G36*
X587683Y17316D02*
X587583Y17280D01*
X587494Y17220D01*
X587417Y17137D01*
X587352Y17030D01*
X587299Y16898D01*
X587258Y16743D01*
X587228Y16564D01*
X587211Y16361D01*
X587205Y16135D01*
X586024D01*
X586018Y16361D01*
X586000Y16564D01*
X585970Y16743D01*
X585929Y16898D01*
X585876Y17030D01*
X585811Y17137D01*
X585734Y17220D01*
X585646Y17280D01*
X585545Y17316D01*
X585433Y17328D01*
X587795D01*
X587683Y17316D01*
D02*
G37*
G36*
X564061D02*
X563961Y17280D01*
X563872Y17220D01*
X563795Y17137D01*
X563730Y17030D01*
X563677Y16898D01*
X563636Y16743D01*
X563606Y16564D01*
X563589Y16361D01*
X563583Y16135D01*
X562402D01*
X562396Y16361D01*
X562378Y16564D01*
X562348Y16743D01*
X562307Y16898D01*
X562254Y17030D01*
X562189Y17137D01*
X562112Y17220D01*
X562024Y17280D01*
X561923Y17316D01*
X561811Y17328D01*
X564173D01*
X564061Y17316D01*
D02*
G37*
G36*
X543340Y13166D02*
X542922Y12749D01*
X541948Y13723D01*
X542365Y14141D01*
X543340Y13166D01*
D02*
G37*
%LPC*%
G36*
X286925Y107579D02*
X284154D01*
Y103331D01*
X286925D01*
Y107579D01*
D02*
G37*
G36*
X282776D02*
X280004D01*
Y103331D01*
X282776D01*
Y107579D01*
D02*
G37*
G36*
X287992Y86078D02*
X286122D01*
Y83760D01*
X290015D01*
Y84055D01*
X289861Y84829D01*
X289423Y85486D01*
X288766Y85924D01*
X287992Y86078D01*
D02*
G37*
G36*
X296555D02*
X294685D01*
X293911Y85924D01*
X293254Y85486D01*
X292816Y84829D01*
X292662Y84055D01*
Y83760D01*
X296555D01*
Y86078D01*
D02*
G37*
G36*
X284744D02*
X282874D01*
X282100Y85924D01*
X281444Y85486D01*
X281005Y84829D01*
X280851Y84055D01*
Y83760D01*
X284744D01*
Y86078D01*
D02*
G37*
G36*
X334055Y107579D02*
X331240D01*
Y103287D01*
X331782D01*
X332652Y103460D01*
X333389Y103953D01*
X333882Y104691D01*
X334055Y105561D01*
Y107579D01*
D02*
G37*
G36*
X329862D02*
X327047D01*
Y105561D01*
X327220Y104691D01*
X327713Y103953D01*
X328451Y103460D01*
X329321Y103287D01*
X329862D01*
Y107579D01*
D02*
G37*
G36*
X53461Y88205D02*
X47933D01*
Y80020D01*
X53461D01*
Y88205D01*
D02*
G37*
G36*
X46555D02*
X41028D01*
Y80020D01*
X46555D01*
Y88205D01*
D02*
G37*
G36*
X26591Y74228D02*
X22343D01*
Y71555D01*
X26591D01*
Y74228D01*
D02*
G37*
G36*
X20965D02*
X16716D01*
Y71555D01*
X20965D01*
Y74228D01*
D02*
G37*
G36*
X22145Y26098D02*
X19374D01*
Y24311D01*
X22145D01*
Y26098D01*
D02*
G37*
G36*
Y22933D02*
X19374D01*
Y21145D01*
X22145D01*
Y22933D01*
D02*
G37*
G36*
X555240Y113637D02*
X553370D01*
Y111319D01*
X557263D01*
Y111614D01*
X557109Y112388D01*
X556671Y113045D01*
X556014Y113483D01*
X555240Y113637D01*
D02*
G37*
G36*
X551992D02*
X550122D01*
X549348Y113483D01*
X548692Y113045D01*
X548253Y112388D01*
X548099Y111614D01*
Y111319D01*
X551992D01*
Y113637D01*
D02*
G37*
G36*
X582976Y113045D02*
X581303D01*
Y110925D01*
X584899D01*
Y111122D01*
X584753Y111858D01*
X584336Y112482D01*
X583712Y112899D01*
X582976Y113045D01*
D02*
G37*
G36*
X598047Y87614D02*
X592224D01*
Y85335D01*
X598047D01*
Y87614D01*
D02*
G37*
G36*
X569600Y103642D02*
X563384D01*
Y102158D01*
X565557Y99985D01*
X569600D01*
Y103642D01*
D02*
G37*
G36*
X557263Y101279D02*
X553370D01*
Y98961D01*
X555240D01*
X556014Y99115D01*
X556671Y99554D01*
X557109Y100210D01*
X557263Y100984D01*
Y101279D01*
D02*
G37*
G36*
X551992D02*
X548099D01*
Y100984D01*
X548253Y100210D01*
X548692Y99554D01*
X549348Y99115D01*
X550122Y98961D01*
X551992D01*
Y101279D01*
D02*
G37*
G36*
X559744Y80626D02*
Y79429D01*
X560941D01*
X560924Y79514D01*
X560486Y80171D01*
X559829Y80609D01*
X559744Y80626D01*
D02*
G37*
G36*
X558366D02*
X558281Y80609D01*
X557625Y80171D01*
X557186Y79514D01*
X557169Y79429D01*
X558366D01*
Y80626D01*
D02*
G37*
G36*
X462303Y84513D02*
X461515D01*
Y79035D01*
X464828D01*
Y81988D01*
X464636Y82954D01*
X464088Y83774D01*
X463269Y84321D01*
X462303Y84513D01*
D02*
G37*
G36*
X391437D02*
X390650D01*
Y79035D01*
X393962D01*
Y81988D01*
X393770Y82954D01*
X393222Y83774D01*
X392403Y84321D01*
X391437Y84513D01*
D02*
G37*
G36*
X533169Y84167D02*
X532382D01*
Y78689D01*
X535694D01*
Y81642D01*
X535502Y82608D01*
X534955Y83427D01*
X534135Y83974D01*
X533169Y84167D01*
D02*
G37*
G36*
X560941Y78051D02*
X559744D01*
Y76854D01*
X559829Y76871D01*
X560486Y77310D01*
X560924Y77966D01*
X560941Y78051D01*
D02*
G37*
G36*
X558366D02*
X557169D01*
X557186Y77966D01*
X557625Y77310D01*
X558281Y76871D01*
X558366Y76854D01*
Y78051D01*
D02*
G37*
G36*
X464828Y77658D02*
X461515D01*
Y72180D01*
X462303D01*
X463269Y72372D01*
X464088Y72919D01*
X464636Y73738D01*
X464828Y74705D01*
Y77658D01*
D02*
G37*
G36*
X393962D02*
X390650D01*
Y72180D01*
X391437D01*
X392403Y72372D01*
X393222Y72919D01*
X393770Y73738D01*
X393962Y74705D01*
Y77658D01*
D02*
G37*
G36*
X535694Y77311D02*
X532382D01*
Y71833D01*
X533169D01*
X534135Y72026D01*
X534955Y72573D01*
X535502Y73392D01*
X535694Y74358D01*
Y77311D01*
D02*
G37*
G36*
X154232Y74721D02*
Y73524D01*
X155429D01*
X155412Y73609D01*
X154974Y74265D01*
X154317Y74704D01*
X154232Y74721D01*
D02*
G37*
G36*
X152854D02*
X152769Y74704D01*
X152113Y74265D01*
X151674Y73609D01*
X151657Y73524D01*
X152854D01*
Y74721D01*
D02*
G37*
G36*
X155429Y72146D02*
X154232D01*
Y70949D01*
X154317Y70965D01*
X154974Y71404D01*
X155412Y72060D01*
X155429Y72146D01*
D02*
G37*
G36*
X152854D02*
X151657D01*
X151674Y72060D01*
X152113Y71404D01*
X152769Y70965D01*
X152854Y70949D01*
Y72146D01*
D02*
G37*
G36*
X177657Y67978D02*
X174705D01*
Y64665D01*
X180182D01*
Y65453D01*
X179990Y66419D01*
X179443Y67238D01*
X178624Y67786D01*
X177657Y67978D01*
D02*
G37*
G36*
X138287D02*
X135335D01*
Y64665D01*
X140812D01*
Y65453D01*
X140620Y66419D01*
X140073Y67238D01*
X139254Y67786D01*
X138287Y67978D01*
D02*
G37*
G36*
X98917D02*
X95965D01*
Y64665D01*
X101442D01*
Y65453D01*
X101250Y66419D01*
X100703Y67238D01*
X99884Y67786D01*
X98917Y67978D01*
D02*
G37*
G36*
X173327D02*
X170374D01*
X169408Y67786D01*
X168589Y67238D01*
X168041Y66419D01*
X167849Y65453D01*
Y64665D01*
X173327D01*
Y67978D01*
D02*
G37*
G36*
X133957D02*
X131004D01*
X130038Y67786D01*
X129219Y67238D01*
X128671Y66419D01*
X128479Y65453D01*
Y64665D01*
X133957D01*
Y67978D01*
D02*
G37*
G36*
X94587D02*
X91634D01*
X90668Y67786D01*
X89849Y67238D01*
X89301Y66419D01*
X89109Y65453D01*
Y64665D01*
X94587D01*
Y67978D01*
D02*
G37*
G36*
X26633Y62303D02*
X22343D01*
Y59587D01*
X24409D01*
X25260Y59756D01*
X25982Y60238D01*
X26464Y60960D01*
X26633Y61811D01*
Y62303D01*
D02*
G37*
G36*
X53492Y57776D02*
X47933D01*
Y49559D01*
X49852D01*
X50794Y49683D01*
X51672Y50047D01*
X52426Y50625D01*
X53004Y51379D01*
X53368Y52257D01*
X53492Y53199D01*
Y57776D01*
D02*
G37*
G36*
X46555D02*
X40996D01*
Y53199D01*
X41120Y52257D01*
X41484Y51379D01*
X42062Y50625D01*
X42816Y50047D01*
X43694Y49683D01*
X44636Y49559D01*
X46555D01*
Y57776D01*
D02*
G37*
G36*
X35744Y47555D02*
X32972D01*
Y45767D01*
X35744D01*
Y47555D01*
D02*
G37*
G36*
X42224Y43952D02*
X41929D01*
X41155Y43798D01*
X40499Y43360D01*
X40060Y42703D01*
X39906Y41929D01*
Y40059D01*
X42224D01*
Y43952D01*
D02*
G37*
G36*
X325448Y73721D02*
X321555D01*
Y71402D01*
X323425D01*
X324199Y71556D01*
X324856Y71995D01*
X325294Y72651D01*
X325448Y73425D01*
Y73721D01*
D02*
G37*
G36*
X320177D02*
X316284D01*
Y73425D01*
X316438Y72651D01*
X316877Y71995D01*
X317533Y71556D01*
X318307Y71402D01*
X320177D01*
Y73721D01*
D02*
G37*
G36*
X313637D02*
X309744D01*
Y71402D01*
X311614D01*
X312388Y71556D01*
X313045Y71995D01*
X313483Y72651D01*
X313637Y73425D01*
Y73721D01*
D02*
G37*
G36*
X308366D02*
X304473D01*
Y73425D01*
X304627Y72651D01*
X305065Y71995D01*
X305722Y71556D01*
X306496Y71402D01*
X308366D01*
Y73721D01*
D02*
G37*
G36*
X301826D02*
X297933D01*
Y71402D01*
X299803D01*
X300577Y71556D01*
X301234Y71995D01*
X301672Y72651D01*
X301826Y73425D01*
Y73721D01*
D02*
G37*
G36*
X296555D02*
X292662D01*
Y73425D01*
X292816Y72651D01*
X293254Y71995D01*
X293911Y71556D01*
X294685Y71402D01*
X296555D01*
Y73721D01*
D02*
G37*
G36*
X309744Y68028D02*
Y66831D01*
X310941D01*
X310924Y66916D01*
X310486Y67572D01*
X309829Y68011D01*
X309744Y68028D01*
D02*
G37*
G36*
X308366D02*
X308281Y68011D01*
X307625Y67572D01*
X307186Y66916D01*
X307169Y66831D01*
X308366D01*
Y68028D01*
D02*
G37*
G36*
X310941Y65453D02*
X309744D01*
Y64256D01*
X309829Y64273D01*
X310486Y64711D01*
X310924Y65368D01*
X310941Y65453D01*
D02*
G37*
G36*
X308348D02*
X307169D01*
X307186Y65368D01*
X307625Y64711D01*
X308281Y64273D01*
X308366Y64256D01*
Y65428D01*
X308361Y65437D01*
X308348Y65453D01*
D02*
G37*
G36*
X304445Y55843D02*
X300492D01*
Y53169D01*
X304445D01*
Y55843D01*
D02*
G37*
G36*
X299114D02*
X295161D01*
Y53169D01*
X299114D01*
Y55843D01*
D02*
G37*
G36*
X284744Y73721D02*
X281898D01*
Y73412D01*
X281888Y73506D01*
X281857Y73591D01*
X281806Y73666D01*
X281746Y73721D01*
X280851D01*
Y73425D01*
X281005Y72651D01*
X281444Y71995D01*
X282100Y71556D01*
X282874Y71402D01*
X284744D01*
Y73721D01*
D02*
G37*
G36*
X258874Y51083D02*
X253445D01*
Y47819D01*
X258874D01*
Y51083D01*
D02*
G37*
G36*
X252067D02*
X246638D01*
Y47819D01*
X252067D01*
Y51083D01*
D02*
G37*
G36*
X247736Y30173D02*
X247441D01*
X246667Y30019D01*
X246010Y29580D01*
X245572Y28924D01*
X245418Y28150D01*
Y26280D01*
X247736D01*
Y30173D01*
D02*
G37*
G36*
Y24902D02*
X245418D01*
Y23031D01*
X245572Y22257D01*
X246010Y21601D01*
X246667Y21162D01*
X247441Y21008D01*
X247736D01*
Y24902D01*
D02*
G37*
G36*
X219504Y51083D02*
X214075D01*
Y47819D01*
X219504D01*
Y51083D01*
D02*
G37*
G36*
X212697D02*
X207268D01*
Y47819D01*
X212697D01*
Y51083D01*
D02*
G37*
G36*
X208366Y30173D02*
X208071D01*
X207297Y30019D01*
X206640Y29580D01*
X206202Y28924D01*
X206048Y28150D01*
Y26280D01*
X208366D01*
Y30173D01*
D02*
G37*
G36*
Y24902D02*
X206048D01*
Y23031D01*
X206202Y22257D01*
X206640Y21601D01*
X207297Y21162D01*
X208071Y21008D01*
X208366D01*
Y24902D01*
D02*
G37*
G36*
X180134Y51083D02*
X174705D01*
Y47819D01*
X180134D01*
Y51083D01*
D02*
G37*
G36*
X173327D02*
X167898D01*
Y47819D01*
X173327D01*
Y51083D01*
D02*
G37*
G36*
X168996Y30173D02*
X168701D01*
X167927Y30019D01*
X167270Y29580D01*
X166832Y28924D01*
X166678Y28150D01*
Y26280D01*
X168996D01*
Y30173D01*
D02*
G37*
G36*
Y24902D02*
X166678D01*
Y23031D01*
X166832Y22257D01*
X167270Y21601D01*
X167927Y21162D01*
X168701Y21008D01*
X168996D01*
Y24902D01*
D02*
G37*
G36*
X140764Y51083D02*
X135335D01*
Y47819D01*
X140764D01*
Y51083D01*
D02*
G37*
G36*
X133957D02*
X128528D01*
Y47819D01*
X133957D01*
Y51083D01*
D02*
G37*
G36*
X129626Y30173D02*
X129331D01*
X128557Y30019D01*
X127900Y29580D01*
X127462Y28924D01*
X127308Y28150D01*
Y26280D01*
X129626D01*
Y30173D01*
D02*
G37*
G36*
Y24902D02*
X127308D01*
Y23031D01*
X127462Y22257D01*
X127900Y21601D01*
X128557Y21162D01*
X129331Y21008D01*
X129626D01*
Y24902D01*
D02*
G37*
G36*
X101394Y51083D02*
X95965D01*
Y47819D01*
X101394D01*
Y51083D01*
D02*
G37*
G36*
X94587D02*
X89157D01*
Y47819D01*
X94587D01*
Y51083D01*
D02*
G37*
G36*
X90256Y30173D02*
X89961D01*
X89186Y30019D01*
X88530Y29580D01*
X88091Y28924D01*
X87937Y28150D01*
Y26280D01*
X90256D01*
Y30173D01*
D02*
G37*
G36*
Y24902D02*
X87937D01*
Y23031D01*
X88091Y22257D01*
X88530Y21601D01*
X89186Y21162D01*
X89961Y21008D01*
X90256D01*
Y24902D01*
D02*
G37*
%LPD*%
D10*
X492126Y43701D02*
X523729D01*
X525591Y45563D02*
Y46457D01*
X523729Y43701D02*
X525591Y45563D01*
X421260Y43701D02*
X452863D01*
X454725Y45563D02*
Y46457D01*
X452863Y43701D02*
X454725Y45563D01*
X352362Y43701D02*
X381996D01*
X383859Y45563D02*
Y46457D01*
X381996Y43701D02*
X383859Y45563D01*
X546000Y23000D02*
X556465D01*
X536728Y13728D02*
X546000Y23000D01*
X322204Y13728D02*
X536728D01*
X309000Y59869D02*
Y66500D01*
X545544Y27953D02*
X548453D01*
X533410Y15819D02*
X545544Y27953D01*
X322942Y15819D02*
X533410D01*
X313637Y25123D02*
X322942Y15819D01*
X311637Y24295D02*
X322204Y13728D01*
X312355Y102058D02*
X314923D01*
X310282Y104131D02*
X312355Y102058D01*
X310282Y104131D02*
Y107998D01*
X322481Y94500D02*
X327118D01*
X314923Y102058D02*
X322481Y94500D01*
X321653Y92500D02*
X326290D01*
X314095Y100058D02*
X321653Y92500D01*
X304308Y100058D02*
X314095D01*
X310282Y107998D02*
X310551Y108268D01*
X300551Y103815D02*
X304308Y100058D01*
X85346Y13728D02*
X271228D01*
X78500Y20575D02*
X85346Y13728D01*
X78500Y20575D02*
Y28500D01*
X283760Y26260D02*
X289370D01*
X299803D01*
X330118D02*
X481772D01*
X330118Y30413D02*
X415059D01*
X305200Y48327D02*
X311637Y41890D01*
Y24295D02*
Y41890D01*
X313637Y25123D02*
Y55232D01*
X309000Y59869D02*
X313637Y55232D01*
X357068Y69000D02*
X361806Y73738D01*
X351103Y69000D02*
X357068D01*
X339530Y57428D02*
X351103Y69000D01*
X424500Y67000D02*
X430500Y73000D01*
X351931Y67000D02*
X424500D01*
X341530Y56600D02*
X351931Y67000D01*
X491500Y65000D02*
X496500Y70000D01*
X352759Y65000D02*
X491500D01*
X343531Y55771D02*
X352759Y65000D01*
X361806Y73738D02*
Y91168D01*
X373000Y102362D02*
X379528D01*
X361806Y91168D02*
X373000Y102362D01*
X339530Y43411D02*
Y57428D01*
X556465Y23000D02*
X561417Y27953D01*
X562992D01*
X481772Y26260D02*
X490551Y35039D01*
X492126D01*
X415059Y30413D02*
X419685Y35039D01*
X421260D01*
X350525D02*
X352362D01*
X348458Y32972D02*
X350525Y35039D01*
X330118Y32972D02*
X348458D01*
X519488Y78000D02*
Y88500D01*
X527953Y96965D01*
Y102362D01*
X430500Y73000D02*
Y93000D01*
X439862Y102362D01*
X450394D01*
X510500Y102500D02*
X519153D01*
X519291Y102362D01*
X496500Y88500D02*
X510500Y102500D01*
X496500Y70000D02*
Y88500D01*
X343531Y41754D02*
Y55771D01*
X337308Y35531D02*
X343531Y41754D01*
X330118Y35531D02*
X337308D01*
X448622Y78347D02*
Y86622D01*
X459055Y97055D01*
Y102362D01*
X341530Y42582D02*
Y56600D01*
X337039Y38091D02*
X341530Y42582D01*
X330118Y38091D02*
X337039D01*
X377756Y78347D02*
Y86256D01*
X388189Y96689D01*
Y102362D01*
X336769Y40650D02*
X339530Y43411D01*
X330118Y40650D02*
X336769D01*
X269795Y115000D02*
X339256D01*
X267500Y112705D02*
X269795Y115000D01*
X267500Y86500D02*
Y112705D01*
X279591Y74410D02*
X285433D01*
X267500Y86500D02*
X279591Y74410D01*
X339256Y115000D02*
X340551Y113705D01*
Y108268D02*
Y113705D01*
X300551Y103815D02*
Y108268D01*
X324168Y48327D02*
X330118D01*
X321500Y50994D02*
X324168Y48327D01*
X321500Y50994D02*
Y61069D01*
X331000Y70569D01*
X319500Y61897D02*
X329000Y71397D01*
X319500Y50166D02*
Y61897D01*
Y50166D02*
X323898Y45768D01*
X331000Y70569D02*
Y90618D01*
X329000Y71397D02*
Y89790D01*
X327118Y94500D02*
X331000Y90618D01*
X326290Y92500D02*
X329000Y89790D01*
X323898Y45768D02*
X330118D01*
X290015Y43701D02*
X291008D01*
X291500Y43209D01*
X299803D01*
Y48327D02*
X305200D01*
X271228Y13728D02*
X283760Y26260D01*
X75500Y31500D02*
X78500Y28500D01*
X26000Y31500D02*
X75500D01*
X22834Y34666D02*
X26000Y31500D01*
X22834Y34666D02*
Y41338D01*
X50327Y34327D02*
X51575Y35575D01*
X33456Y34327D02*
X50327D01*
X32283Y35500D02*
X33456Y34327D01*
X51575Y35575D02*
Y39370D01*
X54831Y21162D02*
X57586Y23917D01*
X52066Y21162D02*
X54831D01*
X51575Y21654D02*
X52066Y21162D01*
X57586Y23917D02*
X64961D01*
X51575Y40683D02*
X53904Y43012D01*
X51575Y39370D02*
Y40683D01*
X53904Y43012D02*
X64961D01*
X32283Y35500D02*
Y37598D01*
D14*
X293307Y97835D02*
D03*
X312992Y89764D02*
D03*
X543350Y14150D02*
D03*
X289370Y26260D02*
D03*
X564992Y49213D02*
D03*
X576772Y78740D02*
D03*
X559055D02*
D03*
X576772Y49213D02*
D03*
X236221Y72835D02*
D03*
X309055Y66142D02*
D03*
X153543Y72835D02*
D03*
X196850D02*
D03*
D18*
X47244Y58465D02*
D03*
D19*
Y79331D02*
D03*
D20*
X591535Y84646D02*
D03*
D21*
Y76772D02*
D03*
Y68898D02*
D03*
Y61024D02*
D03*
D22*
X617913Y51181D02*
D03*
Y94488D02*
D03*
D23*
X32283Y37598D02*
D03*
Y45078D02*
D03*
X22834Y41338D02*
D03*
Y23622D02*
D03*
X32283Y19882D02*
D03*
D24*
X330118Y26260D02*
D03*
Y52480D02*
D03*
X299803Y26260D02*
D03*
D25*
X330118Y30413D02*
D03*
Y32972D02*
D03*
Y35531D02*
D03*
Y38091D02*
D03*
Y40650D02*
D03*
Y43209D02*
D03*
Y45768D02*
D03*
Y48327D02*
D03*
X299803Y30413D02*
D03*
Y32972D02*
D03*
Y35531D02*
D03*
Y38091D02*
D03*
Y40650D02*
D03*
Y43209D02*
D03*
Y45768D02*
D03*
Y48327D02*
D03*
D26*
Y52480D02*
D03*
D27*
X32283Y27362D02*
D03*
D28*
X377756Y78347D02*
D03*
X448622D02*
D03*
X519488Y78000D02*
D03*
D29*
X389961Y78347D02*
D03*
X460826D02*
D03*
X531693Y78000D02*
D03*
D30*
X252756Y51772D02*
D03*
X213386D02*
D03*
X174016D02*
D03*
X134646D02*
D03*
X95276D02*
D03*
D31*
X252756Y63976D02*
D03*
X213386D02*
D03*
X174016D02*
D03*
X134646D02*
D03*
X95276D02*
D03*
D32*
X388189Y102362D02*
D03*
X379528D02*
D03*
X459055D02*
D03*
X450394D02*
D03*
X527953D02*
D03*
X519291D02*
D03*
X248425Y25591D02*
D03*
X257087D02*
D03*
X209055D02*
D03*
X217717D02*
D03*
X169685D02*
D03*
X178347D02*
D03*
X130315D02*
D03*
X138976D02*
D03*
X90945D02*
D03*
X99606D02*
D03*
X51575Y21654D02*
D03*
X42913D02*
D03*
Y39370D02*
D03*
X51575D02*
D03*
D33*
X562992Y27953D02*
D03*
Y19291D02*
D03*
X551181D02*
D03*
Y27953D02*
D03*
X352362Y35039D02*
D03*
Y43701D02*
D03*
X421260Y35039D02*
D03*
Y43701D02*
D03*
X492126Y35039D02*
D03*
Y43701D02*
D03*
X285433Y83071D02*
D03*
Y74410D02*
D03*
X297244Y83071D02*
D03*
Y74410D02*
D03*
X309055Y83071D02*
D03*
Y74410D02*
D03*
X552681Y101969D02*
D03*
Y110630D02*
D03*
X320866Y83071D02*
D03*
Y74410D02*
D03*
X574803Y27953D02*
D03*
Y19291D02*
D03*
X586614D02*
D03*
Y27953D02*
D03*
D34*
X580614Y110236D02*
D03*
Y98425D02*
D03*
D35*
X579827Y104331D02*
D03*
D36*
X570289Y104331D02*
D03*
D37*
X64961Y23917D02*
D03*
Y43012D02*
D03*
D65*
X548039Y35039D02*
X561781D01*
X530909Y17910D02*
X548039Y35039D01*
X323808Y17910D02*
X530909D01*
X315728Y25989D02*
X323808Y17910D01*
X309055Y85924D02*
X312895Y89764D01*
X312992D01*
X309055Y83071D02*
Y85924D01*
X561781Y35039D02*
X571524Y44782D01*
Y57744D02*
X574803Y61024D01*
X571524Y44782D02*
Y57744D01*
X586614Y27953D02*
Y42497D01*
X579898Y49213D02*
X586614Y42497D01*
X576772Y49213D02*
X579898D01*
X574803Y61024D02*
X591535D01*
X570289Y104331D02*
X570290Y104331D01*
X579827D01*
X579827Y104331D01*
X576772Y78740D02*
X578740Y76772D01*
X591535D01*
X586614Y15843D02*
Y19291D01*
X584500Y13728D02*
X586614Y15843D01*
X564992Y13728D02*
X584500D01*
X562992Y15728D02*
X564992Y13728D01*
X562992Y15728D02*
Y19291D01*
X593000Y49102D02*
X600602Y56705D01*
X593000Y21500D02*
Y49102D01*
X590791Y19291D02*
X593000Y21500D01*
X586614Y19291D02*
X590791D01*
X315728Y35732D02*
X323204Y43209D01*
X315728Y25989D02*
Y35732D01*
X600602Y56705D02*
Y67898D01*
X599602Y68898D02*
X600602Y67898D01*
X591535Y68898D02*
X599602D01*
X585039Y27953D02*
X586614D01*
X576378Y19291D02*
X585039Y27953D01*
X574803Y19291D02*
X576378D01*
X562992Y27953D02*
X574803D01*
X551181Y19291D02*
X562992D01*
X323204Y43209D02*
X330118D01*
X552681Y110630D02*
X552878Y110433D01*
X230000Y75500D02*
X234405Y79905D01*
X230000Y27500D02*
Y75500D01*
X234405Y79905D02*
X266500D01*
X228000Y25500D02*
X230000Y27500D01*
X274319Y47572D02*
X283801Y38091D01*
X266500Y79905D02*
X274319Y72087D01*
Y47572D02*
Y72087D01*
X267403Y82087D02*
X276500Y72990D01*
Y48476D02*
Y72990D01*
Y48476D02*
X284326Y40650D01*
X108757Y15819D02*
X270085D01*
X99606Y24970D02*
X108757Y15819D01*
X270085D02*
X284679Y30413D01*
X269181Y18000D02*
X284154Y32972D01*
X145000Y18000D02*
X269181D01*
X138976Y24024D02*
X145000Y18000D01*
X99606Y24970D02*
Y25591D01*
X284679Y30413D02*
X299803D01*
X138976Y24024D02*
Y25591D01*
X284154Y32972D02*
X299803D01*
X198587Y82087D02*
X267403D01*
X193000Y76500D02*
X198587Y82087D01*
X284326Y40650D02*
X299803D01*
X283801Y38091D02*
X299803D01*
X257087Y25591D02*
X273590D01*
X283531Y35531D01*
X299803D01*
X193000Y35582D02*
Y76500D01*
X183009Y25591D02*
X193000Y35582D01*
X217807Y25500D02*
X228000D01*
X217717Y25591D02*
X217807Y25500D01*
X178347Y25591D02*
X183009D01*
D66*
X569244Y64000D02*
Y82626D01*
X48461Y11539D02*
X540739D01*
X564992Y59748D02*
X569244Y64000D01*
X564992Y49213D02*
Y59748D01*
X540739Y11539D02*
X543350Y14150D01*
X569244Y82626D02*
X580614Y93996D01*
X236221Y72651D02*
X250266D01*
X324042Y96689D02*
X328025D01*
X320551Y100180D02*
X324042Y96689D01*
X320551Y100180D02*
Y108268D01*
X328025Y96689D02*
X333500Y91214D01*
X320866Y83071D02*
Y90191D01*
X313188Y97869D02*
X320866Y90191D01*
X293500Y97869D02*
X313188D01*
X42913Y17087D02*
X48461Y11539D01*
X42913Y17087D02*
Y21654D01*
X36811Y19882D02*
X38583Y21654D01*
X42913D01*
X32283Y19882D02*
X36811D01*
X580614Y93996D02*
Y98425D01*
X252756Y63976D02*
Y70161D01*
X250266Y72651D02*
X252756Y70161D01*
X213386Y63976D02*
Y70016D01*
X210567Y72835D02*
X213386Y70016D01*
X196850Y72835D02*
X210567D01*
X333500Y63382D02*
Y91214D01*
X330118Y52480D02*
Y60000D01*
X333500Y63382D01*
D67*
X383859Y46457D02*
D03*
X454725D02*
D03*
X525591D02*
D03*
D68*
X21654Y70866D02*
D03*
D69*
Y62992D02*
D03*
D70*
X340551Y108268D02*
D03*
X283465D02*
D03*
D71*
X320551D02*
D03*
X300551D02*
D03*
X310551D02*
D03*
X330551D02*
D03*
X273465D02*
D03*
D72*
X614173Y25591D02*
D03*
X25591Y102362D02*
D03*
M02*
