M48
;Layer_Color=9474304
;FILE_FORMAT=2:5
INCH,LZ
;TYPE=PLATED
T1F00S00C0.01968
T2F00S00C0.02953
T4F00S00C0.03346
T6F00S00C0.03937
%
T01
X0157251Y0046618
Y0051539
Y0056461
Y0061382
T02
X0143Y0141445
Y0151445
T04
X0019657Y00525
X0039343
X0069Y0050393
Y0070866
X0057528Y0109
X0124094Y0121
X0135906
X0135819Y00905
X0121819
X00815Y0177349
Y0191349
X00505Y0189311
Y01775
X0023
Y0189311
X003Y01555
X0044
X0018157Y0109
T06
X0113Y0165949
X0123
X0133
X0143
Y0197051
X0133
X0123
X0113
X0050764Y0069669
X0021236Y0078331
M30
