G04*
G04 #@! TF.GenerationSoftware,Altium Limited,Altium Designer,18.1.7 (191)*
G04*
G04 Layer_Color=65535*
%FSLAX25Y25*%
%MOIN*%
G70*
G01*
G75*
%ADD10C,0.00787*%
%ADD11C,0.00591*%
%ADD12C,0.01000*%
%ADD13C,0.00394*%
D10*
X106465Y178350D02*
G03*
X106459Y184349I-352J2999D01*
G01*
X144567Y90500D02*
G03*
X144567Y90500I-15748J0D01*
G01*
X97248Y184459D02*
G03*
X97248Y184459I-15748J0D01*
G01*
X55290Y184567D02*
G03*
X58473Y184558I1594J765D01*
G01*
X42560Y184606D02*
G03*
X45743Y184596I1594J765D01*
G01*
D02*
G03*
X48925Y184587I1594J765D01*
G01*
X52108Y184577D02*
G03*
X55290Y184567I1594J765D01*
G01*
X48925Y184587D02*
G03*
X52108Y184577I1594J765D01*
G01*
X27790Y184567D02*
G03*
X30973Y184558I1594J765D01*
G01*
X15060Y184606D02*
G03*
X18243Y184596I1594J765D01*
G01*
D02*
G03*
X21425Y184587I1594J765D01*
G01*
X24608Y184577D02*
G03*
X27790Y184567I1594J765D01*
G01*
X21425Y184587D02*
G03*
X24608Y184577I1594J765D01*
G01*
X131162Y116210D02*
G03*
X131152Y113027I765J-1594D01*
G01*
X131200Y128940D02*
G03*
X131191Y125757I765J-1594D01*
G01*
D02*
G03*
X131181Y122575I765J-1594D01*
G01*
X131171Y119392D02*
G03*
X131162Y116210I765J-1594D01*
G01*
X131181Y122575D02*
G03*
X131171Y119392I765J-1594D01*
G01*
X152842Y146445D02*
G03*
X152842Y146445I-9843J0D01*
G01*
X75669Y69870D02*
G03*
X62313Y70001I-6678J30D01*
G01*
X62344Y51243D02*
G03*
X75692Y51296I6674J121D01*
G01*
X60803Y79905D02*
G03*
X58047Y82661I-2756J0D01*
G01*
Y65339D02*
G03*
X60803Y68094I0J2756D01*
G01*
X11197D02*
G03*
X13953Y65339I2756J0D01*
G01*
Y82661D02*
G03*
X11197Y79905I0J-2756D01*
G01*
X52638Y155500D02*
G03*
X52638Y155500I-15748J0D01*
G01*
X23620Y53313D02*
G03*
X29496Y52724I3183J2152D01*
G01*
X35065Y51749D02*
G03*
X29366Y52587I-3167J-1740D01*
G01*
X63212Y8901D02*
Y40101D01*
X74212D01*
Y8901D02*
Y40101D01*
X63212Y8901D02*
X74212D01*
X34499D02*
Y40101D01*
X45499D01*
Y8901D02*
Y40101D01*
X34499Y8901D02*
X45499D01*
X106346Y166067D02*
Y178350D01*
X106465Y184349D02*
Y197051D01*
X149457D01*
Y166067D02*
Y197051D01*
X106346Y166067D02*
X149457D01*
X128819Y75000D02*
Y106000D01*
X145598Y90106D02*
X149205Y90106D01*
X147366Y88138D02*
Y92075D01*
X113071Y90500D02*
X128819D01*
X113465Y88532D02*
X128819D01*
X113858Y86563D02*
X128819D01*
X114252Y84594D02*
X128819D01*
X115433Y82626D02*
X128819D01*
X116614Y80657D02*
X128819D01*
X118583Y78689D02*
X128819D01*
X121339Y76720D02*
X128819D01*
X121339Y104280D02*
X128819D01*
X118583Y102311D02*
X128819D01*
X116614Y100343D02*
X128819D01*
X115433Y98374D02*
X128819D01*
X114252Y96406D02*
X128819D01*
X113858Y94437D02*
X128819D01*
X113465Y92469D02*
X128819D01*
X126850Y75146D02*
Y90500D01*
X124882Y75539D02*
Y90500D01*
X122913Y75933D02*
Y90500D01*
X120945Y77114D02*
Y90500D01*
X118976Y78295D02*
Y90500D01*
X117008Y80264D02*
Y90500D01*
X115039Y83020D02*
Y90500D01*
X126850D02*
Y105854D01*
X124882Y90500D02*
Y105461D01*
X122913Y90500D02*
Y105067D01*
X120945Y90500D02*
Y103886D01*
X118976Y90500D02*
Y102705D01*
X117008Y90500D02*
Y100736D01*
X115039Y90500D02*
Y97980D01*
X81894Y201392D02*
Y204999D01*
X79925Y203160D02*
X83862D01*
X74020Y170680D02*
X81500D01*
X71264Y172648D02*
X81500D01*
X69295Y174617D02*
X81500D01*
X68114Y176585D02*
X81500D01*
X66933Y178554D02*
X81500D01*
X66539Y180522D02*
X81500D01*
X66146Y182491D02*
X81500D01*
Y170680D02*
X88980D01*
X81500Y172648D02*
X91736D01*
X81500Y174617D02*
X93705D01*
X81500Y176585D02*
X94886D01*
X81500Y178554D02*
X96067D01*
X81500Y180522D02*
X96461D01*
X81500Y182491D02*
X96854D01*
X79532Y169105D02*
Y184459D01*
X77563Y169389D02*
Y184459D01*
X75594Y169892D02*
Y184459D01*
X73626Y171074D02*
Y184459D01*
X71657Y172255D02*
Y184459D01*
X69689Y174223D02*
Y184459D01*
X67720Y176979D02*
Y184459D01*
X95280Y176979D02*
Y184459D01*
X93311Y174223D02*
Y184459D01*
X91343Y172255D02*
Y184459D01*
X89374Y171074D02*
Y184459D01*
X87406Y169892D02*
Y184459D01*
X85437Y169499D02*
Y184459D01*
X83469Y169105D02*
Y184459D01*
X81500Y168711D02*
Y184459D01*
X66000D02*
X97000D01*
X42626Y182224D02*
X58374D01*
X15126D02*
X30874D01*
X128819Y113126D02*
Y128874D01*
X141041Y159055D02*
X144978D01*
X143009Y157287D02*
Y160894D01*
X133157Y146445D02*
X152843D01*
X137094Y138571D02*
Y146445D01*
X148906Y138571D02*
Y146445D01*
X133945Y142508D02*
X152055D01*
X141032Y136996D02*
Y146445D01*
X143000Y136602D02*
Y146445D01*
X139063Y137390D02*
Y146445D01*
X135126Y140539D02*
Y146445D01*
X137094Y138571D02*
X148894D01*
X144969Y136945D02*
Y146445D01*
X135126Y140539D02*
X150874D01*
X146937Y137390D02*
Y146445D01*
X133551Y144476D02*
X152449D01*
X150874Y140539D02*
Y146445D01*
X66244Y63386D02*
X67819D01*
X66244Y61811D02*
Y63386D01*
X71953Y57677D01*
X68213Y64761D02*
X68931Y65479D01*
X68213Y64567D02*
X69787Y62992D01*
X68213Y61417D02*
X69787Y62992D01*
X68213Y61417D02*
X69787Y59842D01*
X68213Y58267D02*
X69787Y59842D01*
X68213Y58267D02*
X69787Y56693D01*
X68931Y55836D02*
X69787Y56693D01*
X68931Y65479D02*
Y66929D01*
X75669Y51365D02*
Y69900D01*
X62340Y51243D02*
Y70001D01*
X68931Y54330D02*
Y55789D01*
X41020Y109000D02*
X53591D01*
X41020Y98764D02*
Y119236D01*
X34537Y98764D02*
Y119236D01*
X22488Y108997D02*
X34537Y109000D01*
X12252Y97189D02*
Y120811D01*
Y97189D02*
X63039D01*
Y120811D01*
X12252D02*
X63039D01*
X27732Y75966D02*
X32373Y75964D01*
X39808Y70557D02*
Y77776D01*
X32427Y70446D02*
X39756Y77776D01*
X32427Y70446D02*
Y77808D01*
X15921Y82661D02*
X58047D01*
X60803Y68094D02*
Y79906D01*
X13953Y65339D02*
X58047D01*
X11197Y68094D02*
Y79906D01*
X13953Y82661D02*
X16709D01*
X39971Y72032D02*
X44268D01*
X16350Y155894D02*
X19957D01*
X18189Y153925D02*
Y157862D01*
X50669Y148020D02*
Y155500D01*
X48701Y145264D02*
Y155500D01*
X46732Y143295D02*
Y155500D01*
X44764Y142114D02*
Y155500D01*
X42795Y140933D02*
Y155500D01*
X40827Y140539D02*
Y155500D01*
X38858Y140146D02*
Y155500D01*
X50669D02*
Y162980D01*
X48701Y155500D02*
Y165736D01*
X46732Y155500D02*
Y167705D01*
X44764Y155500D02*
Y168886D01*
X42795Y155500D02*
Y170067D01*
X40827Y155500D02*
Y170461D01*
X38858Y155500D02*
Y170854D01*
X36890Y153532D02*
X52244D01*
X36890Y151563D02*
X51961D01*
X36890Y149594D02*
X51457D01*
X36890Y147626D02*
X50276D01*
X36890Y145657D02*
X49094D01*
X36890Y143689D02*
X47126D01*
X36890Y141720D02*
X44370D01*
X36890Y169280D02*
X44370D01*
X36890Y167311D02*
X47126D01*
X36890Y165343D02*
X49094D01*
X36890Y163374D02*
X50276D01*
X36890Y161406D02*
X51457D01*
X36890Y159437D02*
X51850D01*
X36890Y157469D02*
X52244D01*
X36890Y155500D02*
X52638D01*
X36890Y140000D02*
Y171000D01*
X152251Y70598D02*
X171424D01*
X166251Y47015D02*
Y60682D01*
Y47015D02*
X169048Y43752D01*
X152251Y37921D02*
Y70598D01*
X166251Y60682D02*
X169004Y63893D01*
X169062Y37921D02*
Y70598D01*
X152212Y37598D02*
X171424D01*
Y70598D01*
X174850Y74006D02*
Y103140D01*
X152212D02*
X174850D01*
X152212Y74005D02*
Y103140D01*
Y74005D02*
X174850D01*
X177311D01*
Y103140D01*
X174850D02*
X177311D01*
X174850Y135784D02*
X177311D01*
Y106649D02*
Y135784D01*
X174850Y106649D02*
X177311D01*
X152212D02*
X174850D01*
X152212D02*
Y135784D01*
X174850D01*
Y106650D02*
Y135784D01*
D11*
X142563Y55500D02*
G03*
X142563Y55500I-9843J0D01*
G01*
D12*
X63295Y183405D02*
G03*
X63295Y183405I-12795J0D01*
G01*
X35795D02*
G03*
X35795Y183405I-12795J0D01*
G01*
X142795Y121000D02*
G03*
X142795Y121000I-12795J0D01*
G01*
X11397Y60500D02*
X46830D01*
Y44752D02*
Y60500D01*
X11397Y44752D02*
Y60500D01*
Y44752D02*
X46830D01*
X55500Y22000D02*
Y27998D01*
X59499Y22000D01*
Y27998D01*
X27000Y28498D02*
Y22500D01*
X30999D01*
X107000Y209498D02*
Y204500D01*
X108000Y203500D01*
X109999D01*
X110999Y204500D01*
Y209498D01*
X112998Y203500D02*
X114997D01*
X113998D01*
Y209498D01*
X112998Y208498D01*
X64000Y80819D02*
Y86817D01*
X66999D01*
X67999Y85817D01*
Y83818D01*
X66999Y82818D01*
X64000D01*
X65999D02*
X67999Y80819D01*
X69998Y86817D02*
X73997D01*
X71997D01*
Y80819D01*
X75996D02*
X77996D01*
X76996D01*
Y86817D01*
X75996Y85817D01*
X11800Y86100D02*
Y92098D01*
X13799Y90099D01*
X15799Y92098D01*
Y86100D01*
X20797Y92098D02*
X18798D01*
X17798Y91098D01*
Y87100D01*
X18798Y86100D01*
X20797D01*
X21797Y87100D01*
Y91098D01*
X20797Y92098D01*
X23796D02*
Y88099D01*
X25796Y86100D01*
X27795Y88099D01*
Y92098D01*
X29794Y86100D02*
X31793D01*
X30794D01*
Y92098D01*
X29794Y91098D01*
X99500Y57498D02*
Y51500D01*
X103499D01*
X109497Y57498D02*
X105498D01*
Y51500D01*
X109497D01*
X105498Y54499D02*
X107497D01*
X111496Y57498D02*
Y51500D01*
X114495D01*
X115495Y52500D01*
Y56498D01*
X114495Y57498D01*
X111496D01*
X117494Y51500D02*
X119493D01*
X118494D01*
Y57498D01*
X117494Y56498D01*
X99500Y122965D02*
Y116967D01*
X103499D01*
X105498Y121965D02*
X106498Y122965D01*
X108497D01*
X109497Y121965D01*
Y120965D01*
X108497Y119966D01*
X107497D01*
X108497D01*
X109497Y118966D01*
Y117966D01*
X108497Y116967D01*
X106498D01*
X105498Y117966D01*
X45000Y204498D02*
Y198500D01*
X48999D01*
X54997D02*
X50998D01*
X54997Y202499D01*
Y203498D01*
X53997Y204498D01*
X51998D01*
X50998Y203498D01*
X22999Y204998D02*
Y199000D01*
X26998D01*
X28997D02*
X30997D01*
X29997D01*
Y204998D01*
X28997Y203998D01*
X16999Y40341D02*
X13000D01*
Y37342D01*
X14999D01*
X13000D01*
Y34343D01*
X18998D02*
X20997D01*
X19998D01*
Y40341D01*
X18998Y39341D01*
X16841Y129198D02*
X15842Y130198D01*
X13842D01*
X12843Y129198D01*
Y125200D01*
X13842Y124200D01*
X15842D01*
X16841Y125200D01*
X18841Y130198D02*
X22839Y124200D01*
Y130198D02*
X18841Y124200D01*
X24839D02*
X26838D01*
X25838D01*
Y130198D01*
X24839Y129198D01*
X185500Y111716D02*
X179502D01*
Y114716D01*
X180502Y115715D01*
X182501D01*
X183501Y114716D01*
Y111716D01*
Y113716D02*
X185500Y115715D01*
X180502Y121713D02*
X179502Y120714D01*
Y118714D01*
X180502Y117715D01*
X181502D01*
X182501Y118714D01*
Y120714D01*
X183501Y121713D01*
X184501D01*
X185500Y120714D01*
Y118714D01*
X184501Y117715D01*
X179502Y83323D02*
Y79324D01*
X182501D01*
Y81323D01*
Y79324D01*
X185500D01*
X180502Y89321D02*
X179502Y88321D01*
Y86322D01*
X180502Y85322D01*
X181502D01*
X182501Y86322D01*
Y88321D01*
X183501Y89321D01*
X184501D01*
X185500Y88321D01*
Y86322D01*
X184501Y85322D01*
X185500Y46000D02*
X179502D01*
Y48999D01*
X180502Y49999D01*
X182501D01*
X183501Y48999D01*
Y46000D01*
X185500Y55997D02*
Y51998D01*
X181501Y55997D01*
X180502D01*
X179502Y54997D01*
Y52998D01*
X180502Y51998D01*
X179502Y57996D02*
X185500D01*
Y60995D01*
X184500Y61995D01*
X180502D01*
X179502Y60995D01*
Y57996D01*
X103499Y90998D02*
X102499Y91998D01*
X100500D01*
X99500Y90998D01*
Y87000D01*
X100500Y86000D01*
X102499D01*
X103499Y87000D01*
X109497Y91998D02*
X105498D01*
Y88999D01*
X107497Y89999D01*
X108497D01*
X109497Y88999D01*
Y87000D01*
X108497Y86000D01*
X106498D01*
X105498Y87000D01*
X124499Y147943D02*
X123499Y148943D01*
X121500D01*
X120500Y147943D01*
Y143945D01*
X121500Y142945D01*
X123499D01*
X124499Y143945D01*
X129497Y142945D02*
Y148943D01*
X126498Y145944D01*
X130497D01*
X70499Y208998D02*
X69499Y209998D01*
X67500D01*
X66500Y208998D01*
Y205000D01*
X67500Y204000D01*
X69499D01*
X70499Y205000D01*
X76497Y204000D02*
X72498D01*
X76497Y207999D01*
Y208998D01*
X75497Y209998D01*
X73498D01*
X72498Y208998D01*
X14999Y167498D02*
X13999Y168498D01*
X12000D01*
X11000Y167498D01*
Y163500D01*
X12000Y162500D01*
X13999D01*
X14999Y163500D01*
X16998Y162500D02*
X18997D01*
X17998D01*
Y168498D01*
X16998Y167498D01*
D13*
X132720Y45658D02*
Y65342D01*
X124846Y61405D02*
X132720D01*
X123221Y53531D02*
X132720D01*
X123665Y51563D02*
X132720D01*
X124846Y49595D02*
X132720D01*
X126815Y47626D02*
X132720D01*
X130752Y46051D02*
Y64949D01*
X128784Y46445D02*
Y64555D01*
X126815Y47626D02*
Y63374D01*
X123272Y57468D02*
X132720D01*
X122878Y55500D02*
X132720D01*
X123665Y59437D02*
X132720D01*
X126815Y63374D02*
X132720D01*
X124846Y49606D02*
Y61405D01*
X143642Y55172D02*
X147248D01*
X145410Y53203D02*
Y57140D01*
X128819Y74752D02*
Y90500D01*
X68213Y64567D02*
Y64761D01*
X68931Y55789D02*
Y55836D01*
X39930Y71991D02*
X39971Y72032D01*
M02*
