G04*
G04 #@! TF.GenerationSoftware,Altium Limited,Altium Designer,18.1.7 (191)*
G04*
G04 Layer_Color=16711935*
%FSLAX25Y25*%
%MOIN*%
G70*
G01*
G75*
%ADD15R,0.06706X0.09461*%
G04:AMPARAMS|DCode=16|XSize=67.06mil|YSize=94.61mil|CornerRadius=18.76mil|HoleSize=0mil|Usage=FLASHONLY|Rotation=0.000|XOffset=0mil|YOffset=0mil|HoleType=Round|Shape=RoundedRectangle|*
%AMROUNDEDRECTD16*
21,1,0.06706,0.05709,0,0,0.0*
21,1,0.02953,0.09461,0,0,0.0*
1,1,0.03753,0.01476,-0.02854*
1,1,0.03753,-0.01476,-0.02854*
1,1,0.03753,-0.01476,0.02854*
1,1,0.03753,0.01476,0.02854*
%
%ADD16ROUNDEDRECTD16*%
%ADD17R,0.05524X0.08674*%
G04:AMPARAMS|DCode=18|XSize=55.24mil|YSize=86.74mil|CornerRadius=15.81mil|HoleSize=0mil|Usage=FLASHONLY|Rotation=180.000|XOffset=0mil|YOffset=0mil|HoleType=Round|Shape=RoundedRectangle|*
%AMROUNDEDRECTD18*
21,1,0.05524,0.05512,0,0,180.0*
21,1,0.02362,0.08674,0,0,180.0*
1,1,0.03162,-0.01181,0.02756*
1,1,0.03162,0.01181,0.02756*
1,1,0.03162,0.01181,-0.02756*
1,1,0.03162,-0.01181,-0.02756*
%
%ADD18ROUNDEDRECTD18*%
%ADD19R,0.09461X0.06706*%
G04:AMPARAMS|DCode=20|XSize=67.06mil|YSize=94.61mil|CornerRadius=18.76mil|HoleSize=0mil|Usage=FLASHONLY|Rotation=270.000|XOffset=0mil|YOffset=0mil|HoleType=Round|Shape=RoundedRectangle|*
%AMROUNDEDRECTD20*
21,1,0.06706,0.05709,0,0,270.0*
21,1,0.02953,0.09461,0,0,270.0*
1,1,0.03753,-0.02854,-0.01476*
1,1,0.03753,-0.02854,0.01476*
1,1,0.03753,0.02854,0.01476*
1,1,0.03753,0.02854,-0.01476*
%
%ADD20ROUNDEDRECTD20*%
%ADD21R,0.08674X0.05524*%
G04:AMPARAMS|DCode=22|XSize=55.24mil|YSize=86.74mil|CornerRadius=15.81mil|HoleSize=0mil|Usage=FLASHONLY|Rotation=90.000|XOffset=0mil|YOffset=0mil|HoleType=Round|Shape=RoundedRectangle|*
%AMROUNDEDRECTD22*
21,1,0.05524,0.05512,0,0,90.0*
21,1,0.02362,0.08674,0,0,90.0*
1,1,0.03162,0.02756,0.01181*
1,1,0.03162,0.02756,-0.01181*
1,1,0.03162,-0.02756,-0.01181*
1,1,0.03162,-0.02756,0.01181*
%
%ADD22ROUNDEDRECTD22*%
G04:AMPARAMS|DCode=23|XSize=120.2mil|YSize=72.96mil|CornerRadius=20.24mil|HoleSize=0mil|Usage=FLASHONLY|Rotation=180.000|XOffset=0mil|YOffset=0mil|HoleType=Round|Shape=RoundedRectangle|*
%AMROUNDEDRECTD23*
21,1,0.12020,0.03248,0,0,180.0*
21,1,0.07972,0.07296,0,0,180.0*
1,1,0.04048,-0.03986,0.01624*
1,1,0.04048,0.03986,0.01624*
1,1,0.04048,0.03986,-0.01624*
1,1,0.04048,-0.03986,-0.01624*
%
%ADD23ROUNDEDRECTD23*%
G04:AMPARAMS|DCode=24|XSize=37.53mil|YSize=86.74mil|CornerRadius=11.38mil|HoleSize=0mil|Usage=FLASHONLY|Rotation=90.000|XOffset=0mil|YOffset=0mil|HoleType=Round|Shape=RoundedRectangle|*
%AMROUNDEDRECTD24*
21,1,0.03753,0.06398,0,0,90.0*
21,1,0.01476,0.08674,0,0,90.0*
1,1,0.02276,0.03199,0.00738*
1,1,0.02276,0.03199,-0.00738*
1,1,0.02276,-0.03199,-0.00738*
1,1,0.02276,-0.03199,0.00738*
%
%ADD24ROUNDEDRECTD24*%
%ADD25R,0.08674X0.03753*%
%ADD26R,0.12020X0.07296*%
G04:AMPARAMS|DCode=27|XSize=72.96mil|YSize=120.2mil|CornerRadius=20.24mil|HoleSize=0mil|Usage=FLASHONLY|Rotation=90.000|XOffset=0mil|YOffset=0mil|HoleType=Round|Shape=RoundedRectangle|*
%AMROUNDEDRECTD27*
21,1,0.07296,0.07972,0,0,90.0*
21,1,0.03248,0.12020,0,0,90.0*
1,1,0.04048,0.03986,0.01624*
1,1,0.04048,0.03986,-0.01624*
1,1,0.04048,-0.03986,-0.01624*
1,1,0.04048,-0.03986,0.01624*
%
%ADD27ROUNDEDRECTD27*%
%ADD28C,0.14580*%
%ADD61R,0.06902X0.09068*%
G04:AMPARAMS|DCode=62|XSize=90.68mil|YSize=69.02mil|CornerRadius=19.26mil|HoleSize=0mil|Usage=FLASHONLY|Rotation=90.000|XOffset=0mil|YOffset=0mil|HoleType=Round|Shape=RoundedRectangle|*
%AMROUNDEDRECTD62*
21,1,0.09068,0.03051,0,0,90.0*
21,1,0.05217,0.06902,0,0,90.0*
1,1,0.03851,0.01526,0.02608*
1,1,0.03851,0.01526,-0.02608*
1,1,0.03851,-0.01526,-0.02608*
1,1,0.03851,-0.01526,0.02608*
%
%ADD62ROUNDEDRECTD62*%
%ADD63C,0.06706*%
%ADD64R,0.06706X0.06706*%
%ADD65R,0.03359X0.11233*%
G04:AMPARAMS|DCode=66|XSize=94.61mil|YSize=55.24mil|CornerRadius=15.81mil|HoleSize=0mil|Usage=FLASHONLY|Rotation=90.000|XOffset=0mil|YOffset=0mil|HoleType=Round|Shape=RoundedRectangle|*
%AMROUNDEDRECTD66*
21,1,0.09461,0.02362,0,0,90.0*
21,1,0.06299,0.05524,0,0,90.0*
1,1,0.03162,0.01181,0.03150*
1,1,0.03162,0.01181,-0.03150*
1,1,0.03162,-0.01181,-0.03150*
1,1,0.03162,-0.01181,0.03150*
%
%ADD66ROUNDEDRECTD66*%
G04:AMPARAMS|DCode=67|XSize=78.87mil|YSize=47.37mil|CornerRadius=13.84mil|HoleSize=0mil|Usage=FLASHONLY|Rotation=90.000|XOffset=0mil|YOffset=0mil|HoleType=Round|Shape=RoundedRectangle|*
%AMROUNDEDRECTD67*
21,1,0.07887,0.01968,0,0,90.0*
21,1,0.05118,0.04737,0,0,90.0*
1,1,0.02769,0.00984,0.02559*
1,1,0.02769,0.00984,-0.02559*
1,1,0.02769,-0.00984,-0.02559*
1,1,0.02769,-0.00984,0.02559*
%
%ADD67ROUNDEDRECTD67*%
G04:AMPARAMS|DCode=68|XSize=112.33mil|YSize=80.83mil|CornerRadius=22.21mil|HoleSize=0mil|Usage=FLASHONLY|Rotation=0.000|XOffset=0mil|YOffset=0mil|HoleType=Round|Shape=RoundedRectangle|*
%AMROUNDEDRECTD68*
21,1,0.11233,0.03642,0,0,0.0*
21,1,0.06791,0.08083,0,0,0.0*
1,1,0.04442,0.03396,-0.01821*
1,1,0.04442,-0.03396,-0.01821*
1,1,0.04442,-0.03396,0.01821*
1,1,0.04442,0.03396,0.01821*
%
%ADD68ROUNDEDRECTD68*%
%ADD69R,0.11233X0.08083*%
%ADD70R,0.04737X0.04737*%
%ADD71C,0.04737*%
G04:AMPARAMS|DCode=72|XSize=106.42mil|YSize=67.06mil|CornerRadius=18.76mil|HoleSize=0mil|Usage=FLASHONLY|Rotation=90.000|XOffset=0mil|YOffset=0mil|HoleType=Round|Shape=RoundedRectangle|*
%AMROUNDEDRECTD72*
21,1,0.10642,0.02953,0,0,90.0*
21,1,0.06890,0.06706,0,0,90.0*
1,1,0.03753,0.01476,0.03445*
1,1,0.03753,0.01476,-0.03445*
1,1,0.03753,-0.01476,-0.03445*
1,1,0.03753,-0.01476,0.03445*
%
%ADD72ROUNDEDRECTD72*%
D15*
X113000Y165949D02*
D03*
X135819Y90500D02*
D03*
X30000Y155500D02*
D03*
D16*
X123000Y165949D02*
D03*
X133000D02*
D03*
X143000D02*
D03*
Y197051D02*
D03*
X133000D02*
D03*
X123000D02*
D03*
X113000D02*
D03*
X121819Y90500D02*
D03*
X124094Y121000D02*
D03*
X135906D02*
D03*
X57528Y109000D02*
D03*
X18157D02*
D03*
X44000Y155500D02*
D03*
X39343Y52500D02*
D03*
X19657D02*
D03*
D17*
X137721Y55500D02*
D03*
D18*
X127878D02*
D03*
D19*
X81500Y191349D02*
D03*
D20*
Y177349D02*
D03*
X50500Y177500D02*
D03*
Y189311D02*
D03*
X23000Y177500D02*
D03*
Y189311D02*
D03*
X69000Y50393D02*
D03*
Y70866D02*
D03*
D21*
X143000Y151445D02*
D03*
D22*
Y141445D02*
D03*
D23*
X50764Y69669D02*
D03*
X21236Y78331D02*
D03*
D24*
X157645Y46618D02*
D03*
Y51539D02*
D03*
Y56461D02*
D03*
D25*
Y61382D02*
D03*
D26*
X165500Y93572D02*
D03*
Y126216D02*
D03*
D27*
Y83572D02*
D03*
Y116217D02*
D03*
D28*
X13780Y13780D02*
D03*
Y210630D02*
D03*
X175197Y13780D02*
D03*
Y210630D02*
D03*
D61*
X29016Y142311D02*
D03*
D62*
X44764D02*
D03*
X29016Y118689D02*
D03*
X44764D02*
D03*
D63*
X108634Y74578D02*
D03*
D64*
X140000Y74078D02*
D03*
D65*
X68713Y24500D02*
D03*
X40000D02*
D03*
D66*
X116972Y39500D02*
D03*
X129571D02*
D03*
X123799Y138000D02*
D03*
X111201D02*
D03*
X123799Y150500D02*
D03*
X111201D02*
D03*
X34299Y95000D02*
D03*
X21701D02*
D03*
X50799Y82000D02*
D03*
X38201D02*
D03*
D67*
X112127Y55500D02*
D03*
X120789D02*
D03*
X169669Y187000D02*
D03*
X178331D02*
D03*
X152169D02*
D03*
X160831D02*
D03*
X123169Y176500D02*
D03*
X131831D02*
D03*
Y187000D02*
D03*
X123169D02*
D03*
D68*
X171500Y168555D02*
D03*
X99500Y184555D02*
D03*
D69*
X171500Y150445D02*
D03*
X99500Y166445D02*
D03*
D70*
X9843Y194882D02*
D03*
D71*
X179134Y29528D02*
D03*
D72*
X68713Y14658D02*
D03*
Y34343D02*
D03*
X40000Y14658D02*
D03*
Y34343D02*
D03*
M02*
