G04*
G04 #@! TF.GenerationSoftware,Altium Limited,Altium Designer,18.1.7 (191)*
G04*
G04 Layer_Color=2752767*
%FSLAX25Y25*%
%MOIN*%
G70*
G01*
G75*
%ADD75C,0.00200*%
%ADD76C,0.00267*%
D75*
X67913Y13858D02*
Y15458D01*
X69513D01*
Y13858D01*
X67913D01*
Y33542D02*
Y35142D01*
X69513D01*
Y33542D01*
X67913D01*
X39200Y13858D02*
Y15458D01*
X40800D01*
Y13858D01*
X39200D01*
Y33542D02*
Y35142D01*
X40800D01*
Y33542D01*
X39200D01*
X137721Y54700D02*
X136920Y56300D01*
X138521D01*
X137721Y54700D01*
X127878D02*
X127078Y56300D01*
X128678D01*
X127878Y54700D01*
X135819Y89700D02*
X136219Y90100D01*
X136619D01*
X136219Y90500D01*
X136619Y90900D01*
X136219D01*
X135819Y91300D01*
X135419Y90900D01*
X135019D01*
X135419Y90500D01*
X135019Y90100D01*
X135419D01*
X135819Y89700D01*
X121819D02*
X122219Y90100D01*
X122619D01*
X122219Y90500D01*
X122619Y90900D01*
X122219D01*
X121819Y91300D01*
X121419Y90900D01*
X121019D01*
X121419Y90500D01*
X121019Y90100D01*
X121419D01*
X121819Y89700D01*
X81500Y190549D02*
X81900Y190949D01*
X82300D01*
X81900Y191349D01*
X82300Y191749D01*
X81900D01*
X81500Y192149D01*
X81100Y191749D01*
X80700D01*
X81100Y191349D01*
X80700Y190949D01*
X81100D01*
X81500Y190549D01*
Y176549D02*
X81900Y176949D01*
X82300D01*
X81900Y177349D01*
X82300Y177749D01*
X81900D01*
X81500Y178149D01*
X81100Y177749D01*
X80700D01*
X81100Y177349D01*
X80700Y176949D01*
X81100D01*
X81500Y176549D01*
X50500Y176700D02*
X50900Y177100D01*
X51300D01*
X50900Y177500D01*
X51300Y177900D01*
X50900D01*
X50500Y178300D01*
X50100Y177900D01*
X49700D01*
X50100Y177500D01*
X49700Y177100D01*
X50100D01*
X50500Y176700D01*
Y188511D02*
X50900Y188911D01*
X51300D01*
X50900Y189311D01*
X51300Y189711D01*
X50900D01*
X50500Y190111D01*
X50100Y189711D01*
X49700D01*
X50100Y189311D01*
X49700Y188911D01*
X50100D01*
X50500Y188511D01*
X23000Y176700D02*
X23400Y177100D01*
X23800D01*
X23400Y177500D01*
X23800Y177900D01*
X23400D01*
X23000Y178300D01*
X22600Y177900D01*
X22200D01*
X22600Y177500D01*
X22200Y177100D01*
X22600D01*
X23000Y176700D01*
Y188511D02*
X23400Y188911D01*
X23800D01*
X23400Y189311D01*
X23800Y189711D01*
X23400D01*
X23000Y190111D01*
X22600Y189711D01*
X22200D01*
X22600Y189311D01*
X22200Y188911D01*
X22600D01*
X23000Y188511D01*
X124094Y120200D02*
X124494Y120600D01*
X124894D01*
X124494Y121000D01*
X124894Y121400D01*
X124494D01*
X124094Y121800D01*
X123694Y121400D01*
X123294D01*
X123694Y121000D01*
X123294Y120600D01*
X123694D01*
X124094Y120200D01*
X135906D02*
X136306Y120600D01*
X136706D01*
X136306Y121000D01*
X136706Y121400D01*
X136306D01*
X135906Y121800D01*
X135506Y121400D01*
X135106D01*
X135506Y121000D01*
X135106Y120600D01*
X135506D01*
X135906Y120200D01*
X142200Y150645D02*
X142600Y151445D01*
X142200Y152245D01*
X143000Y151845D01*
X143800Y152245D01*
X143400Y151445D01*
X143800Y150645D01*
X143000Y151045D01*
X142200Y150645D01*
Y140645D02*
X142600Y141445D01*
X142200Y142245D01*
X143000Y141845D01*
X143800Y142245D01*
X143400Y141445D01*
X143800Y140645D01*
X143000Y141045D01*
X142200Y140645D01*
X69000Y49593D02*
X69400Y49993D01*
X69800D01*
X69400Y50393D01*
X69800Y50793D01*
X69400D01*
X69000Y51193D01*
X68600Y50793D01*
X68200D01*
X68600Y50393D01*
X68200Y49993D01*
X68600D01*
X69000Y49593D01*
Y70066D02*
X69400Y70466D01*
X69800D01*
X69400Y70866D01*
X69800Y71266D01*
X69400D01*
X69000Y71666D01*
X68600Y71266D01*
X68200D01*
X68600Y70866D01*
X68200Y70466D01*
X68600D01*
X69000Y70066D01*
X57528Y108200D02*
X57928Y108600D01*
X58328D01*
X57928Y109000D01*
X58328Y109400D01*
X57928D01*
X57528Y109800D01*
X57128Y109400D01*
X56728D01*
X57128Y109000D01*
X56728Y108600D01*
X57128D01*
X57528Y108200D01*
X18157D02*
X18557Y108600D01*
X18957D01*
X18557Y109000D01*
X18957Y109400D01*
X18557D01*
X18157Y109800D01*
X17757Y109400D01*
X17357D01*
X17757Y109000D01*
X17357Y108600D01*
X17757D01*
X18157Y108200D01*
X30000Y154700D02*
X30400Y155100D01*
X30800D01*
X30400Y155500D01*
X30800Y155900D01*
X30400D01*
X30000Y156300D01*
X29600Y155900D01*
X29200D01*
X29600Y155500D01*
X29200Y155100D01*
X29600D01*
X30000Y154700D01*
X44000D02*
X44400Y155100D01*
X44800D01*
X44400Y155500D01*
X44800Y155900D01*
X44400D01*
X44000Y156300D01*
X43600Y155900D01*
X43200D01*
X43600Y155500D01*
X43200Y155100D01*
X43600D01*
X44000Y154700D01*
X39343Y51700D02*
X39743Y52100D01*
X40143D01*
X39743Y52500D01*
X40143Y52900D01*
X39743D01*
X39343Y53300D01*
X38943Y52900D01*
X38543D01*
X38943Y52500D01*
X38543Y52100D01*
X38943D01*
X39343Y51700D01*
X19657D02*
X20057Y52100D01*
X20457D01*
X20057Y52500D01*
X20457Y52900D01*
X20057D01*
X19657Y53300D01*
X19257Y52900D01*
X18857D01*
X19257Y52500D01*
X18857Y52100D01*
X19257D01*
X19657Y51700D01*
X156851Y46218D02*
Y45818D01*
X157651D01*
Y46218D01*
X158051D01*
Y47018D01*
X157651D01*
Y47418D01*
X156851D01*
Y47018D01*
X156451D01*
Y46218D01*
X156851D01*
Y51139D02*
Y50739D01*
X157651D01*
Y51139D01*
X158051D01*
Y51939D01*
X157651D01*
Y52339D01*
X156851D01*
Y51939D01*
X156451D01*
Y51139D01*
X156851D01*
Y56061D02*
Y55661D01*
X157651D01*
Y56061D01*
X158051D01*
Y56861D01*
X157651D01*
Y57261D01*
X156851D01*
Y56861D01*
X156451D01*
Y56061D01*
X156851D01*
Y60982D02*
Y60582D01*
X157651D01*
Y60982D01*
X158051D01*
Y61782D01*
X157651D01*
Y62182D01*
X156851D01*
Y61782D01*
X156451D01*
Y60982D01*
X156851D01*
X164700Y92772D02*
X165100D01*
X165500Y93172D01*
X165900Y92772D01*
X166300D01*
Y93172D01*
X165900Y93572D01*
X166300Y93972D01*
Y94372D01*
X165900D01*
X165500Y93972D01*
X165100Y94372D01*
X164700D01*
Y93972D01*
X165100Y93572D01*
X164700Y93172D01*
Y92772D01*
Y82772D02*
X165100D01*
X165500Y83172D01*
X165900Y82772D01*
X166300D01*
Y83172D01*
X165900Y83572D01*
X166300Y83972D01*
Y84372D01*
X165900D01*
X165500Y83972D01*
X165100Y84372D01*
X164700D01*
Y83972D01*
X165100Y83572D01*
X164700Y83172D01*
Y82772D01*
Y115417D02*
X165100D01*
X165500Y115816D01*
X165900Y115417D01*
X166300D01*
Y115816D01*
X165900Y116217D01*
X166300Y116616D01*
Y117016D01*
X165900D01*
X165500Y116616D01*
X165100Y117016D01*
X164700D01*
Y116616D01*
X165100Y116217D01*
X164700Y115816D01*
Y115417D01*
Y125417D02*
X165100D01*
X165500Y125817D01*
X165900Y125417D01*
X166300D01*
Y125817D01*
X165900Y126216D01*
X166300Y126617D01*
Y127016D01*
X165900D01*
X165500Y126617D01*
X165100Y127016D01*
X164700D01*
Y126617D01*
X165100Y126216D01*
X164700Y125817D01*
Y125417D01*
X12980Y13780D02*
X13780Y14580D01*
X14580Y13780D01*
X13780Y12980D01*
X12980Y13780D01*
Y210630D02*
X13780Y211430D01*
X14580Y210630D01*
X13780Y209830D01*
X12980Y210630D01*
X174397Y13780D02*
X175197Y14580D01*
X175997Y13780D01*
X175197Y12980D01*
X174397Y13780D01*
Y210630D02*
X175197Y211430D01*
X175997Y210630D01*
X175197Y209830D01*
X174397Y210630D01*
D76*
X113800Y165949D02*
G03*
X113800Y165949I-800J0D01*
G01*
X123800D02*
G03*
X123800Y165949I-800J0D01*
G01*
X133800D02*
G03*
X133800Y165949I-800J0D01*
G01*
X143800D02*
G03*
X143800Y165949I-800J0D01*
G01*
Y197051D02*
G03*
X143800Y197051I-800J0D01*
G01*
X133800D02*
G03*
X133800Y197051I-800J0D01*
G01*
X123800D02*
G03*
X123800Y197051I-800J0D01*
G01*
X113800D02*
G03*
X113800Y197051I-800J0D01*
G01*
X51564Y69669D02*
G03*
X51564Y69669I-800J0D01*
G01*
X22036Y78331D02*
G03*
X22036Y78331I-800J0D01*
G01*
M02*
