G04*
G04 #@! TF.GenerationSoftware,Altium Limited,Altium Designer,18.1.7 (191)*
G04*
G04 Layer_Color=32896*
%FSLAX25Y25*%
%MOIN*%
G70*
G01*
G75*
%ADD10C,0.00787*%
%ADD12C,0.01000*%
%ADD73C,0.00315*%
G36*
X19848Y119712D02*
X19950Y119706D01*
X20049Y119691D01*
X20136Y119672D01*
X20176Y119660D01*
X20213Y119648D01*
X20247Y119635D01*
X20278Y119623D01*
X20302Y119614D01*
X20327Y119604D01*
X20343Y119595D01*
X20355Y119589D01*
X20364Y119586D01*
X20367Y119583D01*
X20451Y119530D01*
X20522Y119468D01*
X20584Y119406D01*
X20636Y119345D01*
X20676Y119289D01*
X20692Y119264D01*
X20704Y119243D01*
X20717Y119227D01*
X20723Y119215D01*
X20726Y119206D01*
X20729Y119203D01*
X20772Y119107D01*
X20803Y119008D01*
X20825Y118909D01*
X20840Y118819D01*
X20846Y118779D01*
X20849Y118739D01*
X20852Y118708D01*
Y118677D01*
X20855Y118656D01*
Y118637D01*
Y118625D01*
Y118622D01*
X20849Y118510D01*
X20837Y118402D01*
X20821Y118307D01*
X20809Y118260D01*
X20800Y118220D01*
X20791Y118183D01*
X20778Y118149D01*
X20769Y118118D01*
X20763Y118093D01*
X20754Y118075D01*
X20751Y118059D01*
X20744Y118050D01*
Y118047D01*
X20698Y117954D01*
X20645Y117871D01*
X20590Y117800D01*
X20562Y117772D01*
X20537Y117744D01*
X20513Y117719D01*
X20488Y117698D01*
X20466Y117679D01*
X20448Y117667D01*
X20435Y117655D01*
X20423Y117645D01*
X20417Y117642D01*
X20414Y117639D01*
X20370Y117614D01*
X20327Y117593D01*
X20234Y117559D01*
X20142Y117534D01*
X20052Y117518D01*
X20009Y117512D01*
X19972Y117506D01*
X19938Y117503D01*
X19910D01*
X19885Y117500D01*
X19851D01*
X19790Y117503D01*
X19731Y117509D01*
X19675Y117516D01*
X19623Y117528D01*
X19573Y117543D01*
X19527Y117559D01*
X19484Y117574D01*
X19443Y117593D01*
X19409Y117608D01*
X19375Y117624D01*
X19351Y117639D01*
X19326Y117655D01*
X19310Y117667D01*
X19295Y117673D01*
X19289Y117679D01*
X19286Y117682D01*
X19243Y117719D01*
X19206Y117756D01*
X19172Y117800D01*
X19138Y117843D01*
X19082Y117929D01*
X19039Y118016D01*
X19020Y118056D01*
X19005Y118093D01*
X18992Y118127D01*
X18983Y118155D01*
X18974Y118180D01*
X18968Y118198D01*
X18965Y118211D01*
Y118214D01*
X19249Y118285D01*
X19261Y118235D01*
X19277Y118189D01*
X19292Y118146D01*
X19308Y118106D01*
X19326Y118069D01*
X19344Y118038D01*
X19366Y118007D01*
X19385Y117979D01*
X19400Y117954D01*
X19419Y117936D01*
X19434Y117917D01*
X19446Y117902D01*
X19459Y117892D01*
X19468Y117883D01*
X19471Y117880D01*
X19474Y117877D01*
X19505Y117852D01*
X19539Y117834D01*
X19607Y117800D01*
X19672Y117775D01*
X19737Y117760D01*
X19793Y117747D01*
X19814Y117744D01*
X19836D01*
X19854Y117741D01*
X19876D01*
X19947Y117744D01*
X20015Y117756D01*
X20077Y117772D01*
X20132Y117790D01*
X20176Y117809D01*
X20194Y117818D01*
X20210Y117824D01*
X20222Y117831D01*
X20231Y117837D01*
X20237Y117840D01*
X20241D01*
X20299Y117883D01*
X20349Y117929D01*
X20392Y117982D01*
X20426Y118032D01*
X20454Y118075D01*
X20472Y118112D01*
X20479Y118127D01*
X20485Y118137D01*
X20488Y118143D01*
Y118146D01*
X20513Y118226D01*
X20531Y118307D01*
X20547Y118387D01*
X20556Y118461D01*
X20559Y118495D01*
X20562Y118526D01*
Y118554D01*
X20565Y118575D01*
Y118594D01*
Y118609D01*
Y118619D01*
Y118622D01*
X20562Y118702D01*
X20556Y118776D01*
X20543Y118844D01*
X20531Y118906D01*
X20522Y118958D01*
X20516Y118980D01*
X20509Y118999D01*
X20506Y119014D01*
X20503Y119023D01*
X20500Y119029D01*
Y119033D01*
X20469Y119104D01*
X20435Y119169D01*
X20398Y119221D01*
X20358Y119267D01*
X20324Y119305D01*
X20296Y119329D01*
X20275Y119345D01*
X20271Y119351D01*
X20268D01*
X20204Y119391D01*
X20132Y119422D01*
X20064Y119444D01*
X20000Y119456D01*
X19941Y119465D01*
X19916Y119468D01*
X19895D01*
X19879Y119471D01*
X19854D01*
X19777Y119468D01*
X19706Y119456D01*
X19647Y119437D01*
X19595Y119419D01*
X19555Y119397D01*
X19524Y119382D01*
X19505Y119369D01*
X19499Y119363D01*
X19450Y119317D01*
X19403Y119264D01*
X19366Y119209D01*
X19335Y119153D01*
X19310Y119104D01*
X19301Y119079D01*
X19295Y119060D01*
X19289Y119045D01*
X19283Y119033D01*
X19280Y119027D01*
Y119023D01*
X19002Y119088D01*
X19020Y119144D01*
X19039Y119193D01*
X19063Y119240D01*
X19085Y119286D01*
X19110Y119326D01*
X19138Y119363D01*
X19162Y119400D01*
X19187Y119431D01*
X19212Y119456D01*
X19233Y119481D01*
X19255Y119502D01*
X19270Y119518D01*
X19286Y119533D01*
X19298Y119543D01*
X19304Y119546D01*
X19308Y119549D01*
X19351Y119577D01*
X19394Y119604D01*
X19437Y119626D01*
X19484Y119644D01*
X19576Y119672D01*
X19660Y119691D01*
X19700Y119700D01*
X19734Y119703D01*
X19768Y119706D01*
X19796Y119709D01*
X19817Y119712D01*
X19848D01*
D02*
G37*
G36*
X22184Y119675D02*
X23000Y117537D01*
X22700D01*
X22468Y118186D01*
X21572D01*
X21322Y117537D01*
X21001D01*
X21875Y119675D01*
X22184D01*
D02*
G37*
G36*
X52848Y119712D02*
X52950Y119706D01*
X53049Y119691D01*
X53136Y119672D01*
X53176Y119660D01*
X53213Y119648D01*
X53247Y119635D01*
X53278Y119623D01*
X53302Y119614D01*
X53327Y119604D01*
X53343Y119595D01*
X53355Y119589D01*
X53364Y119586D01*
X53367Y119583D01*
X53451Y119530D01*
X53522Y119468D01*
X53584Y119406D01*
X53636Y119345D01*
X53676Y119289D01*
X53692Y119264D01*
X53704Y119243D01*
X53716Y119227D01*
X53723Y119215D01*
X53726Y119206D01*
X53729Y119203D01*
X53772Y119107D01*
X53803Y119008D01*
X53825Y118909D01*
X53840Y118819D01*
X53846Y118779D01*
X53849Y118739D01*
X53852Y118708D01*
Y118677D01*
X53856Y118656D01*
Y118637D01*
Y118625D01*
Y118622D01*
X53849Y118510D01*
X53837Y118402D01*
X53822Y118307D01*
X53809Y118260D01*
X53800Y118220D01*
X53791Y118183D01*
X53778Y118149D01*
X53769Y118118D01*
X53763Y118093D01*
X53754Y118075D01*
X53750Y118059D01*
X53744Y118050D01*
Y118047D01*
X53698Y117954D01*
X53645Y117871D01*
X53590Y117800D01*
X53562Y117772D01*
X53537Y117744D01*
X53513Y117719D01*
X53488Y117698D01*
X53466Y117679D01*
X53448Y117667D01*
X53435Y117655D01*
X53423Y117645D01*
X53417Y117642D01*
X53414Y117639D01*
X53370Y117614D01*
X53327Y117593D01*
X53234Y117559D01*
X53142Y117534D01*
X53052Y117518D01*
X53009Y117512D01*
X52972Y117506D01*
X52938Y117503D01*
X52910D01*
X52885Y117500D01*
X52851D01*
X52789Y117503D01*
X52731Y117509D01*
X52675Y117516D01*
X52623Y117528D01*
X52573Y117543D01*
X52527Y117559D01*
X52484Y117574D01*
X52443Y117593D01*
X52409Y117608D01*
X52375Y117624D01*
X52351Y117639D01*
X52326Y117655D01*
X52311Y117667D01*
X52295Y117673D01*
X52289Y117679D01*
X52286Y117682D01*
X52243Y117719D01*
X52205Y117756D01*
X52171Y117800D01*
X52138Y117843D01*
X52082Y117929D01*
X52039Y118016D01*
X52020Y118056D01*
X52005Y118093D01*
X51992Y118127D01*
X51983Y118155D01*
X51974Y118180D01*
X51968Y118198D01*
X51964Y118211D01*
Y118214D01*
X52249Y118285D01*
X52261Y118235D01*
X52276Y118189D01*
X52292Y118146D01*
X52307Y118106D01*
X52326Y118069D01*
X52345Y118038D01*
X52366Y118007D01*
X52385Y117979D01*
X52400Y117954D01*
X52419Y117936D01*
X52434Y117917D01*
X52447Y117902D01*
X52459Y117892D01*
X52468Y117883D01*
X52471Y117880D01*
X52474Y117877D01*
X52505Y117852D01*
X52539Y117834D01*
X52607Y117800D01*
X52672Y117775D01*
X52737Y117760D01*
X52793Y117747D01*
X52814Y117744D01*
X52836D01*
X52854Y117741D01*
X52876D01*
X52947Y117744D01*
X53015Y117756D01*
X53077Y117772D01*
X53132Y117790D01*
X53176Y117809D01*
X53194Y117818D01*
X53210Y117824D01*
X53222Y117831D01*
X53231Y117837D01*
X53237Y117840D01*
X53241D01*
X53299Y117883D01*
X53349Y117929D01*
X53392Y117982D01*
X53426Y118032D01*
X53454Y118075D01*
X53472Y118112D01*
X53479Y118127D01*
X53485Y118137D01*
X53488Y118143D01*
Y118146D01*
X53513Y118226D01*
X53531Y118307D01*
X53547Y118387D01*
X53556Y118461D01*
X53559Y118495D01*
X53562Y118526D01*
Y118554D01*
X53565Y118575D01*
Y118594D01*
Y118609D01*
Y118619D01*
Y118622D01*
X53562Y118702D01*
X53556Y118776D01*
X53543Y118844D01*
X53531Y118906D01*
X53522Y118958D01*
X53516Y118980D01*
X53509Y118999D01*
X53506Y119014D01*
X53503Y119023D01*
X53500Y119029D01*
Y119033D01*
X53469Y119104D01*
X53435Y119169D01*
X53398Y119221D01*
X53358Y119267D01*
X53324Y119305D01*
X53296Y119329D01*
X53275Y119345D01*
X53272Y119351D01*
X53268D01*
X53203Y119391D01*
X53132Y119422D01*
X53065Y119444D01*
X53000Y119456D01*
X52941Y119465D01*
X52916Y119468D01*
X52895D01*
X52879Y119471D01*
X52854D01*
X52777Y119468D01*
X52706Y119456D01*
X52647Y119437D01*
X52595Y119419D01*
X52555Y119397D01*
X52524Y119382D01*
X52505Y119369D01*
X52499Y119363D01*
X52450Y119317D01*
X52403Y119264D01*
X52366Y119209D01*
X52335Y119153D01*
X52311Y119104D01*
X52301Y119079D01*
X52295Y119060D01*
X52289Y119045D01*
X52283Y119033D01*
X52280Y119027D01*
Y119023D01*
X52002Y119088D01*
X52020Y119144D01*
X52039Y119193D01*
X52063Y119240D01*
X52085Y119286D01*
X52110Y119326D01*
X52138Y119363D01*
X52162Y119400D01*
X52187Y119431D01*
X52212Y119456D01*
X52233Y119481D01*
X52255Y119502D01*
X52270Y119518D01*
X52286Y119533D01*
X52298Y119543D01*
X52304Y119546D01*
X52307Y119549D01*
X52351Y119577D01*
X52394Y119604D01*
X52437Y119626D01*
X52484Y119644D01*
X52576Y119672D01*
X52660Y119691D01*
X52700Y119700D01*
X52734Y119703D01*
X52768Y119706D01*
X52796Y119709D01*
X52817Y119712D01*
X52848D01*
D02*
G37*
G36*
X55184Y119675D02*
X56000Y117537D01*
X55700D01*
X55468Y118186D01*
X54572D01*
X54322Y117537D01*
X54001D01*
X54875Y119675D01*
X55184D01*
D02*
G37*
%LPC*%
G36*
X22036Y119453D02*
X22014Y119382D01*
X21990Y119308D01*
X21965Y119234D01*
X21940Y119162D01*
X21928Y119132D01*
X21918Y119101D01*
X21909Y119073D01*
X21900Y119051D01*
X21894Y119033D01*
X21888Y119017D01*
X21884Y119008D01*
Y119005D01*
X21662Y118418D01*
X22385D01*
X22153Y119042D01*
X22126Y119119D01*
X22104Y119193D01*
X22082Y119261D01*
X22067Y119323D01*
X22054Y119376D01*
X22048Y119397D01*
X22045Y119419D01*
X22039Y119431D01*
Y119444D01*
X22036Y119450D01*
Y119453D01*
D02*
G37*
G36*
X55036D02*
X55014Y119382D01*
X54990Y119308D01*
X54965Y119234D01*
X54940Y119162D01*
X54928Y119132D01*
X54918Y119101D01*
X54909Y119073D01*
X54900Y119051D01*
X54894Y119033D01*
X54888Y119017D01*
X54884Y119008D01*
Y119005D01*
X54662Y118418D01*
X55385D01*
X55153Y119042D01*
X55125Y119119D01*
X55104Y119193D01*
X55082Y119261D01*
X55067Y119323D01*
X55054Y119376D01*
X55048Y119397D01*
X55045Y119419D01*
X55039Y119431D01*
Y119444D01*
X55036Y119450D01*
Y119453D01*
D02*
G37*
%LPD*%
D10*
X34514Y147426D02*
G03*
X39136Y147453I2308J503D01*
G01*
X24685Y113177D02*
Y147823D01*
X49095Y113177D02*
Y147823D01*
X24685Y113177D02*
X49095D01*
X24685Y147823D02*
X34514D01*
X39136D02*
X49095D01*
X123272Y35957D02*
Y37532D01*
X122091Y38319D02*
X123272Y37532D01*
Y41469D02*
Y43043D01*
Y41469D02*
X124453Y40681D01*
X122091Y39894D02*
X124453Y40681D01*
X122091Y39894D02*
X124453Y39106D01*
X122091Y38319D02*
X124453Y39106D01*
X133114Y33988D02*
Y45012D01*
X113429Y33988D02*
Y45012D01*
X133114D01*
X113429Y33988D02*
X133114D01*
X115277Y54319D02*
X117639Y55106D01*
X115277Y55893D02*
X117639Y55106D01*
X115277Y55893D02*
X117639Y56681D01*
X116458Y57468D02*
X117639Y56681D01*
X115277Y54319D02*
X116458Y53531D01*
X123938Y50775D02*
Y60224D01*
X108977Y50775D02*
X123938D01*
X108977D02*
Y60224D01*
X123938D01*
X116458Y57468D02*
Y59043D01*
Y51956D02*
Y53531D01*
X117500Y139969D02*
Y141543D01*
Y139969D02*
X118681Y139181D01*
X117500Y134457D02*
Y136031D01*
X116319Y136819D02*
X117500Y136031D01*
X116319Y136819D02*
X118681Y137606D01*
X116319Y138394D02*
X118681Y137606D01*
X116319Y138394D02*
X118681Y139181D01*
X107657Y132488D02*
Y143512D01*
X127343Y132488D02*
Y143512D01*
X107657Y132488D02*
X127343D01*
X107657Y143512D02*
X127343D01*
X117500Y152469D02*
Y154043D01*
Y152469D02*
X118681Y151681D01*
X117500Y146957D02*
Y148531D01*
X116319Y149319D02*
X117500Y148531D01*
X116319Y149319D02*
X118681Y150106D01*
X116319Y150894D02*
X118681Y150106D01*
X116319Y150894D02*
X118681Y151681D01*
X107657Y144988D02*
Y156012D01*
X127343Y144988D02*
Y156012D01*
X107657Y144988D02*
X127343D01*
X107657Y156012D02*
X127343D01*
X172819Y185819D02*
X175181Y186606D01*
X172819Y187394D02*
X175181Y186606D01*
X172819Y187394D02*
X175181Y188181D01*
X174000Y188969D02*
X175181Y188181D01*
X172819Y185819D02*
X174000Y185032D01*
X181480Y182276D02*
Y191724D01*
X166520Y182276D02*
X181480D01*
X166520D02*
Y191724D01*
X181480D01*
X174000Y188969D02*
Y190543D01*
Y183457D02*
Y185032D01*
X155319Y185819D02*
X157681Y186606D01*
X155319Y187394D02*
X157681Y186606D01*
X155319Y187394D02*
X157681Y188181D01*
X156500Y188969D02*
X157681Y188181D01*
X155319Y185819D02*
X156500Y185032D01*
X163980Y182276D02*
Y191724D01*
X149020Y182276D02*
X163980D01*
X149020D02*
Y191724D01*
X163980D01*
X156500Y188969D02*
Y190543D01*
Y183457D02*
Y185032D01*
X126319Y175319D02*
X128681Y176106D01*
X126319Y176894D02*
X128681Y176106D01*
X126319Y176894D02*
X128681Y177681D01*
X127500Y178469D02*
X128681Y177681D01*
X126319Y175319D02*
X127500Y174532D01*
X134980Y171776D02*
Y181224D01*
X120020Y171776D02*
X134980D01*
X120020D02*
Y181224D01*
X134980D01*
X127500Y178469D02*
Y180043D01*
Y172957D02*
Y174532D01*
X134980Y191331D02*
Y191724D01*
X120020D02*
X134980D01*
Y182276D02*
Y191331D01*
X120020Y182276D02*
X134980D01*
X120020D02*
Y191724D01*
X127500Y183500D02*
Y186000D01*
Y188000D02*
Y190500D01*
X126713Y188000D02*
X128287D01*
X126713Y186000D02*
X128287D01*
X167000Y157500D02*
X171500Y162000D01*
X167000Y157500D02*
X176000D01*
X171500Y162000D02*
X176000Y157500D01*
X167000Y162000D02*
X176000D01*
X176618Y140768D02*
Y144374D01*
X174650Y142606D02*
X178587D01*
X95000Y173500D02*
X99500Y178000D01*
X95000Y173500D02*
X104000D01*
X99500Y178000D02*
X104000Y173500D01*
X95000Y178000D02*
X104000D01*
X104618Y156768D02*
Y160374D01*
X102650Y158606D02*
X106587D01*
X28000Y96969D02*
Y98543D01*
Y96969D02*
X29181Y96181D01*
X28000Y91457D02*
Y93031D01*
X26819Y93819D02*
X28000Y93031D01*
X26819Y93819D02*
X29181Y94606D01*
X26819Y95394D02*
X29181Y94606D01*
X26819Y95394D02*
X29181Y96181D01*
X18157Y89488D02*
Y100512D01*
X37843Y89488D02*
Y100512D01*
X18157Y89488D02*
X37843D01*
X18157Y100512D02*
X37843D01*
X44500Y83969D02*
Y85543D01*
Y83969D02*
X45681Y83181D01*
X44500Y78457D02*
Y80031D01*
X43319Y80819D02*
X44500Y80031D01*
X43319Y80819D02*
X45681Y81606D01*
X43319Y82394D02*
X45681Y81606D01*
X43319Y82394D02*
X45681Y83181D01*
X34657Y76488D02*
Y87512D01*
X54343Y76488D02*
Y87512D01*
X34657Y76488D02*
X54343D01*
X34657Y87512D02*
X54343D01*
D12*
X164500Y145500D02*
X178500D01*
X164500D02*
Y175000D01*
X178500Y145500D02*
Y175000D01*
X164500D02*
X178500D01*
X164500Y173500D02*
X178500D01*
X92500Y161500D02*
X106500D01*
X92500D02*
Y191000D01*
X106500Y161500D02*
Y191000D01*
X92500D02*
X106500D01*
X92500Y189500D02*
X106500D01*
X66500Y134498D02*
Y128500D01*
X63501D01*
X62501Y129500D01*
Y130499D01*
X63501Y131499D01*
X66500D01*
X63501D01*
X62501Y132499D01*
Y133498D01*
X63501Y134498D01*
X66500D01*
X60502Y128500D02*
Y134498D01*
X57503D01*
X56503Y133498D01*
Y131499D01*
X57503Y130499D01*
X60502D01*
X58503D02*
X56503Y128500D01*
X54504D02*
X52504D01*
X53504D01*
Y134498D01*
X54504Y133498D01*
X125500Y62500D02*
Y68498D01*
X122501D01*
X121501Y67498D01*
Y65499D01*
X122501Y64499D01*
X125500D01*
X123501D02*
X121501Y62500D01*
X119502Y63500D02*
X118502Y62500D01*
X116503D01*
X115503Y63500D01*
Y67498D01*
X116503Y68498D01*
X118502D01*
X119502Y67498D01*
Y66499D01*
X118502Y65499D01*
X115503D01*
X146473Y37000D02*
Y42998D01*
X143473D01*
X142474Y41998D01*
Y39999D01*
X143473Y38999D01*
X146473D01*
X144473D02*
X142474Y37000D01*
X140474Y41998D02*
X139475Y42998D01*
X137475D01*
X136476Y41998D01*
Y40999D01*
X137475Y39999D01*
X136476Y38999D01*
Y38000D01*
X137475Y37000D01*
X139475D01*
X140474Y38000D01*
Y38999D01*
X139475Y39999D01*
X140474Y40999D01*
Y41998D01*
X139475Y39999D02*
X137475D01*
X104500Y136031D02*
Y142030D01*
X101501D01*
X100501Y141030D01*
Y139031D01*
X101501Y138031D01*
X104500D01*
X102501D02*
X100501Y136031D01*
X98502Y142030D02*
X94503D01*
Y141030D01*
X98502Y137031D01*
Y136031D01*
X104587Y148500D02*
Y154498D01*
X101588D01*
X100588Y153498D01*
Y151499D01*
X101588Y150499D01*
X104587D01*
X102587D02*
X100588Y148500D01*
X94590Y154498D02*
X96589Y153498D01*
X98589Y151499D01*
Y149500D01*
X97589Y148500D01*
X95590D01*
X94590Y149500D01*
Y150499D01*
X95590Y151499D01*
X98589D01*
X180000Y194000D02*
Y199998D01*
X177001D01*
X176001Y198998D01*
Y196999D01*
X177001Y195999D01*
X180000D01*
X178001D02*
X176001Y194000D01*
X170003Y199998D02*
X174002D01*
Y196999D01*
X172003Y197999D01*
X171003D01*
X170003Y196999D01*
Y195000D01*
X171003Y194000D01*
X173002D01*
X174002Y195000D01*
X162000Y194000D02*
Y199998D01*
X159001D01*
X158001Y198998D01*
Y196999D01*
X159001Y195999D01*
X162000D01*
X160001D02*
X158001Y194000D01*
X153003D02*
Y199998D01*
X156002Y196999D01*
X152003D01*
X147039Y173646D02*
Y179644D01*
X144040D01*
X143041Y178644D01*
Y176645D01*
X144040Y175645D01*
X147039D01*
X145040D02*
X143041Y173646D01*
X141041Y178644D02*
X140041Y179644D01*
X138042D01*
X137042Y178644D01*
Y177644D01*
X138042Y176645D01*
X139042D01*
X138042D01*
X137042Y175645D01*
Y174645D01*
X138042Y173646D01*
X140041D01*
X141041Y174645D01*
X37200Y103900D02*
Y109898D01*
X34201D01*
X33201Y108898D01*
Y106899D01*
X34201Y105899D01*
X37200D01*
X35201D02*
X33201Y103900D01*
X27203D02*
X31202D01*
X27203Y107899D01*
Y108898D01*
X28203Y109898D01*
X30202D01*
X31202Y108898D01*
X53700Y90900D02*
Y96898D01*
X50701D01*
X49701Y95898D01*
Y93899D01*
X50701Y92899D01*
X53700D01*
X51701D02*
X49701Y90900D01*
X47702D02*
X45703D01*
X46702D01*
Y96898D01*
X47702Y95898D01*
X161500Y173998D02*
Y168000D01*
X158501D01*
X157501Y169000D01*
Y172998D01*
X158501Y173998D01*
X161500D01*
X151503Y168000D02*
X155502D01*
X151503Y171999D01*
Y172998D01*
X152503Y173998D01*
X154502D01*
X155502Y172998D01*
X103500Y199401D02*
Y193403D01*
X100501D01*
X99501Y194403D01*
Y198401D01*
X100501Y199401D01*
X103500D01*
X97502Y193403D02*
X95503D01*
X96502D01*
Y199401D01*
X97502Y198401D01*
X143041Y189144D02*
X144040Y190144D01*
X146040D01*
X147039Y189144D01*
Y185145D01*
X146040Y184146D01*
X144040D01*
X143041Y185145D01*
X141041Y189144D02*
X140041Y190144D01*
X138042D01*
X137042Y189144D01*
Y188144D01*
X138042Y187145D01*
X139042D01*
X138042D01*
X137042Y186145D01*
Y185145D01*
X138042Y184146D01*
X140041D01*
X141041Y185145D01*
D73*
X19789Y142794D02*
X22488D01*
X21139Y141445D02*
Y144144D01*
X54266Y142340D02*
X51567D01*
M02*
