G04*
G04 #@! TF.GenerationSoftware,Altium Limited,Altium Designer,18.1.7 (191)*
G04*
G04 Layer_Color=128*
%FSLAX25Y25*%
%MOIN*%
G70*
G01*
G75*
%ADD75C,0.00200*%
D75*
X66941Y14658D02*
X70484D01*
X68713Y12886D02*
Y16429D01*
X66941Y34343D02*
X70484D01*
X68713Y32571D02*
Y36114D01*
X38228Y14658D02*
X41772D01*
X40000Y12886D02*
Y16429D01*
X38228Y34343D02*
X41772D01*
X40000Y32571D02*
Y36114D01*
X111031Y165949D02*
X114969D01*
X113000Y163980D02*
Y167917D01*
X121031Y165949D02*
X124969D01*
X123000Y163980D02*
Y167917D01*
X131032Y165949D02*
X134968D01*
X133000Y163980D02*
Y167917D01*
X141032Y165949D02*
X144968D01*
X143000Y163980D02*
Y167917D01*
X141032Y197051D02*
X144968D01*
X143000Y195083D02*
Y199020D01*
X131032Y197051D02*
X134968D01*
X133000Y195083D02*
Y199020D01*
X121031Y197051D02*
X124969D01*
X123000Y195083D02*
Y199020D01*
X111031Y197051D02*
X114969D01*
X113000Y195083D02*
Y199020D01*
X136047Y55500D02*
X139394D01*
X137721Y53827D02*
Y57173D01*
X126205Y55500D02*
X129551D01*
X127878Y53827D02*
Y57173D01*
X134146Y90500D02*
X137492D01*
X135819Y88827D02*
Y92173D01*
X120146Y90500D02*
X123492D01*
X121819Y88827D02*
Y92173D01*
X79827Y191349D02*
X83173D01*
X81500Y189676D02*
Y193022D01*
X79827Y177349D02*
X83173D01*
X81500Y175676D02*
Y179022D01*
X48827Y177500D02*
X52173D01*
X50500Y175827D02*
Y179173D01*
X48827Y189311D02*
X52173D01*
X50500Y187638D02*
Y190984D01*
X21327Y177500D02*
X24673D01*
X23000Y175827D02*
Y179173D01*
X21327Y189311D02*
X24673D01*
X23000Y187638D02*
Y190984D01*
X122421Y121000D02*
X125768D01*
X124094Y119327D02*
Y122673D01*
X134232Y121000D02*
X137579D01*
X135906Y119327D02*
Y122673D01*
X141524Y151445D02*
X144476D01*
X143000Y149968D02*
Y152921D01*
X141524Y141445D02*
X144476D01*
X143000Y139968D02*
Y142921D01*
X67327Y50393D02*
X70673D01*
X69000Y48720D02*
Y52067D01*
X67327Y70866D02*
X70673D01*
X69000Y69193D02*
Y72539D01*
X55854Y109000D02*
X59201D01*
X57528Y107327D02*
Y110673D01*
X16484Y109000D02*
X19831D01*
X18157Y107327D02*
Y110673D01*
X48795Y69669D02*
X52732D01*
X50764Y67701D02*
Y71638D01*
X19268Y78331D02*
X23205D01*
X21236Y76362D02*
Y80299D01*
X28327Y155500D02*
X31673D01*
X30000Y153827D02*
Y157173D01*
X42327Y155500D02*
X45673D01*
X44000Y153827D02*
Y157173D01*
X37670Y52500D02*
X41016D01*
X39343Y50827D02*
Y54173D01*
X17984Y52500D02*
X21330D01*
X19657Y50827D02*
Y54173D01*
X156267Y46618D02*
X158236D01*
X157251Y45634D02*
Y47602D01*
X156267Y51539D02*
X158236D01*
X157251Y50555D02*
Y52524D01*
X156267Y56461D02*
X158236D01*
X157251Y55476D02*
Y57445D01*
X156267Y61382D02*
X158236D01*
X157251Y60398D02*
Y62366D01*
X163138Y93572D02*
X167862D01*
X165500Y91210D02*
Y95934D01*
X163138Y83572D02*
X167862D01*
X165500Y81210D02*
Y85934D01*
X163138Y116217D02*
X167862D01*
X165500Y113854D02*
Y118579D01*
X163138Y126216D02*
X167862D01*
X165500Y123854D02*
Y128579D01*
X6890Y13780D02*
X20669D01*
X13780Y6890D02*
Y20669D01*
X6890Y210630D02*
X20669D01*
X13780Y203740D02*
Y217520D01*
X168307Y13780D02*
X182087D01*
X175197Y6890D02*
Y20669D01*
X168307Y210630D02*
X182087D01*
X175197Y203740D02*
Y217520D01*
M02*
