G04*
G04 #@! TF.GenerationSoftware,Altium Limited,Altium Designer,18.1.7 (191)*
G04*
G04 Layer_Physical_Order=2*
G04 Layer_Color=16711680*
%FSLAX25Y25*%
%MOIN*%
G70*
G01*
G75*
%ADD30R,0.05906X0.08661*%
G04:AMPARAMS|DCode=31|XSize=59.06mil|YSize=86.61mil|CornerRadius=14.76mil|HoleSize=0mil|Usage=FLASHONLY|Rotation=0.000|XOffset=0mil|YOffset=0mil|HoleType=Round|Shape=RoundedRectangle|*
%AMROUNDEDRECTD31*
21,1,0.05906,0.05709,0,0,0.0*
21,1,0.02953,0.08661,0,0,0.0*
1,1,0.02953,0.01476,-0.02854*
1,1,0.02953,-0.01476,-0.02854*
1,1,0.02953,-0.01476,0.02854*
1,1,0.02953,0.01476,0.02854*
%
%ADD31ROUNDEDRECTD31*%
%ADD32R,0.04724X0.07874*%
G04:AMPARAMS|DCode=33|XSize=47.24mil|YSize=78.74mil|CornerRadius=11.81mil|HoleSize=0mil|Usage=FLASHONLY|Rotation=180.000|XOffset=0mil|YOffset=0mil|HoleType=Round|Shape=RoundedRectangle|*
%AMROUNDEDRECTD33*
21,1,0.04724,0.05512,0,0,180.0*
21,1,0.02362,0.07874,0,0,180.0*
1,1,0.02362,-0.01181,0.02756*
1,1,0.02362,0.01181,0.02756*
1,1,0.02362,0.01181,-0.02756*
1,1,0.02362,-0.01181,-0.02756*
%
%ADD33ROUNDEDRECTD33*%
%ADD34R,0.08661X0.05906*%
G04:AMPARAMS|DCode=35|XSize=59.06mil|YSize=86.61mil|CornerRadius=14.76mil|HoleSize=0mil|Usage=FLASHONLY|Rotation=270.000|XOffset=0mil|YOffset=0mil|HoleType=Round|Shape=RoundedRectangle|*
%AMROUNDEDRECTD35*
21,1,0.05906,0.05709,0,0,270.0*
21,1,0.02953,0.08661,0,0,270.0*
1,1,0.02953,-0.02854,-0.01476*
1,1,0.02953,-0.02854,0.01476*
1,1,0.02953,0.02854,0.01476*
1,1,0.02953,0.02854,-0.01476*
%
%ADD35ROUNDEDRECTD35*%
%ADD36R,0.07874X0.04724*%
G04:AMPARAMS|DCode=37|XSize=47.24mil|YSize=78.74mil|CornerRadius=11.81mil|HoleSize=0mil|Usage=FLASHONLY|Rotation=90.000|XOffset=0mil|YOffset=0mil|HoleType=Round|Shape=RoundedRectangle|*
%AMROUNDEDRECTD37*
21,1,0.04724,0.05512,0,0,90.0*
21,1,0.02362,0.07874,0,0,90.0*
1,1,0.02362,0.02756,0.01181*
1,1,0.02362,0.02756,-0.01181*
1,1,0.02362,-0.02756,-0.01181*
1,1,0.02362,-0.02756,0.01181*
%
%ADD37ROUNDEDRECTD37*%
G04:AMPARAMS|DCode=38|XSize=112.21mil|YSize=64.96mil|CornerRadius=16.24mil|HoleSize=0mil|Usage=FLASHONLY|Rotation=180.000|XOffset=0mil|YOffset=0mil|HoleType=Round|Shape=RoundedRectangle|*
%AMROUNDEDRECTD38*
21,1,0.11221,0.03248,0,0,180.0*
21,1,0.07972,0.06496,0,0,180.0*
1,1,0.03248,-0.03986,0.01624*
1,1,0.03248,0.03986,0.01624*
1,1,0.03248,0.03986,-0.01624*
1,1,0.03248,-0.03986,-0.01624*
%
%ADD38ROUNDEDRECTD38*%
G04:AMPARAMS|DCode=39|XSize=29.53mil|YSize=78.74mil|CornerRadius=7.38mil|HoleSize=0mil|Usage=FLASHONLY|Rotation=90.000|XOffset=0mil|YOffset=0mil|HoleType=Round|Shape=RoundedRectangle|*
%AMROUNDEDRECTD39*
21,1,0.02953,0.06398,0,0,90.0*
21,1,0.01476,0.07874,0,0,90.0*
1,1,0.01476,0.03199,0.00738*
1,1,0.01476,0.03199,-0.00738*
1,1,0.01476,-0.03199,-0.00738*
1,1,0.01476,-0.03199,0.00738*
%
%ADD39ROUNDEDRECTD39*%
%ADD40R,0.07874X0.02953*%
%ADD41R,0.11221X0.06496*%
G04:AMPARAMS|DCode=42|XSize=64.96mil|YSize=112.21mil|CornerRadius=16.24mil|HoleSize=0mil|Usage=FLASHONLY|Rotation=90.000|XOffset=0mil|YOffset=0mil|HoleType=Round|Shape=RoundedRectangle|*
%AMROUNDEDRECTD42*
21,1,0.06496,0.07972,0,0,90.0*
21,1,0.03248,0.11221,0,0,90.0*
1,1,0.03248,0.03986,0.01624*
1,1,0.03248,0.03986,-0.01624*
1,1,0.03248,-0.03986,-0.01624*
1,1,0.03248,-0.03986,0.01624*
%
%ADD42ROUNDEDRECTD42*%
%ADD43C,0.13780*%
%ADD44C,0.00800*%
%ADD45R,0.06102X0.08268*%
G04:AMPARAMS|DCode=46|XSize=82.68mil|YSize=61.02mil|CornerRadius=15.26mil|HoleSize=0mil|Usage=FLASHONLY|Rotation=90.000|XOffset=0mil|YOffset=0mil|HoleType=Round|Shape=RoundedRectangle|*
%AMROUNDEDRECTD46*
21,1,0.08268,0.03051,0,0,90.0*
21,1,0.05217,0.06102,0,0,90.0*
1,1,0.03051,0.01526,0.02608*
1,1,0.03051,0.01526,-0.02608*
1,1,0.03051,-0.01526,-0.02608*
1,1,0.03051,-0.01526,0.02608*
%
%ADD46ROUNDEDRECTD46*%
%ADD47C,0.05906*%
%ADD48R,0.05906X0.05906*%
%ADD49R,0.02559X0.10433*%
G04:AMPARAMS|DCode=50|XSize=86.61mil|YSize=47.24mil|CornerRadius=11.81mil|HoleSize=0mil|Usage=FLASHONLY|Rotation=90.000|XOffset=0mil|YOffset=0mil|HoleType=Round|Shape=RoundedRectangle|*
%AMROUNDEDRECTD50*
21,1,0.08661,0.02362,0,0,90.0*
21,1,0.06299,0.04724,0,0,90.0*
1,1,0.02362,0.01181,0.03150*
1,1,0.02362,0.01181,-0.03150*
1,1,0.02362,-0.01181,-0.03150*
1,1,0.02362,-0.01181,0.03150*
%
%ADD50ROUNDEDRECTD50*%
G04:AMPARAMS|DCode=51|XSize=70.87mil|YSize=39.37mil|CornerRadius=9.84mil|HoleSize=0mil|Usage=FLASHONLY|Rotation=90.000|XOffset=0mil|YOffset=0mil|HoleType=Round|Shape=RoundedRectangle|*
%AMROUNDEDRECTD51*
21,1,0.07087,0.01968,0,0,90.0*
21,1,0.05118,0.03937,0,0,90.0*
1,1,0.01968,0.00984,0.02559*
1,1,0.01968,0.00984,-0.02559*
1,1,0.01968,-0.00984,-0.02559*
1,1,0.01968,-0.00984,0.02559*
%
%ADD51ROUNDEDRECTD51*%
G04:AMPARAMS|DCode=52|XSize=104.33mil|YSize=72.84mil|CornerRadius=18.21mil|HoleSize=0mil|Usage=FLASHONLY|Rotation=0.000|XOffset=0mil|YOffset=0mil|HoleType=Round|Shape=RoundedRectangle|*
%AMROUNDEDRECTD52*
21,1,0.10433,0.03642,0,0,0.0*
21,1,0.06791,0.07284,0,0,0.0*
1,1,0.03642,0.03396,-0.01821*
1,1,0.03642,-0.03396,-0.01821*
1,1,0.03642,-0.03396,0.01821*
1,1,0.03642,0.03396,0.01821*
%
%ADD52ROUNDEDRECTD52*%
%ADD53R,0.10433X0.07284*%
%ADD54R,0.03937X0.03937*%
%ADD55C,0.03937*%
%ADD56C,0.01575*%
%ADD57C,0.05906*%
%ADD58C,0.02953*%
%ADD59C,0.03937*%
G04:AMPARAMS|DCode=60|XSize=98.43mil|YSize=59.06mil|CornerRadius=14.76mil|HoleSize=0mil|Usage=FLASHONLY|Rotation=90.000|XOffset=0mil|YOffset=0mil|HoleType=Round|Shape=RoundedRectangle|*
%AMROUNDEDRECTD60*
21,1,0.09843,0.02953,0,0,90.0*
21,1,0.06890,0.05906,0,0,90.0*
1,1,0.02953,0.01476,0.03445*
1,1,0.02953,0.01476,-0.03445*
1,1,0.02953,-0.01476,-0.03445*
1,1,0.02953,-0.01476,0.03445*
%
%ADD60ROUNDEDRECTD60*%
G36*
X150500Y207000D02*
X150500Y196000D01*
X92597Y196000D01*
X84597Y188000D01*
X76000Y188000D01*
X65500Y198500D01*
X38295Y198500D01*
X31500Y191705D01*
X31500Y189354D01*
X29374Y187000D01*
X17850D01*
X15500Y189350D01*
X15500Y196000D01*
X31000Y211500D01*
X146000D01*
X150500Y207000D01*
D02*
G37*
G36*
X63295Y173995D02*
X63295Y140766D01*
X59029Y136500D01*
X42750Y136500D01*
X42580Y136749D01*
X42878Y137199D01*
X43238Y137128D01*
X43976D01*
Y142311D01*
Y147494D01*
X43238D01*
X42253Y147298D01*
X41500Y146795D01*
X41000Y146947D01*
Y150155D01*
X41441Y150391D01*
X41557Y150313D01*
X42524Y150121D01*
X43213D01*
Y155500D01*
Y160879D01*
X42524D01*
X41557Y160687D01*
X41441Y160609D01*
X41000Y160845D01*
Y180500D01*
X45155D01*
X45391Y180059D01*
X45313Y179943D01*
X45121Y178976D01*
Y178287D01*
X50500D01*
X55879D01*
Y178976D01*
X55687Y179943D01*
X55609Y180059D01*
X55845Y180500D01*
X56790D01*
X63295Y173995D01*
D02*
G37*
G36*
X32500Y160831D02*
X30787D01*
Y155500D01*
Y150169D01*
X32500D01*
Y147445D01*
X29803D01*
Y142311D01*
Y137177D01*
X32500D01*
Y136000D01*
X12000D01*
X7500Y140500D01*
X7500Y178000D01*
X10000Y180500D01*
X17655Y180500D01*
X17891Y180059D01*
X17813Y179943D01*
X17621Y178976D01*
Y178287D01*
X23000D01*
X28379D01*
Y178976D01*
X28187Y179943D01*
X28109Y180059D01*
X28345Y180500D01*
X32500Y180500D01*
Y160831D01*
D02*
G37*
G36*
X155500Y150106D02*
X147937D01*
Y150657D01*
X143000D01*
X138063D01*
Y150106D01*
X137087D01*
X137087Y156455D01*
X140500Y159868D01*
Y160263D01*
X141000Y160674D01*
X141524Y160570D01*
X142213D01*
Y165949D01*
Y171328D01*
X141524D01*
X141000Y171224D01*
X140500Y171634D01*
Y173032D01*
X142408Y174940D01*
X155500D01*
Y150106D01*
D02*
G37*
G36*
X149258Y190043D02*
X149162Y189559D01*
Y187787D01*
X152169D01*
Y187000D01*
X152957D01*
Y182418D01*
X153153D01*
X153928Y182572D01*
X154500Y182954D01*
X155000Y182801D01*
Y179059D01*
X141193D01*
X138000Y175866D01*
X138000Y161760D01*
X135607Y159368D01*
X130863Y159368D01*
X130500Y159705D01*
Y160263D01*
X131000Y160674D01*
X131524Y160570D01*
X132213D01*
Y165949D01*
Y171328D01*
X131524D01*
X131260Y171276D01*
X130896Y171574D01*
X131212Y171918D01*
X132815D01*
X133589Y172072D01*
X134246Y172510D01*
X134684Y173167D01*
X134838Y173941D01*
Y175713D01*
X131831D01*
Y176500D01*
X131043D01*
Y181082D01*
X130847D01*
X130500Y181367D01*
Y182133D01*
X130847Y182418D01*
X131043D01*
Y187000D01*
X131831D01*
Y187787D01*
X134838D01*
Y189559D01*
X134742Y190043D01*
X135099Y190543D01*
X148901Y190543D01*
X149258Y190043D01*
D02*
G37*
G36*
X120249Y190000D02*
X120162Y189559D01*
Y187787D01*
X123169D01*
Y187000D01*
X123957D01*
Y182418D01*
X124153D01*
X124500Y182133D01*
Y181367D01*
X124153Y181082D01*
X123957D01*
Y176500D01*
X123169D01*
Y175713D01*
X120162D01*
Y173941D01*
X120316Y173167D01*
X120754Y172510D01*
X121411Y172072D01*
X122185Y171918D01*
X123764D01*
X124116Y171418D01*
X124084Y171328D01*
X123787D01*
Y165949D01*
Y160570D01*
X124476D01*
X124500Y160550D01*
Y159815D01*
X125970Y158500D01*
X127833D01*
X132500Y154500D01*
Y150025D01*
X135126Y146445D01*
X146000D01*
Y145050D01*
X145756Y144850D01*
X143787D01*
Y141445D01*
Y138040D01*
X145357D01*
X145564Y137540D01*
X144024Y136000D01*
X137126Y136000D01*
X129000Y127874D01*
X129000Y115354D01*
X128647Y115000D01*
X121093Y115000D01*
X119127Y116967D01*
X119127Y160316D01*
X118000Y161443D01*
X118000Y173295D01*
X113295Y178000D01*
X98983D01*
X96949Y179412D01*
X97098Y179889D01*
X98713D01*
Y183768D01*
X93259D01*
Y182734D01*
X93263Y182704D01*
X92826Y182432D01*
X92500Y182634D01*
X92500Y189500D01*
X93519Y190500D01*
X119872D01*
X120249Y190000D01*
D02*
G37*
G36*
X112500Y173646D02*
X114404Y171741D01*
X114213Y171280D01*
X113787D01*
Y165949D01*
Y160618D01*
X115492D01*
X115492Y130500D01*
X107500D01*
X106346Y131654D01*
X106346Y158366D01*
X107657Y159677D01*
X107657Y173646D01*
X112500Y173646D01*
D02*
G37*
G36*
X31000Y125185D02*
Y124175D01*
X30673Y123907D01*
X30500Y123872D01*
X29803D01*
Y118689D01*
Y113506D01*
X30541D01*
X30613Y113520D01*
X31000Y113203D01*
Y110035D01*
X26819Y106146D01*
X26861Y82585D01*
X26362Y82323D01*
X25907Y82511D01*
X25222Y82601D01*
X22024D01*
Y78331D01*
Y74060D01*
X25222D01*
X25907Y74150D01*
X26376Y74344D01*
X26877Y74092D01*
X26932Y43354D01*
X26579Y43000D01*
X7500Y43000D01*
X7500Y119000D01*
X13685Y125185D01*
X31000Y125185D01*
D02*
G37*
G36*
X39000Y102000D02*
Y90254D01*
X42500Y87573D01*
X42500Y75500D01*
X33500Y75500D01*
X33500Y86393D01*
X30000Y89343D01*
Y102000D01*
X39000Y102000D01*
D02*
G37*
G36*
X66000Y120000D02*
X66000Y99500D01*
X75349Y90151D01*
Y62992D01*
X49575D01*
X47630Y64937D01*
X47821Y65399D01*
X49976D01*
Y69669D01*
Y73940D01*
X46778D01*
X46093Y73850D01*
X45454Y73585D01*
X45287Y73457D01*
X44787Y73703D01*
Y109213D01*
X43067Y110933D01*
X43067Y110933D01*
X43067Y110933D01*
Y113365D01*
X43238Y113506D01*
X43976D01*
Y118689D01*
Y123872D01*
X43238D01*
X43067Y124013D01*
Y125185D01*
X52185Y125185D01*
X60205D01*
X66000Y120000D01*
D02*
G37*
G36*
X76500Y8476D02*
X76075Y8213D01*
X72600Y9950D01*
X72522Y10246D01*
X72714Y11213D01*
Y13870D01*
X68713D01*
X64711D01*
Y11213D01*
X64903Y10246D01*
X64890Y10195D01*
X60925Y8213D01*
X60500Y8476D01*
Y56630D01*
X76500Y56630D01*
X76500Y8476D01*
D02*
G37*
G36*
X48500Y56630D02*
Y7995D01*
X48068Y7743D01*
X43838Y10125D01*
X43809Y10246D01*
X44001Y11213D01*
Y13870D01*
X40000D01*
X35999D01*
Y11213D01*
X36166Y10373D01*
X31936Y7769D01*
X31500Y8013D01*
Y61811D01*
X43319D01*
X48500Y56630D01*
D02*
G37*
%LPC*%
G36*
X55879Y176713D02*
X51287D01*
Y173499D01*
X53354D01*
X54321Y173691D01*
X55140Y174238D01*
X55687Y175057D01*
X55879Y176024D01*
Y176713D01*
D02*
G37*
G36*
X49713D02*
X45121D01*
Y176024D01*
X45313Y175057D01*
X45860Y174238D01*
X46679Y173691D01*
X47646Y173499D01*
X49713D01*
Y176713D01*
D02*
G37*
G36*
X45476Y160879D02*
X44787D01*
Y156287D01*
X48001D01*
Y158354D01*
X47809Y159321D01*
X47262Y160140D01*
X46443Y160687D01*
X45476Y160879D01*
D02*
G37*
G36*
X48001Y154713D02*
X44787D01*
Y150121D01*
X45476D01*
X46443Y150313D01*
X47262Y150860D01*
X47809Y151679D01*
X48001Y152646D01*
Y154713D01*
D02*
G37*
G36*
X46289Y147494D02*
X45551D01*
Y143098D01*
X48864D01*
Y144919D01*
X48669Y145905D01*
X48110Y146740D01*
X47275Y147298D01*
X46289Y147494D01*
D02*
G37*
G36*
X48864Y141524D02*
X45551D01*
Y137128D01*
X46289D01*
X47275Y137324D01*
X48110Y137882D01*
X48669Y138717D01*
X48864Y139703D01*
Y141524D01*
D02*
G37*
G36*
X28379Y176713D02*
X23787D01*
Y173499D01*
X25854D01*
X26821Y173691D01*
X27640Y174238D01*
X28187Y175057D01*
X28379Y176024D01*
Y176713D01*
D02*
G37*
G36*
X22213D02*
X17621D01*
Y176024D01*
X17813Y175057D01*
X18360Y174238D01*
X19179Y173691D01*
X20146Y173499D01*
X22213D01*
Y176713D01*
D02*
G37*
G36*
X29213Y160831D02*
X26047D01*
Y156287D01*
X29213D01*
Y160831D01*
D02*
G37*
G36*
Y154713D02*
X26047D01*
Y150169D01*
X29213D01*
Y154713D01*
D02*
G37*
G36*
X28228Y147445D02*
X24965D01*
Y143098D01*
X28228D01*
Y147445D01*
D02*
G37*
G36*
Y141524D02*
X24965D01*
Y137177D01*
X28228D01*
Y141524D01*
D02*
G37*
G36*
X144476Y171328D02*
X143787D01*
Y166736D01*
X147001D01*
Y168803D01*
X146809Y169769D01*
X146262Y170589D01*
X145443Y171136D01*
X144476Y171328D01*
D02*
G37*
G36*
X147001Y165161D02*
X143787D01*
Y160570D01*
X144476D01*
X145443Y160762D01*
X146262Y161309D01*
X146809Y162128D01*
X147001Y163094D01*
Y165161D01*
D02*
G37*
G36*
X147937Y154807D02*
X143787D01*
Y152232D01*
X147937D01*
Y154807D01*
D02*
G37*
G36*
X142213D02*
X138063D01*
Y152232D01*
X142213D01*
Y154807D01*
D02*
G37*
G36*
X151382Y186213D02*
X149162D01*
Y184441D01*
X149316Y183667D01*
X149754Y183010D01*
X150411Y182572D01*
X151185Y182418D01*
X151382D01*
Y186213D01*
D02*
G37*
G36*
X134838D02*
X132618D01*
Y182418D01*
X132815D01*
X133589Y182572D01*
X134246Y183010D01*
X134684Y183667D01*
X134838Y184441D01*
Y186213D01*
D02*
G37*
G36*
X132815Y181082D02*
X132618D01*
Y177287D01*
X134838D01*
Y179059D01*
X134684Y179833D01*
X134246Y180490D01*
X133589Y180928D01*
X132815Y181082D01*
D02*
G37*
G36*
X134476Y171328D02*
X133787D01*
Y166736D01*
X137001D01*
Y168803D01*
X136809Y169769D01*
X136262Y170589D01*
X135443Y171136D01*
X134476Y171328D01*
D02*
G37*
G36*
X137001Y165161D02*
X133787D01*
Y160570D01*
X134476D01*
X135443Y160762D01*
X136262Y161309D01*
X136809Y162128D01*
X137001Y163094D01*
Y165161D01*
D02*
G37*
G36*
X102896Y189221D02*
X100287D01*
Y185343D01*
X105741D01*
Y186376D01*
X105644Y187112D01*
X105360Y187799D01*
X104908Y188388D01*
X104318Y188840D01*
X103632Y189124D01*
X102896Y189221D01*
D02*
G37*
G36*
X98713D02*
X96104D01*
X95368Y189124D01*
X94682Y188840D01*
X94093Y188388D01*
X93640Y187799D01*
X93356Y187112D01*
X93259Y186376D01*
Y185343D01*
X98713D01*
Y189221D01*
D02*
G37*
G36*
X122382Y186213D02*
X120162D01*
Y184441D01*
X120316Y183667D01*
X120754Y183010D01*
X121411Y182572D01*
X122185Y182418D01*
X122382D01*
Y186213D01*
D02*
G37*
G36*
X105741Y183768D02*
X100287D01*
Y179889D01*
X102896D01*
X103632Y179986D01*
X104318Y180270D01*
X104908Y180722D01*
X105360Y181312D01*
X105644Y181998D01*
X105741Y182734D01*
Y183768D01*
D02*
G37*
G36*
X122382Y181082D02*
X122185D01*
X121411Y180928D01*
X120754Y180490D01*
X120316Y179833D01*
X120162Y179059D01*
Y177287D01*
X122382D01*
Y181082D01*
D02*
G37*
G36*
X122213Y171328D02*
X121524D01*
X120557Y171136D01*
X119738Y170589D01*
X119191Y169769D01*
X118999Y168803D01*
Y166736D01*
X122213D01*
Y171328D01*
D02*
G37*
G36*
Y165161D02*
X118999D01*
Y163094D01*
X119191Y162128D01*
X119738Y161309D01*
X120557Y160762D01*
X121524Y160570D01*
X122213D01*
Y165161D01*
D02*
G37*
G36*
X124980Y155873D02*
X124587D01*
Y151287D01*
X127204D01*
Y153650D01*
X127035Y154501D01*
X126553Y155222D01*
X125831Y155704D01*
X124980Y155873D01*
D02*
G37*
G36*
X123012D02*
X122618D01*
X121767Y155704D01*
X121046Y155222D01*
X120564Y154501D01*
X120394Y153650D01*
Y151287D01*
X123012D01*
Y155873D01*
D02*
G37*
G36*
X127204Y149713D02*
X124587D01*
Y145127D01*
X124980D01*
X125831Y145296D01*
X126553Y145778D01*
X127035Y146499D01*
X127204Y147350D01*
Y149713D01*
D02*
G37*
G36*
X123012D02*
X120394D01*
Y147350D01*
X120564Y146499D01*
X121046Y145778D01*
X121767Y145296D01*
X122618Y145127D01*
X123012D01*
Y149713D01*
D02*
G37*
G36*
X142213Y144850D02*
X140244D01*
X139393Y144680D01*
X138672Y144198D01*
X138189Y143477D01*
X138020Y142626D01*
Y142232D01*
X142213D01*
Y144850D01*
D02*
G37*
G36*
X124980Y143373D02*
X124587D01*
Y138787D01*
X127204D01*
Y141150D01*
X127035Y142001D01*
X126553Y142722D01*
X125831Y143204D01*
X124980Y143373D01*
D02*
G37*
G36*
X123012D02*
X122618D01*
X121767Y143204D01*
X121046Y142722D01*
X120564Y142001D01*
X120394Y141150D01*
Y138787D01*
X123012D01*
Y143373D01*
D02*
G37*
G36*
X142213Y140657D02*
X138020D01*
Y140264D01*
X138189Y139413D01*
X138672Y138691D01*
X139393Y138209D01*
X140244Y138040D01*
X142213D01*
Y140657D01*
D02*
G37*
G36*
X127204Y137213D02*
X124587D01*
Y132627D01*
X124980D01*
X125831Y132796D01*
X126553Y133278D01*
X127035Y133999D01*
X127204Y134850D01*
Y137213D01*
D02*
G37*
G36*
X123012D02*
X120394D01*
Y134850D01*
X120564Y133999D01*
X121046Y133278D01*
X121767Y132796D01*
X122618Y132627D01*
X123012D01*
Y137213D01*
D02*
G37*
G36*
X125571Y126379D02*
X124882D01*
Y121787D01*
X128096D01*
Y123854D01*
X127903Y124821D01*
X127356Y125640D01*
X126537Y126187D01*
X125571Y126379D01*
D02*
G37*
G36*
X123307D02*
X122618D01*
X121652Y126187D01*
X120833Y125640D01*
X120285Y124821D01*
X120093Y123854D01*
Y121787D01*
X123307D01*
Y126379D01*
D02*
G37*
G36*
X128096Y120213D02*
X124882D01*
Y115621D01*
X125571D01*
X126537Y115813D01*
X127356Y116360D01*
X127903Y117179D01*
X128096Y118146D01*
Y120213D01*
D02*
G37*
G36*
X123307D02*
X120093D01*
Y118146D01*
X120285Y117179D01*
X120833Y116360D01*
X121652Y115813D01*
X122618Y115621D01*
X123307D01*
Y120213D01*
D02*
G37*
G36*
X112213Y171280D02*
X109047D01*
Y166736D01*
X112213D01*
Y171280D01*
D02*
G37*
G36*
Y165161D02*
X109047D01*
Y160618D01*
X112213D01*
Y165161D01*
D02*
G37*
G36*
X112382Y155873D02*
X111988D01*
Y151287D01*
X114606D01*
Y153650D01*
X114436Y154501D01*
X113954Y155222D01*
X113233Y155704D01*
X112382Y155873D01*
D02*
G37*
G36*
X110413D02*
X110020D01*
X109169Y155704D01*
X108447Y155222D01*
X107965Y154501D01*
X107796Y153650D01*
Y151287D01*
X110413D01*
Y155873D01*
D02*
G37*
G36*
X114606Y149713D02*
X111988D01*
Y145127D01*
X112382D01*
X113233Y145296D01*
X113954Y145778D01*
X114436Y146499D01*
X114606Y147350D01*
Y149713D01*
D02*
G37*
G36*
X110413D02*
X107796D01*
Y147350D01*
X107965Y146499D01*
X108447Y145778D01*
X109169Y145296D01*
X110020Y145127D01*
X110413D01*
Y149713D01*
D02*
G37*
G36*
X112382Y143373D02*
X111988D01*
Y138787D01*
X114606D01*
Y141150D01*
X114436Y142001D01*
X113954Y142722D01*
X113233Y143204D01*
X112382Y143373D01*
D02*
G37*
G36*
X110413D02*
X110020D01*
X109169Y143204D01*
X108447Y142722D01*
X107965Y142001D01*
X107796Y141150D01*
Y138787D01*
X110413D01*
Y143373D01*
D02*
G37*
G36*
X114606Y137213D02*
X111988D01*
Y132627D01*
X112382D01*
X113233Y132796D01*
X113954Y133278D01*
X114436Y133999D01*
X114606Y134850D01*
Y137213D01*
D02*
G37*
G36*
X110413D02*
X107796D01*
Y134850D01*
X107965Y133999D01*
X108447Y133278D01*
X109169Y132796D01*
X110020Y132627D01*
X110413D01*
Y137213D01*
D02*
G37*
G36*
X28228Y123872D02*
X27490D01*
X26505Y123676D01*
X25669Y123118D01*
X25111Y122283D01*
X24915Y121297D01*
Y119476D01*
X28228D01*
Y123872D01*
D02*
G37*
G36*
Y117902D02*
X24915D01*
Y116081D01*
X25111Y115095D01*
X25669Y114260D01*
X26505Y113702D01*
X27490Y113506D01*
X28228D01*
Y117902D01*
D02*
G37*
G36*
X19634Y114379D02*
X18945D01*
Y109787D01*
X22159D01*
Y111854D01*
X21967Y112821D01*
X21419Y113640D01*
X20600Y114187D01*
X19634Y114379D01*
D02*
G37*
G36*
X17370D02*
X16681D01*
X15715Y114187D01*
X14896Y113640D01*
X14348Y112821D01*
X14156Y111854D01*
Y109787D01*
X17370D01*
Y114379D01*
D02*
G37*
G36*
X22159Y108213D02*
X18945D01*
Y103621D01*
X19634D01*
X20600Y103813D01*
X21419Y104360D01*
X21967Y105179D01*
X22159Y106146D01*
Y108213D01*
D02*
G37*
G36*
X17370D02*
X14156D01*
Y106146D01*
X14348Y105179D01*
X14896Y104360D01*
X15715Y103813D01*
X16681Y103621D01*
X17370D01*
Y108213D01*
D02*
G37*
G36*
X22882Y100373D02*
X22488D01*
Y95787D01*
X25106D01*
Y98150D01*
X24936Y99001D01*
X24454Y99722D01*
X23733Y100204D01*
X22882Y100373D01*
D02*
G37*
G36*
X20913D02*
X20520D01*
X19669Y100204D01*
X18947Y99722D01*
X18465Y99001D01*
X18296Y98150D01*
Y95787D01*
X20913D01*
Y100373D01*
D02*
G37*
G36*
X25106Y94213D02*
X22488D01*
Y89627D01*
X22882D01*
X23733Y89796D01*
X24454Y90278D01*
X24936Y90999D01*
X25106Y91850D01*
Y94213D01*
D02*
G37*
G36*
X20913D02*
X18296D01*
Y91850D01*
X18465Y90999D01*
X18947Y90278D01*
X19669Y89796D01*
X20520Y89627D01*
X20913D01*
Y94213D01*
D02*
G37*
G36*
X20449Y82601D02*
X17250D01*
X16565Y82511D01*
X15927Y82247D01*
X15379Y81826D01*
X14958Y81278D01*
X14694Y80640D01*
X14603Y79955D01*
Y79118D01*
X20449D01*
Y82601D01*
D02*
G37*
G36*
Y77543D02*
X14603D01*
Y76707D01*
X14694Y76022D01*
X14958Y75384D01*
X15379Y74835D01*
X15927Y74415D01*
X16565Y74150D01*
X17250Y74060D01*
X20449D01*
Y77543D01*
D02*
G37*
G36*
X21134Y57879D02*
X20445D01*
Y53287D01*
X23659D01*
Y55354D01*
X23466Y56321D01*
X22919Y57140D01*
X22100Y57687D01*
X21134Y57879D01*
D02*
G37*
G36*
X18870D02*
X18181D01*
X17215Y57687D01*
X16396Y57140D01*
X15848Y56321D01*
X15656Y55354D01*
Y53287D01*
X18870D01*
Y57879D01*
D02*
G37*
G36*
X23659Y51713D02*
X20445D01*
Y47121D01*
X21134D01*
X22100Y47313D01*
X22919Y47860D01*
X23466Y48679D01*
X23659Y49646D01*
Y51713D01*
D02*
G37*
G36*
X18870D02*
X15656D01*
Y49646D01*
X15848Y48679D01*
X16396Y47860D01*
X17215Y47313D01*
X18181Y47121D01*
X18870D01*
Y51713D01*
D02*
G37*
G36*
X35480Y100373D02*
X35087D01*
Y95787D01*
X37704D01*
Y98150D01*
X37535Y99001D01*
X37053Y99722D01*
X36331Y100204D01*
X35480Y100373D01*
D02*
G37*
G36*
X33512D02*
X33118D01*
X32267Y100204D01*
X31546Y99722D01*
X31064Y99001D01*
X30894Y98150D01*
Y95787D01*
X33512D01*
Y100373D01*
D02*
G37*
G36*
X37704Y94213D02*
X35087D01*
Y89627D01*
X35480D01*
X36331Y89796D01*
X37053Y90278D01*
X37535Y90999D01*
X37704Y91850D01*
Y94213D01*
D02*
G37*
G36*
X33512D02*
X30894D01*
Y91850D01*
X31064Y90999D01*
X31546Y90278D01*
X32267Y89796D01*
X33118Y89627D01*
X33512D01*
Y94213D01*
D02*
G37*
G36*
X39382Y87373D02*
X38988D01*
Y82787D01*
X41606D01*
Y85150D01*
X41436Y86001D01*
X40954Y86722D01*
X40233Y87204D01*
X39382Y87373D01*
D02*
G37*
G36*
X37413D02*
X37020D01*
X36169Y87204D01*
X35447Y86722D01*
X34965Y86001D01*
X34796Y85150D01*
Y82787D01*
X37413D01*
Y87373D01*
D02*
G37*
G36*
X41606Y81213D02*
X38988D01*
Y76627D01*
X39382D01*
X40233Y76796D01*
X40954Y77278D01*
X41436Y77999D01*
X41606Y78850D01*
Y81213D01*
D02*
G37*
G36*
X37413D02*
X34796D01*
Y78850D01*
X34965Y77999D01*
X35447Y77278D01*
X36169Y76796D01*
X37020Y76627D01*
X37413D01*
Y81213D01*
D02*
G37*
G36*
X46289Y123872D02*
X45551D01*
Y119476D01*
X48864D01*
Y121297D01*
X48669Y122283D01*
X48110Y123118D01*
X47275Y123676D01*
X46289Y123872D01*
D02*
G37*
G36*
X48864Y117902D02*
X45551D01*
Y113506D01*
X46289D01*
X47275Y113702D01*
X48110Y114260D01*
X48669Y115095D01*
X48864Y116081D01*
Y117902D01*
D02*
G37*
G36*
X59004Y114379D02*
X58315D01*
Y109787D01*
X61529D01*
Y111854D01*
X61337Y112821D01*
X60789Y113640D01*
X59970Y114187D01*
X59004Y114379D01*
D02*
G37*
G36*
X56740D02*
X56051D01*
X55085Y114187D01*
X54266Y113640D01*
X53719Y112821D01*
X53526Y111854D01*
Y109787D01*
X56740D01*
Y114379D01*
D02*
G37*
G36*
X61529Y108213D02*
X58315D01*
Y103621D01*
X59004D01*
X59970Y103813D01*
X60789Y104360D01*
X61337Y105179D01*
X61529Y106146D01*
Y108213D01*
D02*
G37*
G36*
X56740D02*
X53526D01*
Y106146D01*
X53719Y105179D01*
X54266Y104360D01*
X55085Y103813D01*
X56051Y103621D01*
X56740D01*
Y108213D01*
D02*
G37*
G36*
X51980Y87373D02*
X51587D01*
Y82787D01*
X54204D01*
Y85150D01*
X54035Y86001D01*
X53553Y86722D01*
X52831Y87204D01*
X51980Y87373D01*
D02*
G37*
G36*
X50012D02*
X49618D01*
X48767Y87204D01*
X48046Y86722D01*
X47563Y86001D01*
X47394Y85150D01*
Y82787D01*
X50012D01*
Y87373D01*
D02*
G37*
G36*
X54204Y81213D02*
X51587D01*
Y76627D01*
X51980D01*
X52831Y76796D01*
X53553Y77278D01*
X54035Y77999D01*
X54204Y78850D01*
Y81213D01*
D02*
G37*
G36*
X50012D02*
X47394D01*
Y78850D01*
X47563Y77999D01*
X48046Y77278D01*
X48767Y76796D01*
X49618Y76627D01*
X50012D01*
Y81213D01*
D02*
G37*
G36*
X71854Y74867D02*
X69787D01*
Y71653D01*
X74379D01*
Y72342D01*
X74187Y73308D01*
X73640Y74128D01*
X72821Y74675D01*
X71854Y74867D01*
D02*
G37*
G36*
X68213D02*
X66146D01*
X65179Y74675D01*
X64360Y74128D01*
X63813Y73308D01*
X63621Y72342D01*
Y71653D01*
X68213D01*
Y74867D01*
D02*
G37*
G36*
X54750Y73940D02*
X51551D01*
Y70457D01*
X57397D01*
Y71293D01*
X57306Y71978D01*
X57042Y72616D01*
X56621Y73165D01*
X56073Y73585D01*
X55435Y73850D01*
X54750Y73940D01*
D02*
G37*
G36*
X74379Y70078D02*
X69787D01*
Y66865D01*
X71854D01*
X72821Y67057D01*
X73640Y67604D01*
X74187Y68423D01*
X74379Y69389D01*
Y70078D01*
D02*
G37*
G36*
X68213D02*
X63621D01*
Y69389D01*
X63813Y68423D01*
X64360Y67604D01*
X65179Y67057D01*
X66146Y66865D01*
X68213D01*
Y70078D01*
D02*
G37*
G36*
X57397Y68882D02*
X51551D01*
Y65399D01*
X54750D01*
X55435Y65489D01*
X56073Y65753D01*
X56621Y66174D01*
X57042Y66722D01*
X57306Y67360D01*
X57397Y68045D01*
Y68882D01*
D02*
G37*
G36*
X71854Y54395D02*
X69787D01*
Y51181D01*
X74379D01*
Y51870D01*
X74187Y52836D01*
X73640Y53655D01*
X72821Y54203D01*
X71854Y54395D01*
D02*
G37*
G36*
X68213D02*
X66146D01*
X65179Y54203D01*
X64360Y53655D01*
X63813Y52836D01*
X63621Y51870D01*
Y51181D01*
X68213D01*
Y54395D01*
D02*
G37*
G36*
X74379Y49606D02*
X69787D01*
Y46392D01*
X71854D01*
X72821Y46584D01*
X73640Y47132D01*
X74187Y47951D01*
X74379Y48917D01*
Y49606D01*
D02*
G37*
G36*
X68213D02*
X63621D01*
Y48917D01*
X63813Y47951D01*
X64360Y47132D01*
X65179Y46584D01*
X66146Y46392D01*
X68213D01*
Y49606D01*
D02*
G37*
G36*
X70189Y40312D02*
X69500D01*
Y35130D01*
X72714D01*
Y37787D01*
X72522Y38754D01*
X71974Y39573D01*
X71155Y40120D01*
X70189Y40312D01*
D02*
G37*
G36*
X67925D02*
X67236D01*
X66270Y40120D01*
X65451Y39573D01*
X64903Y38754D01*
X64711Y37787D01*
Y35130D01*
X67925D01*
Y40312D01*
D02*
G37*
G36*
X72714Y33555D02*
X68713D01*
X64711D01*
Y30898D01*
X64903Y29931D01*
X65451Y29112D01*
X66270Y28565D01*
X66433Y28532D01*
Y25287D01*
X68713D01*
X70992D01*
Y28532D01*
X71155Y28565D01*
X71974Y29112D01*
X72522Y29931D01*
X72714Y30898D01*
Y33555D01*
D02*
G37*
G36*
X70992Y23713D02*
X68713D01*
X66433D01*
Y20468D01*
X66270Y20435D01*
X65451Y19888D01*
X64903Y19069D01*
X64711Y18102D01*
Y15445D01*
X68713D01*
X72714D01*
Y18102D01*
X72522Y19069D01*
X71974Y19888D01*
X71155Y20435D01*
X70992Y20468D01*
Y23713D01*
D02*
G37*
G36*
X40819Y57879D02*
X40130D01*
Y53287D01*
X43344D01*
Y55354D01*
X43152Y56321D01*
X42604Y57140D01*
X41785Y57687D01*
X40819Y57879D01*
D02*
G37*
G36*
X38555D02*
X37866D01*
X36900Y57687D01*
X36081Y57140D01*
X35534Y56321D01*
X35341Y55354D01*
Y53287D01*
X38555D01*
Y57879D01*
D02*
G37*
G36*
X43344Y51713D02*
X40130D01*
Y47121D01*
X40819D01*
X41785Y47313D01*
X42604Y47860D01*
X43152Y48679D01*
X43344Y49646D01*
Y51713D01*
D02*
G37*
G36*
X38555D02*
X35341D01*
Y49646D01*
X35534Y48679D01*
X36081Y47860D01*
X36900Y47313D01*
X37866Y47121D01*
X38555D01*
Y51713D01*
D02*
G37*
G36*
X41476Y40312D02*
X40787D01*
Y35130D01*
X44001D01*
Y37787D01*
X43809Y38754D01*
X43262Y39573D01*
X42443Y40120D01*
X41476Y40312D01*
D02*
G37*
G36*
X39213D02*
X38524D01*
X37557Y40120D01*
X36738Y39573D01*
X36191Y38754D01*
X35999Y37787D01*
Y35130D01*
X39213D01*
Y40312D01*
D02*
G37*
G36*
X44001Y33555D02*
X40000D01*
X35999D01*
Y30898D01*
X36191Y29931D01*
X36738Y29112D01*
X37557Y28565D01*
X37721Y28532D01*
Y25287D01*
X40000D01*
X42279D01*
Y28532D01*
X42443Y28565D01*
X43262Y29112D01*
X43809Y29931D01*
X44001Y30898D01*
Y33555D01*
D02*
G37*
G36*
X42279Y23713D02*
X40000D01*
X37721D01*
Y20468D01*
X37557Y20435D01*
X36738Y19888D01*
X36191Y19069D01*
X35999Y18102D01*
Y15445D01*
X40000D01*
X44001D01*
Y18102D01*
X43809Y19069D01*
X43262Y19888D01*
X42443Y20435D01*
X42279Y20468D01*
Y23713D01*
D02*
G37*
%LPD*%
D30*
X113000Y165949D02*
D03*
X135819Y90500D02*
D03*
X30000Y155500D02*
D03*
D31*
X123000Y165949D02*
D03*
X133000D02*
D03*
X143000D02*
D03*
Y197051D02*
D03*
X133000D02*
D03*
X123000D02*
D03*
X113000D02*
D03*
X121819Y90500D02*
D03*
X124094Y121000D02*
D03*
X135906D02*
D03*
X57528Y109000D02*
D03*
X18157D02*
D03*
X44000Y155500D02*
D03*
X39343Y52500D02*
D03*
X19657D02*
D03*
D32*
X137721Y55500D02*
D03*
D33*
X127878D02*
D03*
D34*
X81500Y191349D02*
D03*
D35*
Y177349D02*
D03*
X50500Y177500D02*
D03*
Y189311D02*
D03*
X23000Y177500D02*
D03*
Y189311D02*
D03*
X69000Y50393D02*
D03*
Y70866D02*
D03*
D36*
X143000Y151445D02*
D03*
D37*
Y141445D02*
D03*
D38*
X50764Y69669D02*
D03*
X21236Y78331D02*
D03*
D39*
X157645Y46618D02*
D03*
Y51539D02*
D03*
Y56461D02*
D03*
D40*
Y61382D02*
D03*
D41*
X165500Y93572D02*
D03*
Y126216D02*
D03*
D42*
Y83572D02*
D03*
Y116217D02*
D03*
D43*
X13780Y13780D02*
D03*
Y210630D02*
D03*
X175197Y13780D02*
D03*
Y210630D02*
D03*
D44*
X125809Y36350D02*
G03*
X128390Y33769I2581J0D01*
G01*
Y45231D02*
G03*
X125809Y42650I0J-2581D01*
G01*
X130752Y33769D02*
G03*
X133333Y36350I0J2581D01*
G01*
Y42650D02*
G03*
X130752Y45231I-2581J0D01*
G01*
X133500Y115424D02*
G03*
X134429Y115269I929J2722D01*
G01*
X137382D02*
G03*
X140258Y118146I0J2876D01*
G01*
Y123854D02*
G03*
X137382Y126731I-2876J0D01*
G01*
X111143Y60443D02*
G03*
X108759Y58059I0J-2384D01*
G01*
Y52941D02*
G03*
X111143Y50556I2384J0D01*
G01*
X112987Y74578D02*
G03*
X112987Y74578I-4353J0D01*
G01*
X55035Y185500D02*
G03*
X56231Y187835I-1680J2335D01*
G01*
X44769D02*
G03*
X45138Y186426I2876J0D01*
G01*
X47646Y193664D02*
G03*
X44769Y190787I0J-2876D01*
G01*
X56231D02*
G03*
X53354Y193664I-2876J0D01*
G01*
X75769Y175873D02*
G03*
X78646Y172996I2876J0D01*
G01*
Y181702D02*
G03*
X75769Y178826I0J-2876D01*
G01*
X84354Y172996D02*
G03*
X87231Y175873I0J2876D01*
G01*
Y178826D02*
G03*
X84354Y181702I-2876J0D01*
G01*
X113210Y36350D02*
G03*
X115791Y33769I2581J0D01*
G01*
X118154D02*
G03*
X119523Y34162I0J2581D01*
G01*
X115791Y45231D02*
G03*
X113210Y42650I0J-2581D01*
G01*
X119500Y44852D02*
G03*
X118154Y45231I-1346J-2202D01*
G01*
X113111Y50556D02*
G03*
X115496Y52941I0J2384D01*
G01*
Y58059D02*
G03*
X113111Y60443I-2384J0D01*
G01*
X152308Y55722D02*
G03*
X152380Y55172I2138J0D01*
G01*
X162910D02*
G03*
X162982Y55722I-2066J550D01*
G01*
X152464Y58000D02*
G03*
X152308Y57199I1982J-801D01*
G01*
X162982D02*
G03*
X162747Y58173I-2138J0D01*
G01*
X117466Y87646D02*
G03*
X120343Y84769I2876J0D01*
G01*
X123295D02*
G03*
X126172Y87646I0J2876D01*
G01*
X120343Y96231D02*
G03*
X117466Y93354I0J-2876D01*
G01*
X126172D02*
G03*
X123295Y96231I-2876J0D01*
G01*
X159410Y87368D02*
G03*
X158490Y85196I2104J-2172D01*
G01*
Y81948D02*
G03*
X161514Y78924I3024J0D01*
G01*
X169486D02*
G03*
X171424Y79627I0J3024D01*
G01*
X158918Y119392D02*
G03*
X158490Y117841I2596J-1552D01*
G01*
Y114593D02*
G03*
X161514Y111568I3024J0D01*
G01*
X169486D02*
G03*
X171424Y112271I0J3024D01*
G01*
X127122Y33584D02*
X127475Y33937D01*
X126405Y34386D02*
X127629Y33162D01*
X125000Y35957D02*
X127500Y33162D01*
X125000Y38143D02*
X125809Y38952D01*
X125000Y39131D02*
X125809Y38323D01*
X125545Y35347D02*
X125893Y35695D01*
X130041Y33162D02*
X130648Y33769D01*
X127500Y33162D02*
X132288D01*
X130362Y33769D02*
X130970Y33162D01*
X127122Y33584D02*
X127475Y33937D01*
X128390Y33769D02*
X130752D01*
X132753Y34719D02*
X133299Y34173D01*
X125000Y35957D02*
Y43512D01*
X125809Y36350D02*
Y42650D01*
X125000Y41484D02*
X125809Y42292D01*
X125000Y42472D02*
X125809Y41663D01*
X125000Y43512D02*
X129114Y47626D01*
X133333Y36350D02*
Y42650D01*
X126151Y44662D02*
X126455Y44358D01*
X127821Y46333D02*
X128923Y45231D01*
X128390D02*
X130752D01*
X128747D02*
X131142Y47626D01*
X132288Y33162D02*
X138500Y39374D01*
X129868Y47626D02*
X138310Y39184D01*
X129114Y47626D02*
X133500Y47626D01*
X133209D02*
X138500Y42335D01*
X133294Y43096D02*
X138500Y48302D01*
X133333Y37480D02*
X134969Y35843D01*
X133333Y40820D02*
X136640Y37514D01*
X133333Y36454D02*
X138500Y41621D01*
X133333Y39795D02*
X138500Y44962D01*
X134012Y50163D02*
X138500Y45675D01*
X133333Y39795D02*
X138500Y44962D01*
X138500Y39374D02*
X138500Y50163D01*
X133500Y47626D02*
Y84769D01*
X131845Y44988D02*
X137020Y50163D01*
X133500Y49984D02*
X133958Y50442D01*
X133500Y54016D02*
X133958Y53558D01*
X133500Y57357D02*
X133958Y56898D01*
X133500Y50675D02*
X133958Y50217D01*
X133500Y53324D02*
X133958Y53783D01*
Y50163D02*
Y60837D01*
Y50163D02*
X138500D01*
X137353D02*
X138500Y49016D01*
X133500Y56665D02*
X133958Y57123D01*
X133500Y60006D02*
X133958Y60464D01*
X133500Y60697D02*
X133958Y60239D01*
X133500Y67379D02*
X140042Y60837D01*
X133500Y66687D02*
X136539Y69726D01*
X133500Y70028D02*
X135647Y72175D01*
X133500Y64038D02*
X136701Y60837D01*
X133500Y63346D02*
X139879Y69726D01*
X133958Y60464D02*
X134331Y60837D01*
X133500Y74060D02*
X135647Y71913D01*
Y69726D02*
Y78431D01*
X133500Y73368D02*
X135647Y75516D01*
X133500Y77401D02*
X135647Y75253D01*
X133500Y80741D02*
X135810Y78431D01*
X133500Y84082D02*
X139151Y78431D01*
X133500Y97445D02*
X134714Y96231D01*
X133500Y80050D02*
X138220Y84769D01*
X133500Y83390D02*
X134879Y84769D01*
X133500Y96231D02*
Y115424D01*
Y100785D02*
X138055Y96231D01*
X133500Y113456D02*
X135313Y115269D01*
X134429D02*
X137382D01*
X136052Y126731D02*
X137382D01*
X136836Y127515D02*
X137631Y126720D01*
X133958Y60837D02*
X141483D01*
X134331D02*
X143220Y69726D01*
X133500Y70719D02*
X143719Y60500D01*
X133500Y84769D02*
X140172D01*
X133500Y96231D02*
X140172D01*
X133500Y76709D02*
X147500Y90709D01*
X133500Y104126D02*
X147500Y90126D01*
X135647Y69726D02*
X144353D01*
X137834D02*
X147060Y60500D01*
X137672Y60837D02*
X147500Y70665D01*
X135647Y78431D02*
X144353D01*
X136153Y84769D02*
X142491Y78431D01*
X133500Y110807D02*
X147500Y96807D01*
X133500Y107467D02*
X147500Y93467D01*
X133500Y96753D02*
X147500Y110753D01*
X133500Y100093D02*
X147500Y114093D01*
X133500Y114148D02*
X147500Y100148D01*
X133500Y103434D02*
X147500Y117434D01*
X133500Y110116D02*
X168788Y145403D01*
X135719Y115269D02*
X147500Y103489D01*
X136319Y96231D02*
X147500Y107412D01*
X133500Y106775D02*
X172128Y145403D01*
X136752Y126731D02*
X141522Y131500D01*
X136052Y126731D02*
X140822Y131500D01*
X141483Y59995D02*
Y60837D01*
X139494Y84769D02*
X147500Y76763D01*
X138563Y78431D02*
X147500Y87368D01*
X140172Y87432D02*
X147500Y80104D01*
X141483Y59995D02*
X141988Y60500D01*
X144353Y70858D02*
X147500Y74006D01*
X144353Y69726D02*
Y78431D01*
Y77540D02*
X147500Y80687D01*
X141904Y78431D02*
X147500Y84028D01*
X144353Y76570D02*
X147500Y73423D01*
X144353Y74199D02*
X147500Y77346D01*
X140172Y84769D02*
Y88324D01*
Y86721D02*
X147500Y94050D01*
X140172Y94113D02*
X147500Y86785D01*
X140172Y92850D02*
Y96231D01*
Y93403D02*
X147500Y100731D01*
X139659Y96231D02*
X147500Y104072D01*
X138726Y115603D02*
X147500Y106829D01*
X140258Y88410D02*
Y92763D01*
Y90686D02*
X147500Y83445D01*
Y70598D02*
Y120157D01*
X140258Y118146D02*
Y123854D01*
X140247Y124104D02*
X147500Y116851D01*
X140182Y117488D02*
X147500Y110170D01*
X140258Y120752D02*
X147500Y113511D01*
X141988Y60500D02*
X152308Y60500D01*
X150698D02*
X152308Y62110D01*
X147357Y60500D02*
X152857Y66000D01*
X152308Y60500D02*
Y64258D01*
X161500D01*
X152098Y66000D02*
X160000Y66000D01*
X154456Y64258D02*
X156198Y66000D01*
X157797Y64258D02*
X159538Y66000D01*
X158263D02*
X160005Y64258D01*
X157797D02*
X159538Y66000D01*
X161137Y64258D02*
X161440Y64561D01*
X160000Y66000D02*
X161500Y64500D01*
X140258Y90149D02*
X147500Y97390D01*
X141013Y60837D02*
X149137Y68961D01*
X141175Y69726D02*
X150401Y60500D01*
X138507Y129185D02*
X147517Y120175D01*
X140177Y130856D02*
X149188Y121845D01*
X140258Y120214D02*
X165447Y145403D01*
X140258Y123555D02*
X164883Y148180D01*
X144016Y60500D02*
X150807Y67291D01*
X144353Y69889D02*
X152308Y61933D01*
X154923Y66000D02*
X156664Y64258D01*
X144353Y73229D02*
X153324Y64258D01*
X147500Y70598D02*
X152098Y66000D01*
X142873Y131500D02*
X150858Y123515D01*
X146150Y131564D02*
X152528Y125186D01*
X147500Y120157D02*
X160138Y132796D01*
X139332Y125969D02*
X144862Y131500D01*
X147782Y133272D02*
X154199Y126856D01*
X149415Y134980D02*
X155869Y128526D01*
X140822Y131500D02*
X146088Y131500D01*
X151048Y136688D02*
X157539Y130197D01*
X152681Y138395D02*
X159210Y131867D01*
X146088Y131500D02*
X161000Y147096D01*
X154314Y140103D02*
X161621Y132796D01*
X155947Y141811D02*
X164962Y132796D01*
X157580Y143519D02*
X168303Y132796D01*
X159213Y145226D02*
X171643Y132796D01*
X161000Y150120D02*
X164883Y146237D01*
X161000Y147096D02*
Y158500D01*
Y147637D02*
X164883Y151521D01*
X161000Y153461D02*
X164883Y149578D01*
X161000Y156802D02*
X164883Y152918D01*
X161000Y157659D02*
X161840Y158500D01*
X161000Y150978D02*
X164883Y154862D01*
X161000Y154319D02*
X165181Y158500D01*
X164883Y145403D02*
Y155487D01*
Y154862D02*
X165508Y155487D01*
X168522Y158500D01*
X162642D02*
X165656Y155487D01*
X168849D02*
X171862Y158500D01*
X165983D02*
X168997Y155487D01*
X162862Y132796D02*
X175469Y145403D01*
X160138Y132796D02*
X175485Y132796D01*
X166202Y132796D02*
X182000Y148593D01*
X165717Y145403D02*
X176905Y134216D01*
X160846Y146934D02*
X174984Y132796D01*
X169058Y145403D02*
X178575Y135886D01*
X164883Y145403D02*
X178117D01*
X169543Y132796D02*
X182000Y145253D01*
X175485Y132796D02*
X182000Y139311D01*
X172884Y132796D02*
X182000Y141912D01*
X175739Y145403D02*
X181916Y139227D01*
X172399Y145403D02*
X180245Y137557D01*
X178117Y146367D02*
X182000Y142483D01*
X178117Y149707D02*
X182000Y145824D01*
X169324Y158500D02*
X172337Y155487D01*
X164883D02*
X178117D01*
X172664Y158500D02*
X175678Y155487D01*
X172190D02*
X175203Y158500D01*
X175530Y155487D02*
X177772Y157728D01*
X161000Y158500D02*
X177000D01*
X182000Y139311D02*
Y153500D01*
X178117Y145403D02*
Y155487D01*
Y148051D02*
X182000Y151934D01*
X178117Y153048D02*
X182000Y149164D01*
X178117Y151391D02*
X181113Y154387D01*
X178117Y154732D02*
X179442Y156058D01*
X177000Y158500D02*
X182000Y153500D01*
X176005Y158500D02*
X182000Y152505D01*
X101500Y53543D02*
X108759D01*
X101500Y93151D02*
X101500Y29000D01*
X111000Y19500D01*
X101500Y55905D02*
X108759D01*
X101500Y51181D02*
X109534D01*
X101500Y74803D02*
X104287D01*
X84765Y111464D02*
X101500Y93151D01*
X101500Y58267D02*
X108768D01*
X101500Y77165D02*
X105133D01*
X101500Y72441D02*
X104842D01*
X107874Y22626D02*
Y70293D01*
X105511Y24989D02*
Y71546D01*
X110236Y20264D02*
Y50736D01*
X108759Y52941D02*
Y58059D01*
X107874Y78864D02*
Y125539D01*
X110236Y60264D02*
Y70531D01*
Y78626D02*
Y125539D01*
X84765Y131496D02*
X100500D01*
X84765Y111464D02*
Y159721D01*
Y126771D02*
X103806D01*
X84765Y133858D02*
X100500D01*
X84765Y129133D02*
X101444D01*
X84765Y143307D02*
X100500D01*
X84765Y148031D02*
X100500D01*
X84765Y145669D02*
X100500D01*
X84765Y136220D02*
X100500D01*
X84765Y140944D02*
X100500D01*
X84765Y138582D02*
X100500D01*
X98425Y96516D02*
Y161403D01*
X96063Y99101D02*
Y161403D01*
X105511Y77611D02*
Y125539D01*
X100787Y93931D02*
Y129790D01*
X103149Y27351D02*
Y127428D01*
X86614Y109441D02*
Y174093D01*
X88976Y106857D02*
Y179261D01*
X91338Y104271D02*
Y177043D01*
X100500Y130077D02*
X105039Y125539D01*
X93700Y101686D02*
Y161403D01*
X100500Y130077D02*
Y161403D01*
X101500Y37008D02*
X113210D01*
X101500Y39370D02*
X113210D01*
X101500Y29921D02*
X123292D01*
X101500Y34645D02*
X113854D01*
X101500Y32283D02*
X121193D01*
X101500Y41732D02*
X113210D01*
X101500Y62992D02*
X115577D01*
X101500Y44094D02*
X113652D01*
X101500Y65354D02*
X127000D01*
X101500Y70078D02*
X127000D01*
X101500Y67716D02*
X127000D01*
X105303Y25197D02*
X149799D01*
X102941Y27559D02*
X149799D01*
X111000Y19500D02*
X149799D01*
X107666Y22834D02*
X149799D01*
X110028Y20472D02*
X149799D01*
X101500Y46456D02*
X119500D01*
X101500Y60630D02*
X115577D01*
X101500Y48819D02*
X117321D01*
X88047Y107874D02*
X121126D01*
X85888Y110236D02*
X118764D01*
X94522Y100787D02*
X127000D01*
X90205Y105511D02*
X123489D01*
X92364Y103149D02*
X125851D01*
X84765Y114960D02*
X114606D01*
X84765Y119685D02*
X114606D01*
X84765Y117322D02*
X114606D01*
X84765Y112598D02*
X116402D01*
X84765Y124409D02*
X114606D01*
X84765Y122047D02*
X114606D01*
X101500Y86614D02*
X117658D01*
X101500Y79527D02*
X127000D01*
X101500Y84252D02*
X127000D01*
X101500Y81889D02*
X127000D01*
X101500Y88976D02*
X117466D01*
X101500Y91338D02*
X117466D01*
X105039Y125539D02*
X114606Y125539D01*
X100998Y93700D02*
X117487D01*
X96681Y98425D02*
X127000D01*
X98839Y96063D02*
X119374D01*
X55905Y185500D02*
Y186505D01*
X44077Y187657D02*
X45138Y186426D01*
X55035Y185500D02*
X58987Y185500D01*
X55413Y185826D02*
X71131D01*
X44077Y190551D02*
X44769D01*
X44077Y188188D02*
X44769D01*
X56231D02*
X68769D01*
X72441Y172046D02*
Y184516D01*
X70078Y174408D02*
Y186879D01*
X77165Y167322D02*
Y173407D01*
X70472Y174015D02*
X76450D01*
X74803Y169684D02*
Y184459D01*
X68109Y176377D02*
X75769D01*
X56231Y190551D02*
X66406D01*
X67716Y176771D02*
Y189241D01*
X65747Y178740D02*
X75769D01*
X63385Y181102D02*
X76887D01*
X75769Y175873D02*
Y178826D01*
X44077Y187657D02*
Y193577D01*
X44094Y187637D02*
Y193594D01*
X44769Y187835D02*
Y190787D01*
X44077Y192913D02*
X45708D01*
X44077Y193577D02*
X45500Y195000D01*
X46456Y193406D02*
Y195000D01*
X47646Y193664D02*
X53354D01*
X45500Y195000D02*
X61957Y195000D01*
X48819Y193664D02*
Y195000D01*
X60630Y183857D02*
Y195000D01*
X58267Y185500D02*
Y195000D01*
X65354Y179133D02*
Y191603D01*
X61957Y195000D02*
X72498Y184459D01*
X62992Y181495D02*
Y193965D01*
X55905Y192116D02*
Y195000D01*
X51181Y193664D02*
Y195000D01*
X53543Y193658D02*
Y195000D01*
X56231Y187835D02*
Y190787D01*
X55292Y192913D02*
X64044D01*
X84252Y160235D02*
Y172996D01*
X81889Y162597D02*
Y172996D01*
X84765Y155118D02*
X100500D01*
X82283Y162204D02*
X92883D01*
X84645Y159842D02*
X100500D01*
X79920Y164566D02*
X92883D01*
X78646Y172996D02*
X84354D01*
X79527Y164960D02*
Y172996D01*
X77558Y166929D02*
X92883D01*
X72834Y171653D02*
X97078D01*
X75196Y169291D02*
X92883D01*
X84765Y152755D02*
X100500D01*
X92883Y161403D02*
Y171486D01*
X84765Y150393D02*
X100500D01*
X84765Y157480D02*
X100500D01*
X92883Y161403D02*
X100500D01*
X96063Y171486D02*
Y172606D01*
X86550Y174015D02*
X94562D01*
X93700Y171486D02*
Y174824D01*
X92883Y171486D02*
X97255D01*
X58987Y185500D02*
X84765Y159721D01*
X77165Y181292D02*
Y184459D01*
X79527Y181702D02*
Y184459D01*
X78646Y181702D02*
X84354D01*
X61023Y183464D02*
X84500D01*
X72498Y184459D02*
X83440D01*
X87231Y176377D02*
X92047D01*
X83440Y184459D02*
X97255Y171486D01*
X87231Y175873D02*
Y178826D01*
X86614Y180606D02*
Y181479D01*
X81889Y181702D02*
Y184459D01*
X84252Y181702D02*
Y183698D01*
X87231Y178740D02*
X89531D01*
X86113Y181102D02*
X87016D01*
X114960Y19500D02*
Y33907D01*
X117322Y19500D02*
Y33769D01*
X115791D02*
X118154D01*
X113210Y36350D02*
Y42650D01*
X115791Y45231D02*
X118154D01*
X122047Y19500D02*
Y31322D01*
X119685Y19500D02*
Y33980D01*
X131496Y19500D02*
Y29000D01*
X124409Y19500D02*
Y29000D01*
X126771Y19500D02*
Y29000D01*
X119523Y34162D02*
X124111Y29000D01*
X119500Y44852D02*
Y46639D01*
X124111Y29000D02*
X134482D01*
X129133Y19500D02*
Y29000D01*
X133858Y19500D02*
Y29000D01*
X112598Y19500D02*
Y50556D01*
X111143D02*
X113111D01*
X114720Y51181D02*
X115577D01*
X111143Y60443D02*
X113111D01*
X112598D02*
Y72781D01*
X114960Y59564D02*
Y114040D01*
Y45093D02*
Y51435D01*
X115496Y52941D02*
Y58059D01*
X117322Y45231D02*
Y48817D01*
X115577Y50562D02*
Y63500D01*
Y50562D02*
X119500Y46639D01*
X122047Y63500D02*
Y84769D01*
X117322Y63500D02*
Y111678D01*
X119685Y63500D02*
Y84846D01*
X127000Y63500D02*
Y73567D01*
X124409Y63500D02*
Y84994D01*
X126771Y63500D02*
Y102229D01*
X136220Y19500D02*
Y30601D01*
X138582Y19500D02*
Y32777D01*
X135482Y29921D02*
X149799D01*
X134482Y29000D02*
X143098Y36936D01*
X140944Y19500D02*
Y34953D01*
X138046Y32283D02*
X149799D01*
X140611Y34645D02*
X149799D01*
X142989Y48819D02*
X149799D01*
X142967Y51181D02*
X149799D01*
X142924Y55905D02*
X152308D01*
X142946Y53543D02*
X149799D01*
X143054Y41732D02*
X149799D01*
X143032Y44094D02*
X149799D01*
X143097Y37008D02*
X149799D01*
X143076Y39370D02*
X149799D01*
Y19500D02*
Y55172D01*
X143011Y46456D02*
X149799D01*
Y55172D02*
X152380D01*
X162910D02*
X167500D01*
X162982Y55905D02*
X168017D01*
X143307Y19500D02*
Y58000D01*
X142905D02*
X143098Y36936D01*
X150393Y55172D02*
Y58000D01*
X145669Y19500D02*
Y58000D01*
X148031Y19500D02*
Y58000D01*
X152308Y55722D02*
Y57199D01*
X142905Y58000D02*
X152464D01*
X162982Y55722D02*
Y57199D01*
X164566Y55172D02*
Y78924D01*
X167500Y55172D02*
X171424Y60734D01*
X166929Y55172D02*
Y78924D01*
X169291Y57710D02*
Y78924D01*
X162820Y58267D02*
X169684D01*
X162747Y58173D02*
X164500Y60437D01*
Y65250D01*
Y60630D02*
X171351D01*
X164500Y62992D02*
X171424D01*
Y60734D02*
X171424Y79627D01*
X112135Y77165D02*
X127000D01*
X115577Y63500D02*
X127000D01*
X112425Y72441D02*
X127000D01*
X112981Y74803D02*
X127000D01*
X117466Y87646D02*
Y93354D01*
X120343Y84769D02*
X123295D01*
X150698Y72589D02*
Y82000D01*
X125980Y86614D02*
X127000D01*
X150698Y72589D02*
X154163Y69124D01*
X150698Y84252D02*
X158490D01*
X157480Y69124D02*
Y89239D01*
X126172Y88976D02*
X127000D01*
X126172Y87646D02*
Y93354D01*
Y91338D02*
X127000D01*
X150698Y88976D02*
X157710D01*
X150698Y93700D02*
X157000D01*
X150698Y91338D02*
X157000D01*
X112598Y76376D02*
Y125539D01*
X124409Y96006D02*
Y104591D01*
X122047Y96231D02*
Y106953D01*
X114606Y114394D02*
X114606Y125539D01*
X119685Y96154D02*
Y109315D01*
X124264Y96063D02*
X127000D01*
X114606Y114394D02*
X127000Y102000D01*
X120343Y96231D02*
X123295D01*
X127000Y102000D02*
X127000Y73567D01*
X150698Y82000D02*
Y115621D01*
X157000Y97814D02*
X157000Y89788D01*
X152755Y70531D02*
Y117860D01*
X155118Y69124D02*
Y119392D01*
X126151Y93700D02*
X127000D01*
X150698Y115621D02*
X154163Y119392D01*
X150698Y96063D02*
X157000D01*
X150698Y98425D02*
X157611D01*
X152261Y117322D02*
X158490D01*
X157480Y98294D02*
Y119392D01*
X154163Y69124D02*
X161056Y69124D01*
X153208Y70078D02*
X171424D01*
X150846Y72441D02*
X171424D01*
X150698Y77165D02*
X171424D01*
X150698Y74803D02*
X171424D01*
X150698Y81889D02*
X158491D01*
X150698Y86614D02*
X158843D01*
X157000Y89788D02*
X159115Y87368D01*
X150698Y79527D02*
X159702D01*
X157000Y97814D02*
X159186Y100000D01*
X162204Y67833D02*
Y78924D01*
X159842Y69124D02*
Y79428D01*
X164408Y65354D02*
X171424D01*
X161056Y69124D02*
X164500Y65250D01*
X162308Y67716D02*
X171424D01*
X158490Y81948D02*
Y85196D01*
X161514Y78924D02*
X169486D01*
X150698Y100787D02*
X171424D01*
X150698Y103149D02*
X171424D01*
X150698Y105511D02*
X171424D01*
X150698Y110236D02*
X171424D01*
X150698Y107874D02*
X171424D01*
X150698Y114960D02*
X158490D01*
X154163Y119392D02*
X158918D01*
X158490Y114593D02*
Y117841D01*
X150698Y112598D02*
X159241D01*
X162204Y100000D02*
Y111568D01*
X159842Y100000D02*
Y112073D01*
X159186Y100000D02*
X171424Y100000D01*
X164566Y100000D02*
Y111568D01*
X166929Y100000D02*
Y111568D01*
X169291Y100000D02*
Y111568D01*
X161514D02*
X169486D01*
X171424Y100000D02*
X171424Y112271D01*
D45*
X29016Y142311D02*
D03*
D46*
X44764D02*
D03*
X29016Y118689D02*
D03*
X44764D02*
D03*
D47*
X108634Y74578D02*
D03*
D48*
X140000Y74078D02*
D03*
D49*
X68713Y24500D02*
D03*
X40000D02*
D03*
D50*
X116972Y39500D02*
D03*
X129571D02*
D03*
X123799Y138000D02*
D03*
X111201D02*
D03*
X123799Y150500D02*
D03*
X111201D02*
D03*
X34299Y95000D02*
D03*
X21701D02*
D03*
X50799Y82000D02*
D03*
X38201D02*
D03*
D51*
X112127Y55500D02*
D03*
X120789D02*
D03*
X169669Y187000D02*
D03*
X178331D02*
D03*
X152169D02*
D03*
X160831D02*
D03*
X123169Y176500D02*
D03*
X131831D02*
D03*
Y187000D02*
D03*
X123169D02*
D03*
D52*
X171500Y168555D02*
D03*
X99500Y184555D02*
D03*
D53*
X171500Y150445D02*
D03*
X99500Y166445D02*
D03*
D54*
X9843Y194882D02*
D03*
D55*
X179134Y29528D02*
D03*
D56*
X129571Y34169D02*
Y39500D01*
X126209D02*
X129571D01*
Y44831D01*
Y39500D02*
X132933D01*
X134358Y55500D02*
X137721D01*
Y50563D02*
Y55500D01*
Y60437D01*
X135819Y85169D02*
Y90500D01*
Y95831D01*
X135906Y115669D02*
Y121000D01*
Y126331D01*
X136047Y74078D02*
X140000D01*
X135819Y90500D02*
X139772D01*
X135906Y121000D02*
X139858D01*
X140000Y74078D02*
Y78031D01*
Y70126D02*
Y74078D01*
X143953D01*
X152314Y61382D02*
X157251D01*
Y63858D01*
X165284Y150445D02*
X171500D01*
Y145803D02*
Y150445D01*
Y155087D01*
Y150445D02*
X177717D01*
X108634Y70626D02*
Y74578D01*
X104681D02*
X108634D01*
Y78531D01*
Y74578D02*
X112587D01*
X109159Y55500D02*
X112127D01*
X45169Y189311D02*
X50500D01*
X55831D01*
X50500D02*
Y193264D01*
X93283Y166445D02*
X99500D01*
Y161803D02*
Y166445D01*
X76169Y177349D02*
X81500D01*
X86831D01*
X81500D02*
Y181302D01*
Y173397D02*
Y177349D01*
X116972Y34169D02*
Y39500D01*
X113610D02*
X116972D01*
Y44831D01*
X112127Y50956D02*
Y55500D01*
Y60043D01*
Y55500D02*
X115096D01*
X152314Y56461D02*
X157251D01*
X162188D01*
X117866Y90500D02*
X121819D01*
Y85169D02*
Y90500D01*
X125772D01*
X121819D02*
Y95831D01*
X165500Y79324D02*
Y83572D01*
X158890D02*
X165500D01*
X158890Y116217D02*
X165500D01*
Y111969D02*
Y116217D01*
D57*
X135819Y90500D02*
X135906Y90587D01*
D58*
X174784Y126216D02*
X180751Y120249D01*
Y50751D02*
Y120249D01*
X176618Y46618D02*
X180751Y50751D01*
X157251Y46618D02*
X176618D01*
X176000Y53108D02*
Y89850D01*
X172278Y93572D02*
X176000Y89850D01*
X165500Y93572D02*
X172278D01*
X157251Y51539D02*
X174431D01*
X176000Y53108D01*
X165500Y126216D02*
X174784D01*
D59*
X127878Y55500D02*
X127878Y55500D01*
X120789Y55500D02*
X127878D01*
X171500Y168555D02*
X178331Y175386D01*
Y187000D01*
X160831D02*
X169669D01*
D60*
X68713Y14658D02*
D03*
Y34343D02*
D03*
X40000Y14658D02*
D03*
Y34343D02*
D03*
M02*
